<?xml version="1.0" encoding="UTF-8"?>
<svg xmlns="http://www.w3.org/2000/svg" xmlns:xlink="http://www.w3.org/1999/xlink" width="170.0787pt" height="97.79528pt" viewBox="0 0 170.0787 97.79528" version="1.1">
<defs>
<clipPath id="clip1">
  <path d="M 0 0 L 170.078125 0 L 170.078125 97.796875 L 0 97.796875 Z M 0 0 "/>
</clipPath>
<clipPath id="clip3">
  <path d="M 0 0 L 170.078125 0 L 170.078125 97.796875 L 0 97.796875 Z M 0 0 "/>
</clipPath>
<clipPath id="clip2">
  <rect x="0" y="0" width="171" height="98"/>
</clipPath>
<g id="surface5" clip-path="url(#clip2)">
<g clip-path="url(#clip3)" clip-rule="nonzero">
<path style=" stroke:none;fill-rule:nonzero;fill:rgb(100%,100%,100%);fill-opacity:1;" d="M 0 0 L 170.078125 0 L 170.078125 97.796875 L 0 97.796875 Z M 0 0 "/>
</g>
</g>
</defs>
<g id="surface1">
<g clip-path="url(#clip1)" clip-rule="nonzero">
<use xlink:href="#surface5"/>
</g>
<path style="fill:none;stroke-width:1;stroke-linecap:butt;stroke-linejoin:miter;stroke:rgb(0%,0%,0%);stroke-opacity:1;stroke-miterlimit:4;" d="M 149.519531 10 L 15.519531 10 "/>
<path style="fill:none;stroke-width:1;stroke-linecap:butt;stroke-linejoin:miter;stroke:rgb(0%,0%,0%);stroke-opacity:1;stroke-miterlimit:4;" d="M 122.058594 10 L 139.808594 67.542969 "/>
<path style="fill:none;stroke-width:0.5;stroke-linecap:butt;stroke-linejoin:miter;stroke:rgb(0%,0%,0%);stroke-opacity:1;stroke-dasharray:1.5,1;stroke-miterlimit:4;" d="M 122.058594 10 L 122.058594 58.644531 "/>
<path style="fill:none;stroke-width:0.5;stroke-linecap:butt;stroke-linejoin:miter;stroke:rgb(0%,0%,0%);stroke-opacity:1;stroke-dasharray:1.5,1;stroke-miterlimit:4;" d="M 122.058594 55.503906 C 126.675781 55.503906 131.265625 54.578125 135.671875 52.757812 "/>
<path style="fill:none;stroke-width:1;stroke-linecap:butt;stroke-linejoin:miter;stroke:rgb(0%,0%,0%);stroke-opacity:1;stroke-miterlimit:4;" d="M 74.605469 10 L 92.355469 67.542969 "/>
<path style="fill:none;stroke-width:0.5;stroke-linecap:butt;stroke-linejoin:miter;stroke:rgb(0%,0%,0%);stroke-opacity:1;stroke-dasharray:1.5,1;stroke-miterlimit:4;" d="M 74.605469 10 L 74.605469 58.644531 "/>
<path style="fill:none;stroke-width:0.5;stroke-linecap:butt;stroke-linejoin:miter;stroke:rgb(0%,0%,0%);stroke-opacity:1;stroke-dasharray:1.5,1;stroke-miterlimit:4;" d="M 74.605469 55.503906 C 79.222656 55.503906 83.8125 54.578125 88.21875 52.757812 "/>
<path style="fill:none;stroke-width:1;stroke-linecap:butt;stroke-linejoin:miter;stroke:rgb(0%,0%,0%);stroke-opacity:1;stroke-miterlimit:4;" d="M 27.152344 10 L 44.902344 67.542969 "/>
<path style="fill:none;stroke-width:0.5;stroke-linecap:butt;stroke-linejoin:miter;stroke:rgb(0%,0%,0%);stroke-opacity:1;stroke-dasharray:1.5,1;stroke-miterlimit:4;" d="M 27.152344 10 L 27.152344 58.644531 "/>
<path style="fill:none;stroke-width:0.5;stroke-linecap:butt;stroke-linejoin:miter;stroke:rgb(0%,0%,0%);stroke-opacity:1;stroke-dasharray:1.5,1;stroke-miterlimit:4;" d="M 27.152344 55.503906 C 31.769531 55.503906 36.359375 54.578125 40.769531 52.757812 "/>
<path style="fill:none;stroke-width:1;stroke-linecap:butt;stroke-linejoin:miter;stroke:rgb(0%,0%,0%);stroke-opacity:1;stroke-miterlimit:4;" d="M 141.519531 90.855469 C 147.859375 90.855469 153 85.636719 153 79.199219 C 153 72.761719 147.859375 67.542969 141.519531 67.542969 C 135.179688 67.542969 130.039062 72.761719 130.039062 79.199219 C 130.039062 85.636719 135.179688 90.855469 141.519531 90.855469 Z M 141.519531 90.855469 "/>
<path style="fill:none;stroke-width:1;stroke-linecap:butt;stroke-linejoin:miter;stroke:rgb(0%,0%,0%);stroke-opacity:1;stroke-miterlimit:4;" d="M 93.597656 90.855469 C 99.9375 90.855469 105.078125 85.636719 105.078125 79.199219 C 105.078125 72.761719 99.9375 67.542969 93.597656 67.542969 C 87.253906 67.542969 82.117188 72.761719 82.117188 79.199219 C 82.117188 85.636719 87.253906 90.855469 93.597656 90.855469 Z M 93.597656 90.855469 "/>
<path style="fill:none;stroke-width:1;stroke-linecap:butt;stroke-linejoin:miter;stroke:rgb(0%,0%,0%);stroke-opacity:1;stroke-miterlimit:4;" d="M 45.675781 90.855469 C 52.015625 90.855469 57.15625 85.636719 57.15625 79.199219 C 57.15625 72.761719 52.015625 67.542969 45.675781 67.542969 C 39.332031 67.542969 34.191406 72.761719 34.191406 79.199219 C 34.191406 85.636719 39.332031 90.855469 45.675781 90.855469 Z M 45.675781 90.855469 "/>
<path style="fill:none;stroke-width:1;stroke-linecap:butt;stroke-linejoin:miter;stroke:rgb(0%,0%,0%);stroke-opacity:1;stroke-dasharray:3,2;stroke-miterlimit:4;" d="M 130.039062 79.199219 L 105.078125 79.199219 "/>
<path style="fill:none;stroke-width:1;stroke-linecap:butt;stroke-linejoin:miter;stroke:rgb(0%,0%,0%);stroke-opacity:1;stroke-dasharray:3,2;stroke-miterlimit:4;" d="M 82.117188 79.199219 L 57.15625 79.199219 "/>
<path style=" stroke:none;fill-rule:nonzero;fill:rgb(0%,0%,0%);fill-opacity:1;" d="M 33.488281 44.191406 C 33.488281 43.402344 33.273438 41.738281 32.054688 41.738281 C 30.390625 41.738281 28.550781 45.109375 28.550781 47.847656 C 28.550781 48.972656 28.898438 50.300781 29.984375 50.300781 C 31.671875 50.300781 33.488281 46.867188 33.488281 44.191406 Z M 29.816406 45.828125 C 30.019531 45.0625 30.261719 44.105469 30.738281 43.257812 C 31.0625 42.671875 31.503906 42.003906 32.042969 42.003906 C 32.625 42.003906 32.699219 42.765625 32.699219 43.449219 C 32.699219 44.035156 32.601562 44.644531 32.316406 45.828125 Z M 32.207031 46.210938 C 32.078125 46.761719 31.824219 47.777344 31.371094 48.636719 C 30.953125 49.449219 30.5 50.035156 29.984375 50.035156 C 29.589844 50.035156 29.339844 49.6875 29.339844 48.578125 C 29.339844 48.074219 29.410156 47.382812 29.722656 46.210938 Z M 32.207031 46.210938 "/>
<path style=" stroke:none;fill-rule:nonzero;fill:rgb(0%,0%,0%);fill-opacity:1;" d="M 36.464844 46.640625 C 36.464844 46.414062 36.445312 46.40625 36.210938 46.40625 C 35.675781 46.933594 34.914062 46.941406 34.574219 46.941406 L 34.574219 47.242188 C 34.773438 47.242188 35.324219 47.242188 35.785156 47.007812 L 35.785156 51.273438 C 35.785156 51.550781 35.785156 51.660156 34.949219 51.660156 L 34.632812 51.660156 L 34.632812 51.960938 C 34.78125 51.953125 35.8125 51.929688 36.121094 51.929688 C 36.378906 51.929688 37.433594 51.953125 37.617188 51.960938 L 37.617188 51.660156 L 37.300781 51.660156 C 36.464844 51.660156 36.464844 51.550781 36.464844 51.273438 Z M 36.464844 46.640625 "/>
<path style=" stroke:none;fill-rule:nonzero;fill:rgb(0%,0%,0%);fill-opacity:1;" d="M 80.828125 44.191406 C 80.828125 43.402344 80.613281 41.738281 79.390625 41.738281 C 77.730469 41.738281 75.890625 45.109375 75.890625 47.847656 C 75.890625 48.972656 76.234375 50.300781 77.324219 50.300781 C 79.007812 50.300781 80.828125 46.867188 80.828125 44.191406 Z M 77.15625 45.828125 C 77.359375 45.0625 77.597656 44.105469 78.078125 43.257812 C 78.398438 42.671875 78.84375 42.003906 79.378906 42.003906 C 79.964844 42.003906 80.039062 42.765625 80.039062 43.449219 C 80.039062 44.035156 79.941406 44.644531 79.65625 45.828125 Z M 79.546875 46.210938 C 79.417969 46.761719 79.164062 47.777344 78.710938 48.636719 C 78.292969 49.449219 77.839844 50.035156 77.324219 50.035156 C 76.929688 50.035156 76.679688 49.6875 76.679688 48.578125 C 76.679688 48.074219 76.75 47.382812 77.0625 46.210938 Z M 79.546875 46.210938 "/>
<path style=" stroke:none;fill-rule:nonzero;fill:rgb(0%,0%,0%);fill-opacity:1;" d="M 85.226562 50.4375 L 84.941406 50.4375 C 84.917969 50.621094 84.832031 51.117188 84.722656 51.199219 C 84.65625 51.25 84.011719 51.25 83.894531 51.25 L 82.355469 51.25 C 83.234375 50.472656 83.527344 50.238281 84.027344 49.84375 C 84.648438 49.351562 85.226562 48.832031 85.226562 48.035156 C 85.226562 47.023438 84.339844 46.40625 83.265625 46.40625 C 82.230469 46.40625 81.527344 47.132812 81.527344 47.902344 C 81.527344 48.328125 81.886719 48.371094 81.96875 48.371094 C 82.171875 48.371094 82.414062 48.230469 82.414062 47.925781 C 82.414062 47.777344 82.355469 47.484375 81.921875 47.484375 C 82.179688 46.890625 82.75 46.707031 83.140625 46.707031 C 83.980469 46.707031 84.414062 47.359375 84.414062 48.035156 C 84.414062 48.765625 83.894531 49.34375 83.628906 49.644531 L 81.609375 51.636719 C 81.527344 51.710938 81.527344 51.726562 81.527344 51.960938 L 84.976562 51.960938 Z M 85.226562 50.4375 "/>
<path style=" stroke:none;fill-rule:nonzero;fill:rgb(0%,0%,0%);fill-opacity:1;" d="M 129.097656 44.105469 C 129.097656 43.316406 128.882812 41.65625 127.664062 41.65625 C 126 41.65625 124.160156 45.027344 124.160156 47.765625 C 124.160156 48.886719 124.507812 50.214844 125.59375 50.214844 C 127.28125 50.214844 129.097656 46.785156 129.097656 44.105469 Z M 125.429688 45.742188 C 125.632812 44.980469 125.871094 44.023438 126.347656 43.171875 C 126.671875 42.585938 127.113281 41.917969 127.652344 41.917969 C 128.238281 41.917969 128.308594 42.683594 128.308594 43.363281 C 128.308594 43.949219 128.214844 44.558594 127.925781 45.742188 Z M 127.820312 46.125 C 127.6875 46.675781 127.4375 47.691406 126.980469 48.554688 C 126.5625 49.367188 126.109375 49.953125 125.59375 49.953125 C 125.199219 49.953125 124.949219 49.605469 124.949219 48.492188 C 124.949219 47.992188 125.023438 47.296875 125.332031 46.125 Z M 127.820312 46.125 "/>
<path style=" stroke:none;fill-rule:nonzero;fill:rgb(0%,0%,0%);fill-opacity:1;" d="M 131.554688 49.082031 C 132.207031 49.082031 132.675781 49.535156 132.675781 50.429688 C 132.675781 51.46875 132.074219 51.777344 131.589844 51.777344 C 131.253906 51.777344 130.519531 51.683594 130.167969 51.191406 C 130.558594 51.175781 130.652344 50.898438 130.652344 50.722656 C 130.652344 50.453125 130.449219 50.261719 130.191406 50.261719 C 129.957031 50.261719 129.722656 50.40625 129.722656 50.746094 C 129.722656 51.535156 130.59375 52.046875 131.605469 52.046875 C 132.769531 52.046875 133.574219 51.265625 133.574219 50.429688 C 133.574219 49.777344 133.035156 49.125 132.117188 48.933594 C 132.996094 48.613281 133.3125 47.984375 133.3125 47.476562 C 133.3125 46.816406 132.550781 46.320312 131.621094 46.320312 C 130.695312 46.320312 129.980469 46.773438 129.980469 47.441406 C 129.980469 47.726562 130.167969 47.886719 130.417969 47.886719 C 130.675781 47.886719 130.84375 47.691406 130.84375 47.460938 C 130.84375 47.214844 130.675781 47.039062 130.417969 47.023438 C 130.710938 46.65625 131.289062 46.5625 131.597656 46.5625 C 131.972656 46.5625 132.5 46.746094 132.5 47.476562 C 132.5 47.828125 132.382812 48.210938 132.167969 48.472656 C 131.890625 48.789062 131.65625 48.804688 131.238281 48.832031 C 131.027344 48.847656 131.011719 48.847656 130.96875 48.855469 C 130.953125 48.855469 130.886719 48.875 130.886719 48.964844 C 130.886719 49.082031 130.960938 49.082031 131.105469 49.082031 Z M 131.554688 49.082031 "/>
<path style=" stroke:none;fill-rule:nonzero;fill:rgb(0%,0%,0%);fill-opacity:1;" d="M 70.703125 82.558594 C 70.703125 82.546875 70.703125 82.425781 70.546875 82.425781 C 70.273438 82.425781 69.398438 82.523438 69.089844 82.546875 C 68.992188 82.558594 68.863281 82.570312 68.863281 82.785156 C 68.863281 82.929688 68.96875 82.929688 69.148438 82.929688 C 69.722656 82.929688 69.746094 83.011719 69.746094 83.132812 L 69.710938 83.371094 L 67.976562 90.257812 C 67.929688 90.425781 67.929688 90.449219 67.929688 90.519531 C 67.929688 90.796875 68.167969 90.855469 68.277344 90.855469 C 68.429688 90.855469 68.609375 90.746094 68.683594 90.605469 C 68.742188 90.496094 69.28125 88.285156 69.351562 87.984375 C 69.757812 88.019531 70.738281 88.210938 70.738281 89 C 70.738281 89.085938 70.738281 89.132812 70.703125 89.253906 C 70.679688 89.394531 70.65625 89.539062 70.65625 89.671875 C 70.65625 90.375 71.132812 90.855469 71.753906 90.855469 C 72.113281 90.855469 72.4375 90.664062 72.699219 90.222656 C 72.996094 89.695312 73.128906 89.039062 73.128906 89.015625 C 73.128906 88.894531 73.023438 88.894531 72.984375 88.894531 C 72.867188 88.894531 72.855469 88.941406 72.820312 89.109375 C 72.578125 89.980469 72.304688 90.589844 71.777344 90.589844 C 71.550781 90.589844 71.394531 90.460938 71.394531 90.03125 C 71.394531 89.828125 71.445312 89.550781 71.492188 89.359375 C 71.539062 89.15625 71.539062 89.109375 71.539062 88.988281 C 71.539062 88.210938 70.785156 87.867188 69.769531 87.734375 C 70.140625 87.519531 70.523438 87.136719 70.796875 86.851562 C 71.371094 86.214844 71.921875 85.703125 72.507812 85.703125 C 72.578125 85.703125 72.589844 85.703125 72.617188 85.714844 C 72.757812 85.738281 72.769531 85.738281 72.867188 85.808594 C 72.890625 85.820312 72.890625 85.832031 72.914062 85.859375 C 72.339844 85.894531 72.234375 86.359375 72.234375 86.503906 C 72.234375 86.695312 72.363281 86.921875 72.6875 86.921875 C 72.996094 86.921875 73.34375 86.660156 73.34375 86.191406 C 73.34375 85.832031 73.070312 85.4375 72.53125 85.4375 C 72.195312 85.4375 71.648438 85.535156 70.785156 86.492188 C 70.378906 86.945312 69.914062 87.421875 69.460938 87.601562 Z M 70.703125 82.558594 "/>
<path style=" stroke:none;fill-rule:nonzero;fill:rgb(0%,0%,0%);fill-opacity:1;" d="M 119.417969 82.558594 C 119.417969 82.546875 119.417969 82.425781 119.261719 82.425781 C 118.988281 82.425781 118.113281 82.523438 117.804688 82.546875 C 117.707031 82.558594 117.578125 82.570312 117.578125 82.785156 C 117.578125 82.929688 117.683594 82.929688 117.863281 82.929688 C 118.4375 82.929688 118.460938 83.011719 118.460938 83.132812 L 118.425781 83.371094 L 116.691406 90.257812 C 116.644531 90.425781 116.644531 90.449219 116.644531 90.519531 C 116.644531 90.796875 116.882812 90.855469 116.992188 90.855469 C 117.144531 90.855469 117.324219 90.746094 117.398438 90.605469 C 117.457031 90.496094 117.996094 88.285156 118.066406 87.984375 C 118.472656 88.019531 119.453125 88.210938 119.453125 89 C 119.453125 89.085938 119.453125 89.132812 119.417969 89.253906 C 119.394531 89.394531 119.371094 89.539062 119.371094 89.671875 C 119.371094 90.375 119.847656 90.855469 120.46875 90.855469 C 120.828125 90.855469 121.152344 90.664062 121.414062 90.222656 C 121.714844 89.695312 121.84375 89.039062 121.84375 89.015625 C 121.84375 88.894531 121.738281 88.894531 121.699219 88.894531 C 121.582031 88.894531 121.570312 88.941406 121.535156 89.109375 C 121.292969 89.980469 121.019531 90.589844 120.492188 90.589844 C 120.265625 90.589844 120.109375 90.460938 120.109375 90.03125 C 120.109375 89.828125 120.160156 89.550781 120.207031 89.359375 C 120.253906 89.15625 120.253906 89.109375 120.253906 88.988281 C 120.253906 88.210938 119.5 87.867188 118.484375 87.734375 C 118.855469 87.519531 119.238281 87.136719 119.511719 86.851562 C 120.085938 86.214844 120.636719 85.703125 121.222656 85.703125 C 121.292969 85.703125 121.304688 85.703125 121.332031 85.714844 C 121.472656 85.738281 121.484375 85.738281 121.582031 85.808594 C 121.605469 85.820312 121.605469 85.832031 121.628906 85.859375 C 121.054688 85.894531 120.949219 86.359375 120.949219 86.503906 C 120.949219 86.695312 121.078125 86.921875 121.402344 86.921875 C 121.714844 86.921875 122.058594 86.660156 122.058594 86.191406 C 122.058594 85.832031 121.785156 85.4375 121.246094 85.4375 C 120.910156 85.4375 120.363281 85.535156 119.5 86.492188 C 119.09375 86.945312 118.628906 87.421875 118.175781 87.601562 Z M 119.417969 82.558594 "/>
<path style=" stroke:none;fill-rule:nonzero;fill:rgb(0%,0%,0%);fill-opacity:1;" d="M 41.472656 81.589844 C 41.4375 81.769531 41.367188 82.042969 41.367188 82.105469 C 41.367188 82.320312 41.53125 82.425781 41.710938 82.425781 C 41.855469 82.425781 42.070312 82.332031 42.15625 82.089844 C 42.167969 82.066406 42.308594 81.507812 42.382812 81.207031 L 42.644531 80.132812 C 42.714844 79.867188 42.789062 79.605469 42.847656 79.328125 C 42.894531 79.125 42.992188 78.78125 43.003906 78.730469 C 43.183594 78.363281 43.816406 77.273438 44.953125 77.273438 C 45.488281 77.273438 45.597656 77.714844 45.597656 78.109375 C 45.597656 78.410156 45.515625 78.746094 45.417969 79.101562 L 45.082031 80.488281 L 44.84375 81.398438 C 44.796875 81.636719 44.6875 82.042969 44.6875 82.105469 C 44.6875 82.320312 44.855469 82.425781 45.035156 82.425781 C 45.40625 82.425781 45.476562 82.128906 45.574219 81.746094 C 45.742188 81.074219 46.183594 79.328125 46.289062 78.863281 C 46.328125 78.707031 46.960938 77.273438 48.261719 77.273438 C 48.777344 77.273438 48.910156 77.679688 48.910156 78.109375 C 48.910156 78.792969 48.40625 80.15625 48.167969 80.789062 C 48.058594 81.074219 48.011719 81.207031 48.011719 81.445312 C 48.011719 82.007812 48.429688 82.425781 48.992188 82.425781 C 50.117188 82.425781 50.558594 80.679688 50.558594 80.585938 C 50.558594 80.464844 50.453125 80.464844 50.414062 80.464844 C 50.296875 80.464844 50.296875 80.5 50.234375 80.679688 C 50.058594 81.316406 49.675781 82.164062 49.015625 82.164062 C 48.8125 82.164062 48.730469 82.042969 48.730469 81.769531 C 48.730469 81.46875 48.835938 81.183594 48.945312 80.921875 C 49.171875 80.296875 49.675781 78.972656 49.675781 78.289062 C 49.675781 77.511719 49.195312 77.011719 48.300781 77.011719 C 47.402344 77.011719 46.792969 77.535156 46.351562 78.171875 C 46.339844 78.015625 46.304688 77.609375 45.96875 77.320312 C 45.667969 77.070312 45.285156 77.011719 44.988281 77.011719 C 43.910156 77.011719 43.324219 77.777344 43.121094 78.050781 C 43.0625 77.371094 42.5625 77.011719 42.023438 77.011719 C 41.472656 77.011719 41.246094 77.476562 41.136719 77.691406 C 40.921875 78.109375 40.769531 78.816406 40.769531 78.851562 C 40.769531 78.972656 40.886719 78.972656 40.910156 78.972656 C 41.03125 78.972656 41.042969 78.960938 41.113281 78.695312 C 41.316406 77.847656 41.558594 77.273438 41.988281 77.273438 C 42.179688 77.273438 42.359375 77.371094 42.359375 77.824219 C 42.359375 78.074219 42.320312 78.207031 42.167969 78.828125 Z M 41.472656 81.589844 "/>
<path style=" stroke:none;fill-rule:nonzero;fill:rgb(0%,0%,0%);fill-opacity:1;" d="M 89.40625 81.589844 C 89.371094 81.769531 89.296875 82.042969 89.296875 82.105469 C 89.296875 82.320312 89.464844 82.425781 89.644531 82.425781 C 89.789062 82.425781 90.003906 82.332031 90.085938 82.089844 C 90.097656 82.066406 90.242188 81.507812 90.316406 81.207031 L 90.578125 80.132812 C 90.648438 79.867188 90.722656 79.605469 90.78125 79.328125 C 90.828125 79.125 90.925781 78.78125 90.9375 78.730469 C 91.117188 78.363281 91.75 77.273438 92.886719 77.273438 C 93.421875 77.273438 93.53125 77.714844 93.53125 78.109375 C 93.53125 78.410156 93.445312 78.746094 93.351562 79.101562 L 93.015625 80.488281 L 92.777344 81.398438 C 92.730469 81.636719 92.621094 82.042969 92.621094 82.105469 C 92.621094 82.320312 92.789062 82.425781 92.96875 82.425781 C 93.339844 82.425781 93.410156 82.128906 93.507812 81.746094 C 93.675781 81.074219 94.117188 79.328125 94.222656 78.863281 C 94.261719 78.707031 94.894531 77.273438 96.195312 77.273438 C 96.710938 77.273438 96.84375 77.679688 96.84375 78.109375 C 96.84375 78.792969 96.339844 80.15625 96.101562 80.789062 C 95.992188 81.074219 95.945312 81.207031 95.945312 81.445312 C 95.945312 82.007812 96.363281 82.425781 96.925781 82.425781 C 98.050781 82.425781 98.492188 80.679688 98.492188 80.585938 C 98.492188 80.464844 98.382812 80.464844 98.347656 80.464844 C 98.230469 80.464844 98.230469 80.5 98.167969 80.679688 C 97.988281 81.316406 97.605469 82.164062 96.949219 82.164062 C 96.746094 82.164062 96.664062 82.042969 96.664062 81.769531 C 96.664062 81.46875 96.769531 81.183594 96.878906 80.921875 C 97.105469 80.296875 97.605469 78.972656 97.605469 78.289062 C 97.605469 77.511719 97.128906 77.011719 96.234375 77.011719 C 95.335938 77.011719 94.726562 77.535156 94.285156 78.171875 C 94.273438 78.015625 94.234375 77.609375 93.902344 77.320312 C 93.601562 77.070312 93.21875 77.011719 92.921875 77.011719 C 91.84375 77.011719 91.257812 77.777344 91.054688 78.050781 C 90.996094 77.371094 90.492188 77.011719 89.957031 77.011719 C 89.40625 77.011719 89.179688 77.476562 89.070312 77.691406 C 88.855469 78.109375 88.699219 78.816406 88.699219 78.851562 C 88.699219 78.972656 88.820312 78.972656 88.84375 78.972656 C 88.964844 78.972656 88.976562 78.960938 89.046875 78.695312 C 89.25 77.847656 89.488281 77.273438 89.921875 77.273438 C 90.113281 77.273438 90.289062 77.371094 90.289062 77.824219 C 90.289062 78.074219 90.253906 78.207031 90.097656 78.828125 Z M 89.40625 81.589844 "/>
<path style=" stroke:none;fill-rule:nonzero;fill:rgb(0%,0%,0%);fill-opacity:1;" d="M 137.339844 81.589844 C 137.304688 81.769531 137.230469 82.042969 137.230469 82.105469 C 137.230469 82.320312 137.398438 82.425781 137.578125 82.425781 C 137.722656 82.425781 137.9375 82.332031 138.019531 82.089844 C 138.03125 82.066406 138.175781 81.507812 138.246094 81.207031 L 138.511719 80.132812 C 138.582031 79.867188 138.65625 79.605469 138.714844 79.328125 C 138.761719 79.125 138.859375 78.78125 138.871094 78.730469 C 139.050781 78.363281 139.683594 77.273438 140.816406 77.273438 C 141.355469 77.273438 141.464844 77.714844 141.464844 78.109375 C 141.464844 78.410156 141.378906 78.746094 141.285156 79.101562 L 140.949219 80.488281 L 140.710938 81.398438 C 140.664062 81.636719 140.554688 82.042969 140.554688 82.105469 C 140.554688 82.320312 140.722656 82.425781 140.902344 82.425781 C 141.273438 82.425781 141.34375 82.128906 141.441406 81.746094 C 141.605469 81.074219 142.050781 79.328125 142.15625 78.863281 C 142.191406 78.707031 142.828125 77.273438 144.128906 77.273438 C 144.644531 77.273438 144.777344 77.679688 144.777344 78.109375 C 144.777344 78.792969 144.273438 80.15625 144.035156 80.789062 C 143.925781 81.074219 143.878906 81.207031 143.878906 81.445312 C 143.878906 82.007812 144.296875 82.425781 144.859375 82.425781 C 145.984375 82.425781 146.425781 80.679688 146.425781 80.585938 C 146.425781 80.464844 146.316406 80.464844 146.28125 80.464844 C 146.164062 80.464844 146.164062 80.5 146.101562 80.679688 C 145.921875 81.316406 145.539062 82.164062 144.882812 82.164062 C 144.679688 82.164062 144.597656 82.042969 144.597656 81.769531 C 144.597656 81.46875 144.703125 81.183594 144.8125 80.921875 C 145.039062 80.296875 145.539062 78.972656 145.539062 78.289062 C 145.539062 77.511719 145.0625 77.011719 144.164062 77.011719 C 143.269531 77.011719 142.660156 77.535156 142.21875 78.171875 C 142.207031 78.015625 142.167969 77.609375 141.835938 77.320312 C 141.535156 77.070312 141.152344 77.011719 140.855469 77.011719 C 139.777344 77.011719 139.191406 77.777344 138.988281 78.050781 C 138.929688 77.371094 138.425781 77.011719 137.890625 77.011719 C 137.339844 77.011719 137.113281 77.476562 137.003906 77.691406 C 136.789062 78.109375 136.632812 78.816406 136.632812 78.851562 C 136.632812 78.972656 136.753906 78.972656 136.777344 78.972656 C 136.898438 78.972656 136.910156 78.960938 136.980469 78.695312 C 137.183594 77.847656 137.421875 77.273438 137.851562 77.273438 C 138.042969 77.273438 138.222656 77.371094 138.222656 77.824219 C 138.222656 78.074219 138.1875 78.207031 138.03125 78.828125 Z M 137.339844 81.589844 "/>
<path style=" stroke:none;fill-rule:nonzero;fill:rgb(0%,0%,0%);fill-opacity:1;" d="M 44.902344 35.269531 C 44.902344 35.257812 44.902344 35.136719 44.746094 35.136719 C 44.472656 35.136719 43.601562 35.234375 43.289062 35.257812 C 43.195312 35.269531 43.0625 35.28125 43.0625 35.507812 C 43.0625 35.640625 43.183594 35.640625 43.359375 35.640625 C 43.933594 35.640625 43.945312 35.746094 43.945312 35.84375 L 43.910156 36.082031 L 42.40625 42.058594 C 42.367188 42.191406 42.34375 42.273438 42.34375 42.464844 C 42.34375 43.148438 42.871094 43.566406 43.433594 43.566406 C 43.828125 43.566406 44.125 43.328125 44.328125 42.894531 C 44.542969 42.441406 44.6875 41.75 44.6875 41.722656 C 44.6875 41.605469 44.582031 41.605469 44.542969 41.605469 C 44.425781 41.605469 44.414062 41.652344 44.378906 41.820312 C 44.175781 42.597656 43.945312 43.300781 43.46875 43.300781 C 43.109375 43.300781 43.109375 42.917969 43.109375 42.753906 C 43.109375 42.464844 43.121094 42.40625 43.183594 42.179688 Z M 44.902344 35.269531 "/>
</g>
</svg>
