<?xml version="1.0" encoding="UTF-8"?>
<svg xmlns="http://www.w3.org/2000/svg" xmlns:xlink="http://www.w3.org/1999/xlink" width="170.0787pt" height="170.0788pt" viewBox="0 0 170.0787 170.0788" version="1.1">
<defs>
<clipPath id="clip1">
  <path d="M 0 0 L 170.078125 0 L 170.078125 170.078125 L 0 170.078125 Z M 0 0 "/>
</clipPath>
<clipPath id="clip3">
  <path d="M 0 0 L 170.078125 0 L 170.078125 170.078125 L 0 170.078125 Z M 0 0 "/>
</clipPath>
<clipPath id="clip2">
  <rect x="0" y="0" width="171" height="171"/>
</clipPath>
<g id="surface5" clip-path="url(#clip2)">
<g clip-path="url(#clip3)" clip-rule="nonzero">
<path style=" stroke:none;fill-rule:nonzero;fill:rgb(100%,100%,100%);fill-opacity:1;" d="M 0 0 L 170.078125 0 L 170.078125 170.078125 L 0 170.078125 Z M 0 0 "/>
</g>
</g>
</defs>
<g id="surface1">
<g clip-path="url(#clip1)" clip-rule="nonzero">
<use xlink:href="#surface5"/>
</g>
<path style="fill:none;stroke-width:1;stroke-linecap:butt;stroke-linejoin:miter;stroke:rgb(0%,0%,0%);stroke-opacity:1;stroke-miterlimit:4;" d="M 107.617188 32.980469 L 107.617188 87.464844 "/>
<path style="fill:none;stroke-width:1;stroke-linecap:butt;stroke-linejoin:miter;stroke:rgb(0%,0%,0%);stroke-opacity:1;stroke-miterlimit:4;" d="M 121.546875 86.464844 L 121.546875 117.867188 "/>
<path style="fill:none;stroke-width:1;stroke-linecap:butt;stroke-linejoin:miter;stroke:rgb(0%,0%,0%);stroke-opacity:1;stroke-miterlimit:4;" d="M 93.683594 84.449219 L 93.683594 140.589844 "/>
<path style="fill-rule:nonzero;fill:rgb(91.372681%,91.372681%,91.372681%);fill-opacity:1;stroke-width:0.5;stroke-linecap:butt;stroke-linejoin:miter;stroke:rgb(0%,0%,0%);stroke-opacity:1;stroke-miterlimit:4;" d="M 107.617188 98.792969 C 100.019531 98.792969 93.859375 92.636719 93.859375 85.039062 C 93.859375 77.441406 100.019531 71.285156 107.617188 71.285156 C 115.214844 71.285156 121.371094 77.441406 121.371094 85.039062 C 121.371094 92.636719 115.214844 98.792969 107.617188 98.792969 Z M 107.617188 98.792969 "/>
<path style="fill-rule:nonzero;fill:rgb(91.372681%,91.372681%,91.372681%);fill-opacity:1;stroke-width:0.5;stroke-linecap:butt;stroke-linejoin:miter;stroke:rgb(0%,0%,0%);stroke-opacity:1;stroke-miterlimit:4;" d="M 90.660156 48.292969 C 81.25 48.292969 73.617188 40.664062 73.617188 31.25 C 73.617188 21.839844 81.25 14.207031 90.660156 14.207031 C 100.074219 14.207031 107.703125 21.839844 107.703125 31.25 C 107.703125 40.664062 100.074219 48.292969 90.660156 48.292969 Z M 90.660156 48.292969 "/>
<path style="fill:none;stroke-width:1;stroke-linecap:butt;stroke-linejoin:miter;stroke:rgb(0%,0%,0%);stroke-opacity:1;stroke-miterlimit:4;" d="M 73.617188 31.25 C 73.617188 24.953125 77.089844 19.171875 82.644531 16.210938 C 88.199219 13.25 94.9375 13.59375 100.164062 17.101562 C 105.390625 20.613281 108.253906 26.71875 107.617188 32.980469 "/>
<path style="fill:none;stroke-width:1;stroke-linecap:butt;stroke-linejoin:miter;stroke:rgb(0%,0%,0%);stroke-opacity:1;stroke-miterlimit:4;" d="M 93.683594 85.214844 C 93.683594 80.070312 96.519531 75.34375 101.0625 72.921875 C 105.605469 70.5 111.109375 70.78125 115.382812 73.648438 C 119.65625 76.519531 122 81.511719 121.476562 86.632812 "/>
<path style="fill:none;stroke-width:1;stroke-linecap:butt;stroke-linejoin:miter;stroke:rgb(0%,0%,0%);stroke-opacity:1;stroke-miterlimit:4;" d="M 73.617188 31.25 L 73.617188 69.511719 "/>
<path style="fill-rule:nonzero;fill:rgb(0%,0%,0%);fill-opacity:1;stroke-width:0.5;stroke-linecap:butt;stroke-linejoin:miter;stroke:rgb(0%,0%,0%);stroke-opacity:1;stroke-miterlimit:4;" d="M 90.660156 32.84375 C 89.78125 32.84375 89.070312 32.128906 89.070312 31.25 C 89.070312 30.371094 89.78125 29.660156 90.660156 29.660156 C 91.539062 29.660156 92.253906 30.371094 92.253906 31.25 C 92.253906 32.128906 91.539062 32.84375 90.660156 32.84375 Z M 90.660156 32.84375 "/>
<path style="fill-rule:nonzero;fill:rgb(0%,0%,0%);fill-opacity:1;stroke-width:0.5;stroke-linecap:butt;stroke-linejoin:miter;stroke:rgb(0%,0%,0%);stroke-opacity:1;stroke-miterlimit:4;" d="M 107.617188 86.632812 C 106.738281 86.632812 106.023438 85.917969 106.023438 85.039062 C 106.023438 84.160156 106.738281 83.449219 107.617188 83.449219 C 108.496094 83.449219 109.207031 84.160156 109.207031 85.039062 C 109.207031 85.917969 108.496094 86.632812 107.617188 86.632812 Z M 107.617188 86.632812 "/>
<path style=" stroke:none;fill-rule:nonzero;fill:rgb(100%,100%,100%);fill-opacity:1;" d="M 65.097656 77.511719 L 82.140625 77.511719 L 82.140625 60.46875 L 65.097656 60.46875 Z M 65.097656 77.511719 "/>
<path style="fill:none;stroke-width:0.5;stroke-linecap:butt;stroke-linejoin:miter;stroke:rgb(0%,0%,0%);stroke-opacity:1;stroke-miterlimit:4;" d="M 65.097656 60.46875 L 82.140625 60.46875 L 82.140625 77.511719 L 65.097656 77.511719 Z M 65.097656 60.46875 "/>
<path style=" stroke:none;fill-rule:nonzero;fill:rgb(0%,0%,0%);fill-opacity:1;" d="M 67.21875 70.027344 C 67.183594 70.207031 67.113281 70.484375 67.113281 70.542969 C 67.113281 70.757812 67.277344 70.863281 67.457031 70.863281 C 67.601562 70.863281 67.816406 70.769531 67.902344 70.53125 C 67.914062 70.507812 68.054688 69.945312 68.128906 69.644531 L 68.390625 68.570312 C 68.460938 68.308594 68.535156 68.042969 68.59375 67.769531 C 68.640625 67.566406 68.738281 67.21875 68.75 67.171875 C 68.929688 66.800781 69.5625 65.710938 70.699219 65.710938 C 71.234375 65.710938 71.34375 66.15625 71.34375 66.550781 C 71.34375 66.847656 71.261719 67.183594 71.164062 67.542969 L 70.828125 68.929688 L 70.589844 69.835938 C 70.542969 70.078125 70.433594 70.484375 70.433594 70.542969 C 70.433594 70.757812 70.601562 70.863281 70.78125 70.863281 C 71.152344 70.863281 71.222656 70.566406 71.320312 70.183594 C 71.488281 69.515625 71.929688 67.769531 72.039062 67.300781 C 72.074219 67.148438 72.707031 65.710938 74.007812 65.710938 C 74.523438 65.710938 74.65625 66.117188 74.65625 66.550781 C 74.65625 67.230469 74.152344 68.59375 73.914062 69.226562 C 73.804688 69.515625 73.757812 69.644531 73.757812 69.886719 C 73.757812 70.445312 74.175781 70.863281 74.738281 70.863281 C 75.863281 70.863281 76.304688 69.121094 76.304688 69.023438 C 76.304688 68.90625 76.199219 68.90625 76.160156 68.90625 C 76.042969 68.90625 76.042969 68.941406 75.980469 69.121094 C 75.804688 69.753906 75.421875 70.601562 74.761719 70.601562 C 74.558594 70.601562 74.476562 70.484375 74.476562 70.207031 C 74.476562 69.910156 74.582031 69.621094 74.691406 69.359375 C 74.917969 68.738281 75.421875 67.410156 75.421875 66.730469 C 75.421875 65.953125 74.941406 65.449219 74.046875 65.449219 C 73.148438 65.449219 72.539062 65.976562 72.097656 66.609375 C 72.085938 66.453125 72.050781 66.046875 71.714844 65.761719 C 71.414062 65.507812 71.03125 65.449219 70.734375 65.449219 C 69.65625 65.449219 69.074219 66.214844 68.867188 66.488281 C 68.808594 65.808594 68.308594 65.449219 67.769531 65.449219 C 67.21875 65.449219 66.992188 65.914062 66.882812 66.132812 C 66.667969 66.550781 66.515625 67.253906 66.515625 67.289062 C 66.515625 67.410156 66.632812 67.410156 66.65625 67.410156 C 66.777344 67.410156 66.789062 67.398438 66.859375 67.136719 C 67.0625 66.285156 67.304688 65.710938 67.734375 65.710938 C 67.925781 65.710938 68.105469 65.808594 68.105469 66.261719 C 68.105469 66.511719 68.066406 66.644531 67.914062 67.265625 Z M 67.21875 70.027344 "/>
<path style=" stroke:none;fill-rule:nonzero;fill:rgb(0%,0%,0%);fill-opacity:1;" d="M 79.46875 67.207031 C 79.46875 66.980469 79.449219 66.972656 79.214844 66.972656 C 78.679688 67.5 77.917969 67.507812 77.574219 67.507812 L 77.574219 67.808594 C 77.777344 67.808594 78.328125 67.808594 78.789062 67.574219 L 78.789062 71.839844 C 78.789062 72.117188 78.789062 72.226562 77.953125 72.226562 L 77.632812 72.226562 L 77.632812 72.527344 C 77.785156 72.519531 78.8125 72.496094 79.125 72.496094 C 79.382812 72.496094 80.4375 72.519531 80.621094 72.527344 L 80.621094 72.226562 L 80.304688 72.226562 C 79.46875 72.226562 79.46875 72.117188 79.46875 71.839844 Z M 79.46875 67.207031 "/>
<path style=" stroke:none;fill-rule:nonzero;fill:rgb(100%,100%,100%);fill-opacity:1;" d="M 85.164062 156.011719 L 102.207031 156.011719 L 102.207031 138.96875 L 85.164062 138.96875 Z M 85.164062 156.011719 "/>
<path style="fill:none;stroke-width:0.5;stroke-linecap:butt;stroke-linejoin:miter;stroke:rgb(0%,0%,0%);stroke-opacity:1;stroke-miterlimit:4;" d="M 85.164062 138.96875 L 102.207031 138.96875 L 102.207031 156.011719 L 85.164062 156.011719 Z M 85.164062 138.96875 "/>
<path style=" stroke:none;fill-rule:nonzero;fill:rgb(100%,100%,100%);fill-opacity:1;" d="M 113.027344 134.910156 L 130.070312 134.910156 L 130.070312 117.867188 L 113.027344 117.867188 Z M 113.027344 134.910156 "/>
<path style="fill:none;stroke-width:0.5;stroke-linecap:butt;stroke-linejoin:miter;stroke:rgb(0%,0%,0%);stroke-opacity:1;stroke-miterlimit:4;" d="M 113.027344 117.867188 L 130.070312 117.867188 L 130.070312 134.910156 L 113.027344 134.910156 Z M 113.027344 117.867188 "/>
<path style="fill:none;stroke-width:0.5;stroke-linecap:butt;stroke-linejoin:miter;stroke:rgb(0%,0%,0%);stroke-opacity:1;stroke-dasharray:1.5,1;stroke-miterlimit:4;" d="M 49.789062 34.25 L 49.789062 57.46875 "/>
<path style="fill:none;stroke-width:0.5;stroke-linecap:butt;stroke-linejoin:miter;stroke:rgb(0%,0%,0%);stroke-opacity:1;stroke-miterlimit:4;" d="M 49.789062 34.25 L 49.789062 31.25 M 52.289062 31.25 L 47.289062 31.25 "/>
<path style="fill:none;stroke-width:0.5;stroke-linecap:butt;stroke-linejoin:miter;stroke:rgb(0%,0%,0%);stroke-opacity:1;stroke-miterlimit:4;" d="M 49.789062 57.46875 L 49.789062 60.46875 M 47.289062 60.46875 L 52.289062 60.46875 "/>
<path style="fill:none;stroke-width:0.5;stroke-linecap:butt;stroke-linejoin:miter;stroke:rgb(0%,0%,0%);stroke-opacity:1;stroke-dasharray:1.5,1;stroke-miterlimit:4;" d="M 73.617188 87.449219 L 73.617188 135.96875 "/>
<path style="fill:none;stroke-width:0.5;stroke-linecap:butt;stroke-linejoin:miter;stroke:rgb(0%,0%,0%);stroke-opacity:1;stroke-miterlimit:4;" d="M 73.617188 87.449219 L 73.617188 84.449219 M 76.117188 84.449219 L 71.117188 84.449219 "/>
<path style="fill:none;stroke-width:0.5;stroke-linecap:butt;stroke-linejoin:miter;stroke:rgb(0%,0%,0%);stroke-opacity:1;stroke-miterlimit:4;" d="M 73.617188 135.96875 L 73.617188 138.96875 M 71.117188 138.96875 L 76.117188 138.96875 "/>
<path style=" stroke:none;fill-rule:nonzero;fill:rgb(0%,0%,0%);fill-opacity:1;" d="M 40.230469 43.992188 C 40.300781 43.683594 40.578125 42.582031 41.414062 42.582031 C 41.472656 42.582031 41.761719 42.582031 42.011719 42.738281 C 41.675781 42.796875 41.4375 43.097656 41.4375 43.382812 C 41.4375 43.574219 41.570312 43.800781 41.890625 43.800781 C 42.15625 43.800781 42.535156 43.585938 42.535156 43.109375 C 42.535156 42.488281 41.832031 42.320312 41.425781 42.320312 C 40.730469 42.320312 40.3125 42.953125 40.167969 43.226562 C 39.871094 42.4375 39.226562 42.320312 38.878906 42.320312 C 37.636719 42.320312 36.953125 43.863281 36.953125 44.160156 C 36.953125 44.28125 37.074219 44.28125 37.097656 44.28125 C 37.191406 44.28125 37.230469 44.257812 37.253906 44.148438 C 37.660156 42.882812 38.449219 42.582031 38.855469 42.582031 C 39.082031 42.582031 39.5 42.691406 39.5 43.382812 C 39.5 43.753906 39.296875 44.554688 38.855469 46.230469 C 38.664062 46.96875 38.246094 47.472656 37.71875 47.472656 C 37.648438 47.472656 37.371094 47.472656 37.121094 47.316406 C 37.421875 47.257812 37.683594 47.007812 37.683594 46.671875 C 37.683594 46.347656 37.421875 46.253906 37.242188 46.253906 C 36.882812 46.253906 36.582031 46.5625 36.582031 46.945312 C 36.582031 47.496094 37.179688 47.734375 37.707031 47.734375 C 38.496094 47.734375 38.925781 46.898438 38.960938 46.828125 C 39.105469 47.269531 39.535156 47.734375 40.253906 47.734375 C 41.484375 47.734375 42.167969 46.191406 42.167969 45.894531 C 42.167969 45.773438 42.058594 45.773438 42.023438 45.773438 C 41.914062 45.773438 41.890625 45.824219 41.867188 45.90625 C 41.472656 47.1875 40.660156 47.472656 40.277344 47.472656 C 39.8125 47.472656 39.621094 47.089844 39.621094 46.683594 C 39.621094 46.421875 39.691406 46.15625 39.824219 45.632812 Z M 40.230469 43.992188 "/>
<path style=" stroke:none;fill-rule:nonzero;fill:rgb(0%,0%,0%);fill-opacity:1;" d="M 45.871094 44.074219 C 45.871094 43.847656 45.855469 43.839844 45.621094 43.839844 C 45.085938 44.367188 44.324219 44.375 43.980469 44.375 L 43.980469 44.679688 C 44.183594 44.679688 44.734375 44.679688 45.195312 44.445312 L 45.195312 48.710938 C 45.195312 48.988281 45.195312 49.097656 44.359375 49.097656 L 44.039062 49.097656 L 44.039062 49.398438 C 44.191406 49.390625 45.21875 49.363281 45.53125 49.363281 C 45.789062 49.363281 46.84375 49.390625 47.027344 49.398438 L 47.027344 49.097656 L 46.710938 49.097656 C 45.871094 49.097656 45.871094 48.988281 45.871094 48.710938 Z M 45.871094 44.074219 "/>
<path style=" stroke:none;fill-rule:nonzero;fill:rgb(0%,0%,0%);fill-opacity:1;" d="M 80.445312 3.332031 C 80.554688 2.898438 80.589844 2.78125 81.535156 2.78125 C 81.820312 2.78125 81.917969 2.78125 81.917969 2.554688 C 81.917969 2.410156 81.785156 2.410156 81.738281 2.410156 C 81.390625 2.410156 80.503906 2.445312 80.160156 2.445312 C 79.800781 2.445312 78.925781 2.410156 78.570312 2.410156 C 78.484375 2.410156 78.328125 2.410156 78.328125 2.648438 C 78.328125 2.78125 78.4375 2.78125 78.664062 2.78125 C 79.167969 2.78125 79.488281 2.78125 79.488281 3.007812 C 79.488281 3.066406 79.488281 3.089844 79.464844 3.199219 L 77.851562 9.644531 C 77.742188 10.085938 77.707031 10.203125 76.761719 10.203125 C 76.488281 10.203125 76.382812 10.203125 76.382812 10.445312 C 76.382812 10.574219 76.523438 10.574219 76.558594 10.574219 C 76.90625 10.574219 77.78125 10.539062 78.125 10.539062 C 78.484375 10.539062 79.371094 10.574219 79.726562 10.574219 C 79.824219 10.574219 79.96875 10.574219 79.96875 10.347656 C 79.96875 10.203125 79.871094 10.203125 79.609375 10.203125 C 79.394531 10.203125 79.332031 10.203125 79.09375 10.179688 C 78.84375 10.15625 78.796875 10.109375 78.796875 9.976562 C 78.796875 9.882812 78.820312 9.785156 78.84375 9.703125 Z M 80.445312 3.332031 "/>
<path style=" stroke:none;fill-rule:nonzero;fill:rgb(0%,0%,0%);fill-opacity:1;" d="M 84.03125 7.046875 C 84.03125 6.820312 84.015625 6.8125 83.78125 6.8125 C 83.246094 7.339844 82.484375 7.347656 82.140625 7.347656 L 82.140625 7.648438 C 82.34375 7.648438 82.894531 7.648438 83.355469 7.414062 L 83.355469 11.683594 C 83.355469 11.960938 83.355469 12.066406 82.519531 12.066406 L 82.199219 12.066406 L 82.199219 12.371094 C 82.351562 12.359375 83.378906 12.335938 83.691406 12.335938 C 83.949219 12.335938 85.003906 12.359375 85.1875 12.371094 L 85.1875 12.066406 L 84.871094 12.066406 C 84.03125 12.066406 84.03125 11.960938 84.03125 11.683594 Z M 84.03125 7.046875 "/>
<path style=" stroke:none;fill-rule:nonzero;fill:rgb(0%,0%,0%);fill-opacity:1;" d="M 89.019531 10.5625 C 89.019531 9.773438 88.71875 9.308594 88.253906 9.308594 C 87.859375 9.308594 87.621094 9.605469 87.621094 9.941406 C 87.621094 10.265625 87.859375 10.574219 88.253906 10.574219 C 88.398438 10.574219 88.550781 10.527344 88.671875 10.417969 C 88.707031 10.394531 88.71875 10.382812 88.730469 10.382812 C 88.742188 10.382812 88.757812 10.394531 88.757812 10.5625 C 88.757812 11.449219 88.335938 12.164062 87.941406 12.558594 C 87.8125 12.691406 87.8125 12.714844 87.8125 12.75 C 87.8125 12.835938 87.871094 12.882812 87.929688 12.882812 C 88.0625 12.882812 89.019531 11.960938 89.019531 10.5625 Z M 89.019531 10.5625 "/>
<path style=" stroke:none;fill-rule:nonzero;fill:rgb(0%,0%,0%);fill-opacity:1;" d="M 96.394531 3.234375 C 96.464844 2.949219 96.5 2.828125 96.726562 2.792969 C 96.835938 2.78125 97.21875 2.78125 97.457031 2.78125 C 98.304688 2.78125 99.632812 2.78125 99.632812 3.964844 C 99.632812 4.371094 99.441406 5.195312 98.976562 5.660156 C 98.664062 5.972656 98.03125 6.355469 96.953125 6.355469 L 95.617188 6.355469 Z M 98.113281 6.511719 C 99.320312 6.246094 100.746094 5.410156 100.746094 4.203125 C 100.746094 3.175781 99.667969 2.410156 98.101562 2.410156 L 94.695312 2.410156 C 94.457031 2.410156 94.347656 2.410156 94.347656 2.648438 C 94.347656 2.78125 94.457031 2.78125 94.683594 2.78125 C 94.707031 2.78125 94.933594 2.78125 95.136719 2.804688 C 95.351562 2.828125 95.460938 2.839844 95.460938 2.996094 C 95.460938 3.042969 95.449219 3.078125 95.414062 3.222656 L 93.8125 9.644531 C 93.691406 10.109375 93.667969 10.203125 92.722656 10.203125 C 92.507812 10.203125 92.398438 10.203125 92.398438 10.445312 C 92.398438 10.574219 92.542969 10.574219 92.566406 10.574219 C 92.902344 10.574219 93.738281 10.539062 94.074219 10.539062 C 94.410156 10.539062 95.257812 10.574219 95.59375 10.574219 C 95.6875 10.574219 95.832031 10.574219 95.832031 10.335938 C 95.832031 10.203125 95.722656 10.203125 95.496094 10.203125 C 95.054688 10.203125 94.71875 10.203125 94.71875 9.988281 C 94.71875 9.917969 94.742188 9.859375 94.753906 9.785156 L 95.542969 6.617188 L 96.964844 6.617188 C 98.054688 6.617188 98.269531 7.289062 98.269531 7.707031 C 98.269531 7.886719 98.175781 8.257812 98.101562 8.53125 C 98.019531 8.867188 97.910156 9.308594 97.910156 9.546875 C 97.910156 10.839844 99.347656 10.839844 99.5 10.839844 C 100.515625 10.839844 100.9375 9.628906 100.9375 9.464844 C 100.9375 9.320312 100.804688 9.320312 100.792969 9.320312 C 100.683594 9.320312 100.660156 9.402344 100.636719 9.488281 C 100.339844 10.371094 99.824219 10.574219 99.550781 10.574219 C 99.15625 10.574219 99.070312 10.3125 99.070312 9.847656 C 99.070312 9.476562 99.140625 8.867188 99.191406 8.484375 C 99.214844 8.316406 99.238281 8.089844 99.238281 7.921875 C 99.238281 7 98.4375 6.628906 98.113281 6.511719 Z M 98.113281 6.511719 "/>
<path style=" stroke:none;fill-rule:nonzero;fill:rgb(0%,0%,0%);fill-opacity:1;" d="M 103.785156 7.046875 C 103.785156 6.820312 103.769531 6.8125 103.535156 6.8125 C 103 7.339844 102.238281 7.347656 101.894531 7.347656 L 101.894531 7.648438 C 102.097656 7.648438 102.648438 7.648438 103.109375 7.414062 L 103.109375 11.683594 C 103.109375 11.960938 103.109375 12.066406 102.273438 12.066406 L 101.953125 12.066406 L 101.953125 12.371094 C 102.105469 12.359375 103.132812 12.335938 103.445312 12.335938 C 103.703125 12.335938 104.757812 12.359375 104.941406 12.371094 L 104.941406 12.066406 L 104.625 12.066406 C 103.785156 12.066406 103.785156 11.960938 103.785156 11.683594 Z M 103.785156 7.046875 "/>
<path style=" stroke:none;fill-rule:nonzero;fill:rgb(0%,0%,0%);fill-opacity:1;" d="M 118.507812 62.976562 C 118.617188 62.546875 118.652344 62.425781 119.597656 62.425781 C 119.882812 62.425781 119.980469 62.425781 119.980469 62.199219 C 119.980469 62.054688 119.847656 62.054688 119.800781 62.054688 C 119.453125 62.054688 118.570312 62.089844 118.222656 62.089844 C 117.863281 62.089844 116.992188 62.054688 116.632812 62.054688 C 116.546875 62.054688 116.394531 62.054688 116.394531 62.292969 C 116.394531 62.425781 116.5 62.425781 116.726562 62.425781 C 117.230469 62.425781 117.550781 62.425781 117.550781 62.652344 C 117.550781 62.710938 117.550781 62.738281 117.527344 62.84375 L 115.914062 69.289062 C 115.808594 69.730469 115.769531 69.851562 114.828125 69.851562 C 114.550781 69.851562 114.445312 69.851562 114.445312 70.089844 C 114.445312 70.21875 114.585938 70.21875 114.625 70.21875 C 114.96875 70.21875 115.84375 70.183594 116.191406 70.183594 C 116.546875 70.183594 117.433594 70.21875 117.792969 70.21875 C 117.886719 70.21875 118.03125 70.21875 118.03125 69.992188 C 118.03125 69.851562 117.933594 69.851562 117.671875 69.851562 C 117.457031 69.851562 117.398438 69.851562 117.15625 69.824219 C 116.90625 69.800781 116.859375 69.753906 116.859375 69.621094 C 116.859375 69.527344 116.882812 69.429688 116.90625 69.347656 Z M 118.507812 62.976562 "/>
<path style=" stroke:none;fill-rule:nonzero;fill:rgb(0%,0%,0%);fill-opacity:1;" d="M 123.519531 70.492188 L 123.234375 70.492188 C 123.210938 70.675781 123.125 71.167969 123.015625 71.253906 C 122.949219 71.304688 122.304688 71.304688 122.1875 71.304688 L 120.648438 71.304688 C 121.527344 70.523438 121.820312 70.289062 122.320312 69.898438 C 122.941406 69.402344 123.519531 68.882812 123.519531 68.089844 C 123.519531 67.078125 122.632812 66.457031 121.558594 66.457031 C 120.523438 66.457031 119.820312 67.1875 119.820312 67.957031 C 119.820312 68.382812 120.179688 68.425781 120.261719 68.425781 C 120.464844 68.425781 120.707031 68.28125 120.707031 67.980469 C 120.707031 67.832031 120.648438 67.539062 120.214844 67.539062 C 120.472656 66.941406 121.042969 66.757812 121.433594 66.757812 C 122.273438 66.757812 122.707031 67.410156 122.707031 68.089844 C 122.707031 68.816406 122.1875 69.394531 121.921875 69.695312 L 119.902344 71.6875 C 119.820312 71.761719 119.820312 71.78125 119.820312 72.015625 L 123.269531 72.015625 Z M 123.519531 70.492188 "/>
<path style=" stroke:none;fill-rule:nonzero;fill:rgb(0%,0%,0%);fill-opacity:1;" d="M 127.082031 70.207031 C 127.082031 69.417969 126.785156 68.953125 126.316406 68.953125 C 125.921875 68.953125 125.683594 69.253906 125.683594 69.585938 C 125.683594 69.910156 125.921875 70.21875 126.316406 70.21875 C 126.460938 70.21875 126.617188 70.171875 126.734375 70.066406 C 126.769531 70.039062 126.785156 70.027344 126.796875 70.027344 C 126.808594 70.027344 126.820312 70.039062 126.820312 70.207031 C 126.820312 71.09375 126.402344 71.808594 126.007812 72.203125 C 125.875 72.335938 125.875 72.359375 125.875 72.394531 C 125.875 72.480469 125.933594 72.527344 125.996094 72.527344 C 126.125 72.527344 127.082031 71.605469 127.082031 70.207031 Z M 127.082031 70.207031 "/>
<path style=" stroke:none;fill-rule:nonzero;fill:rgb(0%,0%,0%);fill-opacity:1;" d="M 134.457031 62.878906 C 134.527344 62.59375 134.5625 62.472656 134.789062 62.4375 C 134.898438 62.425781 135.28125 62.425781 135.519531 62.425781 C 136.367188 62.425781 137.695312 62.425781 137.695312 63.609375 C 137.695312 64.015625 137.503906 64.839844 137.039062 65.308594 C 136.726562 65.617188 136.09375 66 135.019531 66 L 133.679688 66 Z M 136.175781 66.15625 C 137.386719 65.894531 138.808594 65.054688 138.808594 63.847656 C 138.808594 62.820312 137.730469 62.054688 136.164062 62.054688 L 132.757812 62.054688 C 132.519531 62.054688 132.410156 62.054688 132.410156 62.292969 C 132.410156 62.425781 132.519531 62.425781 132.746094 62.425781 C 132.769531 62.425781 132.996094 62.425781 133.199219 62.449219 C 133.417969 62.472656 133.523438 62.484375 133.523438 62.640625 C 133.523438 62.6875 133.511719 62.722656 133.476562 62.867188 L 131.875 69.289062 C 131.753906 69.753906 131.730469 69.851562 130.785156 69.851562 C 130.570312 69.851562 130.464844 69.851562 130.464844 70.089844 C 130.464844 70.21875 130.605469 70.21875 130.628906 70.21875 C 130.964844 70.21875 131.800781 70.183594 132.136719 70.183594 C 132.472656 70.183594 133.320312 70.21875 133.65625 70.21875 C 133.75 70.21875 133.894531 70.21875 133.894531 69.980469 C 133.894531 69.851562 133.785156 69.851562 133.558594 69.851562 C 133.117188 69.851562 132.78125 69.851562 132.78125 69.632812 C 132.78125 69.5625 132.804688 69.503906 132.816406 69.429688 L 133.605469 66.261719 L 135.03125 66.261719 C 136.117188 66.261719 136.332031 66.933594 136.332031 67.351562 C 136.332031 67.53125 136.238281 67.902344 136.164062 68.175781 C 136.082031 68.511719 135.972656 68.953125 135.972656 69.191406 C 135.972656 70.484375 137.410156 70.484375 137.566406 70.484375 C 138.582031 70.484375 139 69.277344 139 69.109375 C 139 68.964844 138.867188 68.964844 138.855469 68.964844 C 138.75 68.964844 138.722656 69.046875 138.699219 69.132812 C 138.402344 70.015625 137.886719 70.21875 137.613281 70.21875 C 137.21875 70.21875 137.132812 69.957031 137.132812 69.492188 C 137.132812 69.121094 137.207031 68.511719 137.253906 68.128906 C 137.277344 67.960938 137.300781 67.734375 137.300781 67.566406 C 137.300781 66.644531 136.5 66.273438 136.175781 66.15625 Z M 136.175781 66.15625 "/>
<path style=" stroke:none;fill-rule:nonzero;fill:rgb(0%,0%,0%);fill-opacity:1;" d="M 143.273438 70.492188 L 142.988281 70.492188 C 142.964844 70.675781 142.878906 71.167969 142.769531 71.253906 C 142.703125 71.304688 142.058594 71.304688 141.941406 71.304688 L 140.402344 71.304688 C 141.28125 70.523438 141.574219 70.289062 142.078125 69.898438 C 142.695312 69.402344 143.273438 68.882812 143.273438 68.089844 C 143.273438 67.078125 142.386719 66.457031 141.316406 66.457031 C 140.277344 66.457031 139.574219 67.1875 139.574219 67.957031 C 139.574219 68.382812 139.933594 68.425781 140.019531 68.425781 C 140.21875 68.425781 140.460938 68.28125 140.460938 67.980469 C 140.460938 67.832031 140.402344 67.539062 139.96875 67.539062 C 140.226562 66.941406 140.796875 66.757812 141.1875 66.757812 C 142.027344 66.757812 142.460938 67.410156 142.460938 68.089844 C 142.460938 68.816406 141.941406 69.394531 141.675781 69.695312 L 139.65625 71.6875 C 139.574219 71.761719 139.574219 71.78125 139.574219 72.015625 L 143.023438 72.015625 Z M 143.273438 70.492188 "/>
<path style=" stroke:none;fill-rule:nonzero;fill:rgb(0%,0%,0%);fill-opacity:1;" d="M 87.164062 148.445312 C 87.128906 148.625 87.054688 148.902344 87.054688 148.960938 C 87.054688 149.175781 87.222656 149.285156 87.402344 149.285156 C 87.546875 149.285156 87.761719 149.1875 87.84375 148.949219 C 87.855469 148.925781 88 148.363281 88.070312 148.0625 L 88.335938 146.988281 C 88.40625 146.726562 88.480469 146.460938 88.539062 146.1875 C 88.585938 145.984375 88.683594 145.636719 88.695312 145.589844 C 88.875 145.21875 89.507812 144.132812 90.640625 144.132812 C 91.179688 144.132812 91.289062 144.574219 91.289062 144.96875 C 91.289062 145.265625 91.203125 145.601562 91.109375 145.960938 L 90.773438 147.347656 L 90.535156 148.253906 C 90.488281 148.496094 90.378906 148.902344 90.378906 148.960938 C 90.378906 149.175781 90.546875 149.285156 90.726562 149.285156 C 91.097656 149.285156 91.167969 148.984375 91.265625 148.601562 C 91.429688 147.933594 91.875 146.1875 91.980469 145.722656 C 92.015625 145.566406 92.652344 144.132812 93.953125 144.132812 C 94.46875 144.132812 94.597656 144.539062 94.597656 144.96875 C 94.597656 145.648438 94.097656 147.011719 93.859375 147.644531 C 93.75 147.933594 93.703125 148.0625 93.703125 148.304688 C 93.703125 148.863281 94.121094 149.285156 94.683594 149.285156 C 95.808594 149.285156 96.25 147.539062 96.25 147.441406 C 96.25 147.324219 96.140625 147.324219 96.105469 147.324219 C 95.988281 147.324219 95.988281 147.359375 95.925781 147.539062 C 95.746094 148.171875 95.363281 149.019531 94.707031 149.019531 C 94.503906 149.019531 94.421875 148.902344 94.421875 148.625 C 94.421875 148.328125 94.527344 148.039062 94.636719 147.777344 C 94.863281 147.15625 95.363281 145.828125 95.363281 145.148438 C 95.363281 144.371094 94.886719 143.867188 93.988281 143.867188 C 93.09375 143.867188 92.484375 144.394531 92.042969 145.027344 C 92.027344 144.871094 91.992188 144.464844 91.660156 144.179688 C 91.359375 143.925781 90.976562 143.867188 90.679688 143.867188 C 89.601562 143.867188 89.015625 144.632812 88.8125 144.90625 C 88.753906 144.226562 88.25 143.867188 87.714844 143.867188 C 87.164062 143.867188 86.9375 144.335938 86.828125 144.550781 C 86.613281 144.96875 86.457031 145.671875 86.457031 145.710938 C 86.457031 145.828125 86.578125 145.828125 86.601562 145.828125 C 86.722656 145.828125 86.734375 145.816406 86.804688 145.554688 C 87.007812 144.703125 87.246094 144.132812 87.675781 144.132812 C 87.867188 144.132812 88.046875 144.226562 88.046875 144.679688 C 88.046875 144.933594 88.011719 145.0625 87.855469 145.683594 Z M 87.164062 148.445312 "/>
<path style=" stroke:none;fill-rule:nonzero;fill:rgb(0%,0%,0%);fill-opacity:1;" d="M 98.890625 148.152344 C 99.546875 148.152344 100.015625 148.601562 100.015625 149.5 C 100.015625 150.535156 99.410156 150.84375 98.925781 150.84375 C 98.589844 150.84375 97.855469 150.753906 97.503906 150.261719 C 97.898438 150.242188 97.988281 149.96875 97.988281 149.792969 C 97.988281 149.523438 97.789062 149.332031 97.527344 149.332031 C 97.292969 149.332031 97.058594 149.472656 97.058594 149.816406 C 97.058594 150.601562 97.929688 151.113281 98.941406 151.113281 C 100.105469 151.113281 100.910156 150.335938 100.910156 149.5 C 100.910156 148.84375 100.375 148.191406 99.453125 148 C 100.332031 147.683594 100.648438 147.054688 100.648438 146.542969 C 100.648438 145.882812 99.886719 145.390625 98.960938 145.390625 C 98.03125 145.390625 97.320312 145.839844 97.320312 146.511719 C 97.320312 146.796875 97.503906 146.953125 97.753906 146.953125 C 98.015625 146.953125 98.179688 146.761719 98.179688 146.527344 C 98.179688 146.285156 98.015625 146.109375 97.753906 146.09375 C 98.046875 145.722656 98.625 145.632812 98.933594 145.632812 C 99.3125 145.632812 99.839844 145.816406 99.839844 146.542969 C 99.839844 146.894531 99.722656 147.28125 99.503906 147.539062 C 99.226562 147.859375 98.992188 147.875 98.574219 147.898438 C 98.367188 147.917969 98.347656 147.917969 98.308594 147.925781 C 98.289062 147.925781 98.222656 147.941406 98.222656 148.035156 C 98.222656 148.152344 98.296875 148.152344 98.441406 148.152344 Z M 98.890625 148.152344 "/>
<path style=" stroke:none;fill-rule:nonzero;fill:rgb(0%,0%,0%);fill-opacity:1;" d="M 114.964844 128.714844 C 114.929688 128.894531 114.859375 129.167969 114.859375 129.230469 C 114.859375 129.445312 115.027344 129.550781 115.203125 129.550781 C 115.347656 129.550781 115.5625 129.457031 115.648438 129.21875 C 115.660156 129.195312 115.800781 128.632812 115.875 128.332031 L 116.136719 127.257812 C 116.210938 126.992188 116.28125 126.730469 116.339844 126.457031 C 116.386719 126.253906 116.484375 125.90625 116.496094 125.859375 C 116.675781 125.488281 117.308594 124.398438 118.445312 124.398438 C 118.984375 124.398438 119.089844 124.839844 119.089844 125.234375 C 119.089844 125.535156 119.007812 125.871094 118.910156 126.230469 L 118.578125 127.617188 L 118.335938 128.523438 C 118.289062 128.761719 118.183594 129.167969 118.183594 129.230469 C 118.183594 129.445312 118.347656 129.550781 118.527344 129.550781 C 118.898438 129.550781 118.96875 129.253906 119.066406 128.871094 C 119.234375 128.199219 119.675781 126.457031 119.785156 125.988281 C 119.820312 125.835938 120.453125 124.398438 121.757812 124.398438 C 122.269531 124.398438 122.402344 124.804688 122.402344 125.234375 C 122.402344 125.917969 121.898438 127.28125 121.660156 127.914062 C 121.554688 128.199219 121.503906 128.332031 121.503906 128.570312 C 121.503906 129.132812 121.921875 129.550781 122.484375 129.550781 C 123.609375 129.550781 124.050781 127.804688 124.050781 127.710938 C 124.050781 127.589844 123.945312 127.589844 123.90625 127.589844 C 123.789062 127.589844 123.789062 127.628906 123.730469 127.804688 C 123.550781 128.441406 123.167969 129.289062 122.507812 129.289062 C 122.304688 129.289062 122.222656 129.167969 122.222656 128.894531 C 122.222656 128.59375 122.332031 128.308594 122.4375 128.046875 C 122.664062 127.425781 123.167969 126.097656 123.167969 125.414062 C 123.167969 124.636719 122.6875 124.136719 121.792969 124.136719 C 120.894531 124.136719 120.285156 124.664062 119.84375 125.296875 C 119.832031 125.140625 119.796875 124.734375 119.460938 124.445312 C 119.160156 124.195312 118.78125 124.136719 118.480469 124.136719 C 117.40625 124.136719 116.820312 124.902344 116.617188 125.175781 C 116.554688 124.496094 116.054688 124.136719 115.515625 124.136719 C 114.964844 124.136719 114.738281 124.601562 114.632812 124.816406 C 114.414062 125.234375 114.261719 125.941406 114.261719 125.976562 C 114.261719 126.097656 114.378906 126.097656 114.402344 126.097656 C 114.523438 126.097656 114.535156 126.085938 114.605469 125.820312 C 114.808594 124.972656 115.050781 124.398438 115.480469 124.398438 C 115.671875 124.398438 115.851562 124.496094 115.851562 124.949219 C 115.851562 125.199219 115.816406 125.332031 115.660156 125.953125 Z M 114.964844 128.714844 "/>
<path style=" stroke:none;fill-rule:nonzero;fill:rgb(0%,0%,0%);fill-opacity:1;" d="M 128.835938 129.84375 L 128.835938 129.539062 L 127.90625 129.539062 L 127.90625 125.808594 C 127.90625 125.632812 127.90625 125.574219 127.722656 125.574219 C 127.625 125.574219 127.589844 125.574219 127.507812 125.691406 L 124.738281 129.539062 L 124.738281 129.84375 L 127.195312 129.84375 L 127.195312 130.527344 C 127.195312 130.8125 127.195312 130.914062 126.519531 130.914062 L 126.292969 130.914062 L 126.292969 131.214844 C 126.710938 131.199219 127.246094 131.179688 127.546875 131.179688 C 127.859375 131.179688 128.394531 131.199219 128.8125 131.214844 L 128.8125 130.914062 L 128.585938 130.914062 C 127.90625 130.914062 127.90625 130.8125 127.90625 130.527344 L 127.90625 129.84375 Z M 127.253906 126.476562 L 127.253906 129.539062 L 125.046875 129.539062 Z M 127.253906 126.476562 "/>
<path style=" stroke:none;fill-rule:nonzero;fill:rgb(0%,0%,0%);fill-opacity:1;" d="M 100.589844 93.042969 C 100.554688 93.222656 100.480469 93.5 100.480469 93.558594 C 100.480469 93.773438 100.648438 93.882812 100.828125 93.882812 C 100.972656 93.882812 101.1875 93.785156 101.269531 93.546875 C 101.285156 93.523438 101.425781 92.960938 101.5 92.660156 L 101.761719 91.585938 C 101.832031 91.324219 101.90625 91.058594 101.964844 90.785156 C 102.011719 90.582031 102.109375 90.234375 102.121094 90.1875 C 102.300781 89.816406 102.933594 88.730469 104.070312 88.730469 C 104.605469 88.730469 104.714844 89.171875 104.714844 89.566406 C 104.714844 89.863281 104.628906 90.199219 104.535156 90.558594 L 104.199219 91.945312 L 103.960938 92.851562 C 103.914062 93.09375 103.804688 93.5 103.804688 93.558594 C 103.804688 93.773438 103.972656 93.882812 104.152344 93.882812 C 104.523438 93.882812 104.59375 93.582031 104.691406 93.199219 C 104.859375 92.53125 105.300781 90.785156 105.40625 90.320312 C 105.445312 90.164062 106.078125 88.730469 107.378906 88.730469 C 107.894531 88.730469 108.027344 89.136719 108.027344 89.566406 C 108.027344 90.246094 107.523438 91.609375 107.285156 92.242188 C 107.175781 92.53125 107.128906 92.660156 107.128906 92.902344 C 107.128906 93.464844 107.546875 93.882812 108.109375 93.882812 C 109.234375 93.882812 109.675781 92.136719 109.675781 92.039062 C 109.675781 91.921875 109.566406 91.921875 109.53125 91.921875 C 109.414062 91.921875 109.414062 91.957031 109.351562 92.136719 C 109.171875 92.769531 108.792969 93.617188 108.132812 93.617188 C 107.929688 93.617188 107.847656 93.5 107.847656 93.222656 C 107.847656 92.925781 107.953125 92.636719 108.0625 92.375 C 108.289062 91.753906 108.792969 90.425781 108.792969 89.746094 C 108.792969 88.96875 108.3125 88.464844 107.417969 88.464844 C 106.519531 88.464844 105.910156 88.992188 105.46875 89.625 C 105.457031 89.46875 105.417969 89.0625 105.085938 88.777344 C 104.785156 88.527344 104.402344 88.464844 104.105469 88.464844 C 103.027344 88.464844 102.441406 89.230469 102.238281 89.507812 C 102.179688 88.824219 101.679688 88.464844 101.140625 88.464844 C 100.589844 88.464844 100.363281 88.933594 100.253906 89.148438 C 100.039062 89.566406 99.882812 90.269531 99.882812 90.308594 C 99.882812 90.425781 100.003906 90.425781 100.027344 90.425781 C 100.148438 90.425781 100.160156 90.414062 100.230469 90.152344 C 100.433594 89.300781 100.671875 88.730469 101.105469 88.730469 C 101.296875 88.730469 101.472656 88.824219 101.472656 89.277344 C 101.472656 89.53125 101.4375 89.660156 101.285156 90.28125 Z M 100.589844 93.042969 "/>
<path style=" stroke:none;fill-rule:nonzero;fill:rgb(0%,0%,0%);fill-opacity:1;" d="M 114.261719 94.019531 L 113.976562 94.019531 C 113.949219 94.203125 113.867188 94.699219 113.757812 94.78125 C 113.691406 94.832031 113.046875 94.832031 112.929688 94.832031 L 111.390625 94.832031 C 112.269531 94.054688 112.5625 93.820312 113.0625 93.425781 C 113.683594 92.933594 114.261719 92.414062 114.261719 91.617188 C 114.261719 90.605469 113.375 89.988281 112.300781 89.988281 C 111.265625 89.988281 110.5625 90.714844 110.5625 91.484375 C 110.5625 91.910156 110.921875 91.953125 111.003906 91.953125 C 111.207031 91.953125 111.449219 91.8125 111.449219 91.511719 C 111.449219 91.359375 111.390625 91.066406 110.953125 91.066406 C 111.214844 90.472656 111.785156 90.289062 112.175781 90.289062 C 113.011719 90.289062 113.449219 90.941406 113.449219 91.617188 C 113.449219 92.347656 112.929688 92.925781 112.660156 93.226562 L 110.644531 95.21875 C 110.5625 95.292969 110.5625 95.308594 110.5625 95.542969 L 114.007812 95.542969 Z M 114.261719 94.019531 "/>
<path style=" stroke:none;fill-rule:nonzero;fill:rgb(0%,0%,0%);fill-opacity:1;" d="M 61.59375 108.140625 C 61.664062 107.832031 61.941406 106.730469 62.777344 106.730469 C 62.835938 106.730469 63.125 106.730469 63.375 106.886719 C 63.039062 106.945312 62.800781 107.246094 62.800781 107.53125 C 62.800781 107.722656 62.933594 107.949219 63.253906 107.949219 C 63.519531 107.949219 63.902344 107.734375 63.902344 107.257812 C 63.902344 106.632812 63.195312 106.46875 62.789062 106.46875 C 62.09375 106.46875 61.675781 107.101562 61.535156 107.375 C 61.234375 106.585938 60.589844 106.46875 60.242188 106.46875 C 59 106.46875 58.316406 108.007812 58.316406 108.308594 C 58.316406 108.429688 58.4375 108.429688 58.460938 108.429688 C 58.558594 108.429688 58.59375 108.402344 58.617188 108.296875 C 59.023438 107.027344 59.8125 106.730469 60.21875 106.730469 C 60.445312 106.730469 60.863281 106.839844 60.863281 107.53125 C 60.863281 107.902344 60.660156 108.703125 60.21875 110.375 C 60.027344 111.117188 59.609375 111.621094 59.082031 111.621094 C 59.011719 111.621094 58.734375 111.621094 58.484375 111.464844 C 58.785156 111.40625 59.046875 111.152344 59.046875 110.820312 C 59.046875 110.496094 58.785156 110.402344 58.605469 110.402344 C 58.246094 110.402344 57.945312 110.710938 57.945312 111.09375 C 57.945312 111.644531 58.542969 111.882812 59.070312 111.882812 C 59.859375 111.882812 60.289062 111.046875 60.324219 110.972656 C 60.46875 111.417969 60.898438 111.882812 61.617188 111.882812 C 62.847656 111.882812 63.53125 110.339844 63.53125 110.042969 C 63.53125 109.921875 63.421875 109.921875 63.386719 109.921875 C 63.277344 109.921875 63.253906 109.96875 63.230469 110.054688 C 62.835938 111.332031 62.023438 111.621094 61.640625 111.621094 C 61.175781 111.621094 60.984375 111.238281 60.984375 110.832031 C 60.984375 110.566406 61.054688 110.304688 61.1875 109.777344 Z M 61.59375 108.140625 "/>
<path style=" stroke:none;fill-rule:nonzero;fill:rgb(0%,0%,0%);fill-opacity:1;" d="M 66.71875 110.75 C 67.371094 110.75 67.839844 111.203125 67.839844 112.097656 C 67.839844 113.136719 67.238281 113.445312 66.75 113.445312 C 66.417969 113.445312 65.679688 113.351562 65.328125 112.859375 C 65.722656 112.84375 65.8125 112.566406 65.8125 112.390625 C 65.8125 112.121094 65.613281 111.929688 65.355469 111.929688 C 65.121094 111.929688 64.886719 112.074219 64.886719 112.414062 C 64.886719 113.203125 65.753906 113.714844 66.769531 113.714844 C 67.929688 113.714844 68.734375 112.933594 68.734375 112.097656 C 68.734375 111.445312 68.199219 110.792969 67.277344 110.601562 C 68.15625 110.28125 68.476562 109.652344 68.476562 109.144531 C 68.476562 108.484375 67.714844 107.988281 66.785156 107.988281 C 65.855469 107.988281 65.144531 108.441406 65.144531 109.109375 C 65.144531 109.394531 65.328125 109.554688 65.578125 109.554688 C 65.839844 109.554688 66.007812 109.359375 66.007812 109.125 C 66.007812 108.882812 65.839844 108.707031 65.578125 108.691406 C 65.871094 108.324219 66.449219 108.230469 66.757812 108.230469 C 67.136719 108.230469 67.664062 108.414062 67.664062 109.144531 C 67.664062 109.496094 67.546875 109.878906 67.328125 110.140625 C 67.050781 110.457031 66.816406 110.472656 66.398438 110.5 C 66.191406 110.515625 66.175781 110.515625 66.132812 110.523438 C 66.117188 110.523438 66.046875 110.542969 66.046875 110.632812 C 66.046875 110.75 66.125 110.75 66.265625 110.75 Z M 66.71875 110.75 "/>
</g>
</svg>
