<?xml version="1.0" encoding="UTF-8"?>
<svg xmlns="http://www.w3.org/2000/svg" xmlns:xlink="http://www.w3.org/1999/xlink" width="170.0787pt" height="85.03937pt" viewBox="0 0 170.0787 85.03937" version="1.1">
<defs>
<clipPath id="clip1">
  <path d="M 0 0 L 170.078125 0 L 170.078125 85.039062 L 0 85.039062 Z M 0 0 "/>
</clipPath>
<clipPath id="clip3">
  <path d="M 0 0 L 170.078125 0 L 170.078125 85.039062 L 0 85.039062 Z M 0 0 "/>
</clipPath>
<clipPath id="clip2">
  <rect x="0" y="0" width="171" height="86"/>
</clipPath>
<g id="surface5" clip-path="url(#clip2)">
<g clip-path="url(#clip3)" clip-rule="nonzero">
<path style=" stroke:none;fill-rule:nonzero;fill:rgb(100%,100%,100%);fill-opacity:1;" d="M 0 0 L 170.078125 0 L 170.078125 85.039062 L 0 85.039062 Z M 0 0 "/>
</g>
</g>
</defs>
<g id="surface1">
<g clip-path="url(#clip1)" clip-rule="nonzero">
<use xlink:href="#surface5"/>
</g>
<path style="fill-rule:nonzero;fill:rgb(91.372681%,91.372681%,91.372681%);fill-opacity:1;stroke-width:0.5;stroke-linecap:butt;stroke-linejoin:miter;stroke:rgb(0%,0%,0%);stroke-opacity:1;stroke-miterlimit:4;" d="M 90.660156 48.292969 C 81.25 48.292969 73.617188 40.664062 73.617188 31.25 C 73.617188 21.839844 81.25 14.207031 90.660156 14.207031 C 100.074219 14.207031 107.703125 21.839844 107.703125 31.25 C 107.703125 40.664062 100.074219 48.292969 90.660156 48.292969 Z M 90.660156 48.292969 "/>
<path style="fill:none;stroke-width:1;stroke-linecap:butt;stroke-linejoin:miter;stroke:rgb(0%,0%,0%);stroke-opacity:1;stroke-miterlimit:4;" d="M 73.617188 31.25 C 73.617188 24.953125 77.089844 19.171875 82.644531 16.210938 C 88.199219 13.25 94.9375 13.59375 100.164062 17.101562 C 105.390625 20.613281 108.253906 26.71875 107.617188 32.980469 "/>
<path style="fill:none;stroke-width:1;stroke-linecap:butt;stroke-linejoin:miter;stroke:rgb(0%,0%,0%);stroke-opacity:1;stroke-miterlimit:4;" d="M 73.617188 31.25 L 73.617188 69.511719 "/>
<path style="fill:none;stroke-width:1;stroke-linecap:butt;stroke-linejoin:miter;stroke:rgb(0%,0%,0%);stroke-opacity:1;stroke-miterlimit:4;" d="M 107.617188 32.980469 L 107.617188 77.511719 "/>
<path style="fill-rule:nonzero;fill:rgb(0%,0%,0%);fill-opacity:1;stroke-width:0.5;stroke-linecap:butt;stroke-linejoin:miter;stroke:rgb(0%,0%,0%);stroke-opacity:1;stroke-miterlimit:4;" d="M 90.660156 32.84375 C 89.78125 32.84375 89.070312 32.128906 89.070312 31.25 C 89.070312 30.371094 89.78125 29.660156 90.660156 29.660156 C 91.539062 29.660156 92.253906 30.371094 92.253906 31.25 C 92.253906 32.128906 91.539062 32.84375 90.660156 32.84375 Z M 90.660156 32.84375 "/>
<path style=" stroke:none;fill-rule:nonzero;fill:rgb(100%,100%,100%);fill-opacity:1;" d="M 65.097656 77.511719 L 82.140625 77.511719 L 82.140625 60.46875 L 65.097656 60.46875 Z M 65.097656 77.511719 "/>
<path style="fill:none;stroke-width:0.5;stroke-linecap:butt;stroke-linejoin:miter;stroke:rgb(0%,0%,0%);stroke-opacity:1;stroke-miterlimit:4;" d="M 65.097656 60.46875 L 82.140625 60.46875 L 82.140625 77.511719 L 65.097656 77.511719 Z M 65.097656 60.46875 "/>
<path style=" stroke:none;fill-rule:nonzero;fill:rgb(100%,100%,100%);fill-opacity:1;" d="M 99.09375 82.492188 L 116.136719 82.492188 L 116.136719 65.449219 L 99.09375 65.449219 Z M 99.09375 82.492188 "/>
<path style="fill:none;stroke-width:0.5;stroke-linecap:butt;stroke-linejoin:miter;stroke:rgb(0%,0%,0%);stroke-opacity:1;stroke-miterlimit:4;" d="M 99.09375 65.449219 L 116.136719 65.449219 L 116.136719 82.492188 L 99.09375 82.492188 Z M 99.09375 65.449219 "/>
<path style=" stroke:none;fill-rule:nonzero;fill:rgb(0%,0%,0%);fill-opacity:1;" d="M 85.6875 3.46875 C 85.792969 3.039062 85.832031 2.917969 86.773438 2.917969 C 87.0625 2.917969 87.15625 2.917969 87.15625 2.691406 C 87.15625 2.546875 87.027344 2.546875 86.976562 2.546875 C 86.632812 2.546875 85.746094 2.582031 85.398438 2.582031 C 85.042969 2.582031 84.167969 2.546875 83.808594 2.546875 C 83.726562 2.546875 83.570312 2.546875 83.570312 2.785156 C 83.570312 2.917969 83.679688 2.917969 83.90625 2.917969 C 84.40625 2.917969 84.730469 2.917969 84.730469 3.144531 C 84.730469 3.203125 84.730469 3.226562 84.707031 3.335938 L 83.09375 9.78125 C 82.984375 10.222656 82.949219 10.339844 82.003906 10.339844 C 81.730469 10.339844 81.621094 10.339844 81.621094 10.582031 C 81.621094 10.710938 81.765625 10.710938 81.800781 10.710938 C 82.148438 10.710938 83.019531 10.675781 83.367188 10.675781 C 83.726562 10.675781 84.609375 10.710938 84.96875 10.710938 C 85.066406 10.710938 85.207031 10.710938 85.207031 10.484375 C 85.207031 10.339844 85.113281 10.339844 84.851562 10.339844 C 84.632812 10.339844 84.574219 10.339844 84.335938 10.316406 C 84.085938 10.292969 84.035156 10.246094 84.035156 10.113281 C 84.035156 10.019531 84.0625 9.921875 84.085938 9.839844 Z M 85.6875 3.46875 "/>
<path style=" stroke:none;fill-rule:nonzero;fill:rgb(0%,0%,0%);fill-opacity:1;" d="M 89.832031 10.699219 C 89.832031 9.910156 89.53125 9.445312 89.066406 9.445312 C 88.671875 9.445312 88.429688 9.742188 88.429688 10.078125 C 88.429688 10.402344 88.671875 10.710938 89.066406 10.710938 C 89.207031 10.710938 89.363281 10.664062 89.484375 10.558594 C 89.519531 10.53125 89.53125 10.519531 89.542969 10.519531 C 89.554688 10.519531 89.566406 10.53125 89.566406 10.699219 C 89.566406 11.585938 89.148438 12.300781 88.753906 12.695312 C 88.621094 12.828125 88.621094 12.851562 88.621094 12.886719 C 88.621094 12.972656 88.683594 13.019531 88.742188 13.019531 C 88.875 13.019531 89.832031 12.097656 89.832031 10.699219 Z M 89.832031 10.699219 "/>
<path style=" stroke:none;fill-rule:nonzero;fill:rgb(0%,0%,0%);fill-opacity:1;" d="M 97.203125 3.371094 C 97.273438 3.085938 97.308594 2.964844 97.535156 2.929688 C 97.644531 2.917969 98.027344 2.917969 98.265625 2.917969 C 99.113281 2.917969 100.441406 2.917969 100.441406 4.101562 C 100.441406 4.507812 100.25 5.332031 99.785156 5.796875 C 99.472656 6.109375 98.839844 6.492188 97.765625 6.492188 L 96.425781 6.492188 Z M 98.921875 6.648438 C 100.128906 6.382812 101.554688 5.546875 101.554688 4.339844 C 101.554688 3.3125 100.476562 2.546875 98.910156 2.546875 L 95.503906 2.546875 C 95.265625 2.546875 95.15625 2.546875 95.15625 2.785156 C 95.15625 2.917969 95.265625 2.917969 95.492188 2.917969 C 95.515625 2.917969 95.742188 2.917969 95.945312 2.941406 C 96.160156 2.964844 96.269531 2.976562 96.269531 3.132812 C 96.269531 3.179688 96.257812 3.214844 96.222656 3.359375 L 94.621094 9.78125 C 94.5 10.246094 94.476562 10.339844 93.53125 10.339844 C 93.316406 10.339844 93.207031 10.339844 93.207031 10.582031 C 93.207031 10.710938 93.351562 10.710938 93.375 10.710938 C 93.710938 10.710938 94.546875 10.675781 94.882812 10.675781 C 95.21875 10.675781 96.066406 10.710938 96.402344 10.710938 C 96.496094 10.710938 96.640625 10.710938 96.640625 10.472656 C 96.640625 10.339844 96.53125 10.339844 96.304688 10.339844 C 95.863281 10.339844 95.527344 10.339844 95.527344 10.125 C 95.527344 10.054688 95.550781 9.996094 95.5625 9.921875 L 96.351562 6.753906 L 97.777344 6.753906 C 98.863281 6.753906 99.078125 7.425781 99.078125 7.84375 C 99.078125 8.023438 98.984375 8.394531 98.910156 8.667969 C 98.828125 9.003906 98.71875 9.445312 98.71875 9.683594 C 98.71875 10.976562 100.15625 10.976562 100.308594 10.976562 C 101.328125 10.976562 101.746094 9.769531 101.746094 9.601562 C 101.746094 9.457031 101.613281 9.457031 101.601562 9.457031 C 101.492188 9.457031 101.46875 9.539062 101.445312 9.625 C 101.148438 10.507812 100.632812 10.710938 100.359375 10.710938 C 99.964844 10.710938 99.878906 10.449219 99.878906 9.984375 C 99.878906 9.613281 99.953125 9.003906 100 8.621094 C 100.023438 8.453125 100.046875 8.226562 100.046875 8.058594 C 100.046875 7.136719 99.246094 6.765625 98.921875 6.648438 Z M 98.921875 6.648438 "/>
<path style=" stroke:none;fill-rule:nonzero;fill:rgb(0%,0%,0%);fill-opacity:1;" d="M 67.21875 70.027344 C 67.183594 70.207031 67.113281 70.484375 67.113281 70.542969 C 67.113281 70.757812 67.277344 70.863281 67.457031 70.863281 C 67.601562 70.863281 67.816406 70.769531 67.902344 70.53125 C 67.914062 70.507812 68.054688 69.945312 68.128906 69.644531 L 68.390625 68.570312 C 68.460938 68.308594 68.535156 68.042969 68.59375 67.769531 C 68.640625 67.566406 68.738281 67.21875 68.75 67.171875 C 68.929688 66.800781 69.5625 65.710938 70.699219 65.710938 C 71.234375 65.710938 71.34375 66.15625 71.34375 66.550781 C 71.34375 66.847656 71.261719 67.183594 71.164062 67.542969 L 70.828125 68.929688 L 70.589844 69.835938 C 70.542969 70.074219 70.433594 70.484375 70.433594 70.542969 C 70.433594 70.757812 70.601562 70.863281 70.78125 70.863281 C 71.152344 70.863281 71.222656 70.566406 71.320312 70.183594 C 71.488281 69.515625 71.929688 67.769531 72.039062 67.300781 C 72.074219 67.148438 72.707031 65.710938 74.007812 65.710938 C 74.523438 65.710938 74.65625 66.117188 74.65625 66.550781 C 74.65625 67.230469 74.152344 68.59375 73.914062 69.226562 C 73.804688 69.515625 73.757812 69.644531 73.757812 69.886719 C 73.757812 70.445312 74.175781 70.863281 74.738281 70.863281 C 75.863281 70.863281 76.304688 69.121094 76.304688 69.023438 C 76.304688 68.90625 76.199219 68.90625 76.160156 68.90625 C 76.042969 68.90625 76.042969 68.941406 75.980469 69.121094 C 75.804688 69.753906 75.421875 70.601562 74.761719 70.601562 C 74.558594 70.601562 74.476562 70.484375 74.476562 70.207031 C 74.476562 69.910156 74.582031 69.621094 74.691406 69.359375 C 74.917969 68.738281 75.421875 67.410156 75.421875 66.730469 C 75.421875 65.953125 74.941406 65.449219 74.046875 65.449219 C 73.148438 65.449219 72.539062 65.976562 72.097656 66.609375 C 72.085938 66.453125 72.050781 66.046875 71.714844 65.761719 C 71.414062 65.507812 71.03125 65.449219 70.734375 65.449219 C 69.65625 65.449219 69.074219 66.214844 68.867188 66.488281 C 68.808594 65.808594 68.308594 65.449219 67.769531 65.449219 C 67.21875 65.449219 66.992188 65.914062 66.882812 66.132812 C 66.667969 66.550781 66.515625 67.253906 66.515625 67.289062 C 66.515625 67.410156 66.632812 67.410156 66.65625 67.410156 C 66.777344 67.410156 66.789062 67.398438 66.859375 67.136719 C 67.0625 66.285156 67.304688 65.710938 67.734375 65.710938 C 67.925781 65.710938 68.105469 65.808594 68.105469 66.261719 C 68.105469 66.511719 68.066406 66.644531 67.914062 67.265625 Z M 67.21875 70.027344 "/>
<path style=" stroke:none;fill-rule:nonzero;fill:rgb(0%,0%,0%);fill-opacity:1;" d="M 79.46875 67.207031 C 79.46875 66.980469 79.449219 66.972656 79.214844 66.972656 C 78.679688 67.5 77.917969 67.507812 77.574219 67.507812 L 77.574219 67.808594 C 77.777344 67.808594 78.328125 67.808594 78.789062 67.574219 L 78.789062 71.839844 C 78.789062 72.117188 78.789062 72.226562 77.953125 72.226562 L 77.632812 72.226562 L 77.632812 72.527344 C 77.785156 72.519531 78.8125 72.496094 79.125 72.496094 C 79.382812 72.496094 80.4375 72.519531 80.621094 72.527344 L 80.621094 72.226562 L 80.304688 72.226562 C 79.46875 72.226562 79.46875 72.117188 79.46875 71.839844 Z M 79.46875 67.207031 "/>
<path style=" stroke:none;fill-rule:nonzero;fill:rgb(0%,0%,0%);fill-opacity:1;" d="M 101.132812 75.011719 C 101.097656 75.191406 101.027344 75.464844 101.027344 75.523438 C 101.027344 75.738281 101.195312 75.847656 101.371094 75.847656 C 101.515625 75.847656 101.730469 75.75 101.816406 75.511719 C 101.828125 75.488281 101.96875 74.925781 102.042969 74.628906 L 102.304688 73.550781 C 102.375 73.289062 102.449219 73.027344 102.507812 72.75 C 102.554688 72.546875 102.652344 72.203125 102.664062 72.152344 C 102.84375 71.78125 103.476562 70.695312 104.613281 70.695312 C 105.152344 70.695312 105.257812 71.136719 105.257812 71.53125 C 105.257812 71.832031 105.175781 72.164062 105.078125 72.523438 L 104.742188 73.910156 L 104.503906 74.820312 C 104.457031 75.058594 104.347656 75.464844 104.347656 75.523438 C 104.347656 75.738281 104.515625 75.847656 104.695312 75.847656 C 105.066406 75.847656 105.136719 75.546875 105.234375 75.167969 C 105.402344 74.496094 105.84375 72.75 105.953125 72.285156 C 105.988281 72.128906 106.621094 70.695312 107.925781 70.695312 C 108.4375 70.695312 108.570312 71.101562 108.570312 71.53125 C 108.570312 72.214844 108.066406 73.574219 107.828125 74.210938 C 107.722656 74.496094 107.671875 74.628906 107.671875 74.867188 C 107.671875 75.429688 108.089844 75.847656 108.652344 75.847656 C 109.777344 75.847656 110.21875 74.101562 110.21875 74.007812 C 110.21875 73.886719 110.113281 73.886719 110.074219 73.886719 C 109.957031 73.886719 109.957031 73.921875 109.898438 74.101562 C 109.71875 74.734375 109.335938 75.585938 108.675781 75.585938 C 108.472656 75.585938 108.390625 75.464844 108.390625 75.191406 C 108.390625 74.890625 108.496094 74.605469 108.605469 74.339844 C 108.832031 73.71875 109.335938 72.390625 109.335938 71.710938 C 109.335938 70.933594 108.855469 70.433594 107.960938 70.433594 C 107.0625 70.433594 106.453125 70.957031 106.011719 71.589844 C 106 71.4375 105.964844 71.03125 105.628906 70.742188 C 105.328125 70.492188 104.949219 70.433594 104.648438 70.433594 C 103.574219 70.433594 102.988281 71.195312 102.785156 71.472656 C 102.722656 70.789062 102.222656 70.433594 101.683594 70.433594 C 101.132812 70.433594 100.90625 70.898438 100.796875 71.113281 C 100.582031 71.53125 100.429688 72.238281 100.429688 72.273438 C 100.429688 72.390625 100.546875 72.390625 100.570312 72.390625 C 100.691406 72.390625 100.703125 72.378906 100.773438 72.117188 C 100.976562 71.269531 101.21875 70.695312 101.648438 70.695312 C 101.839844 70.695312 102.019531 70.789062 102.019531 71.246094 C 102.019531 71.496094 101.980469 71.628906 101.828125 72.25 Z M 101.132812 75.011719 "/>
<path style=" stroke:none;fill-rule:nonzero;fill:rgb(0%,0%,0%);fill-opacity:1;" d="M 114.804688 75.988281 L 114.519531 75.988281 C 114.496094 76.171875 114.410156 76.664062 114.300781 76.75 C 114.234375 76.796875 113.589844 76.796875 113.472656 76.796875 L 111.933594 76.796875 C 112.8125 76.019531 113.105469 75.785156 113.605469 75.394531 C 114.226562 74.898438 114.804688 74.378906 114.804688 73.585938 C 114.804688 72.574219 113.917969 71.953125 112.847656 71.953125 C 111.808594 71.953125 111.105469 72.679688 111.105469 73.453125 C 111.105469 73.878906 111.464844 73.917969 111.546875 73.917969 C 111.75 73.917969 111.992188 73.777344 111.992188 73.476562 C 111.992188 73.324219 111.933594 73.03125 111.5 73.03125 C 111.757812 72.4375 112.328125 72.253906 112.71875 72.253906 C 113.558594 72.253906 113.992188 72.90625 113.992188 73.585938 C 113.992188 74.3125 113.472656 74.890625 113.207031 75.191406 L 111.1875 77.183594 C 111.105469 77.257812 111.105469 77.277344 111.105469 77.511719 L 114.554688 77.511719 Z M 114.804688 75.988281 "/>
<path style="fill:none;stroke-width:0.5;stroke-linecap:butt;stroke-linejoin:miter;stroke:rgb(0%,0%,0%);stroke-opacity:1;stroke-dasharray:1.5,1;stroke-miterlimit:4;" d="M 49.789062 34.25 L 49.789062 57.46875 "/>
<path style="fill:none;stroke-width:0.5;stroke-linecap:butt;stroke-linejoin:miter;stroke:rgb(0%,0%,0%);stroke-opacity:1;stroke-miterlimit:4;" d="M 49.789062 34.25 L 49.789062 31.25 M 52.289062 31.25 L 47.289062 31.25 "/>
<path style="fill:none;stroke-width:0.5;stroke-linecap:butt;stroke-linejoin:miter;stroke:rgb(0%,0%,0%);stroke-opacity:1;stroke-miterlimit:4;" d="M 49.789062 57.46875 L 49.789062 60.46875 M 47.289062 60.46875 L 52.289062 60.46875 "/>
<path style=" stroke:none;fill-rule:nonzero;fill:rgb(0%,0%,0%);fill-opacity:1;" d="M 40.230469 43.992188 C 40.300781 43.683594 40.578125 42.582031 41.414062 42.582031 C 41.472656 42.582031 41.761719 42.582031 42.011719 42.738281 C 41.675781 42.796875 41.4375 43.097656 41.4375 43.382812 C 41.4375 43.574219 41.570312 43.800781 41.890625 43.800781 C 42.15625 43.800781 42.535156 43.585938 42.535156 43.109375 C 42.535156 42.488281 41.832031 42.320312 41.425781 42.320312 C 40.730469 42.320312 40.3125 42.953125 40.167969 43.226562 C 39.871094 42.4375 39.226562 42.320312 38.878906 42.320312 C 37.636719 42.320312 36.953125 43.863281 36.953125 44.160156 C 36.953125 44.28125 37.074219 44.28125 37.097656 44.28125 C 37.191406 44.28125 37.230469 44.257812 37.253906 44.148438 C 37.660156 42.882812 38.449219 42.582031 38.855469 42.582031 C 39.082031 42.582031 39.5 42.691406 39.5 43.382812 C 39.5 43.753906 39.296875 44.554688 38.855469 46.230469 C 38.664062 46.96875 38.246094 47.472656 37.71875 47.472656 C 37.648438 47.472656 37.371094 47.472656 37.121094 47.316406 C 37.421875 47.257812 37.683594 47.007812 37.683594 46.671875 C 37.683594 46.347656 37.421875 46.253906 37.242188 46.253906 C 36.882812 46.253906 36.582031 46.5625 36.582031 46.945312 C 36.582031 47.496094 37.179688 47.734375 37.707031 47.734375 C 38.496094 47.734375 38.925781 46.898438 38.960938 46.828125 C 39.105469 47.269531 39.535156 47.734375 40.253906 47.734375 C 41.484375 47.734375 42.167969 46.191406 42.167969 45.894531 C 42.167969 45.773438 42.058594 45.773438 42.023438 45.773438 C 41.914062 45.773438 41.890625 45.824219 41.867188 45.90625 C 41.472656 47.183594 40.660156 47.472656 40.277344 47.472656 C 39.8125 47.472656 39.621094 47.089844 39.621094 46.683594 C 39.621094 46.421875 39.691406 46.15625 39.824219 45.632812 Z M 40.230469 43.992188 "/>
<path style=" stroke:none;fill-rule:nonzero;fill:rgb(0%,0%,0%);fill-opacity:1;" d="M 45.871094 44.074219 C 45.871094 43.847656 45.855469 43.839844 45.621094 43.839844 C 45.085938 44.367188 44.324219 44.375 43.980469 44.375 L 43.980469 44.679688 C 44.183594 44.679688 44.734375 44.679688 45.195312 44.445312 L 45.195312 48.710938 C 45.195312 48.988281 45.195312 49.097656 44.359375 49.097656 L 44.039062 49.097656 L 44.039062 49.398438 C 44.191406 49.390625 45.21875 49.363281 45.53125 49.363281 C 45.789062 49.363281 46.84375 49.390625 47.027344 49.398438 L 47.027344 49.097656 L 46.710938 49.097656 C 45.871094 49.097656 45.871094 48.988281 45.871094 48.710938 Z M 45.871094 44.074219 "/>
</g>
</svg>
