<?xml version="1.0" encoding="UTF-8"?>
<svg xmlns="http://www.w3.org/2000/svg" xmlns:xlink="http://www.w3.org/1999/xlink" width="243.7795pt" height="172.9134pt" viewBox="0 0 243.7795 172.9134" version="1.1">
<defs>
<clipPath id="clip2">
  <path d="M 0 0 L 243.78125 0 L 243.78125 172.914062 L 0 172.914062 Z M 0 0 "/>
</clipPath>
<clipPath id="clip1">
  <rect x="0" y="0" width="244" height="173"/>
</clipPath>
<g id="surface5" clip-path="url(#clip1)">
<g clip-path="url(#clip2)" clip-rule="nonzero">
<path style=" stroke:none;fill-rule:nonzero;fill:rgb(100%,100%,100%);fill-opacity:1;" d="M 0 0 L 243.78125 0 L 243.78125 172.914062 L 0 172.914062 Z M 0 0 "/>
</g>
</g>
</defs>
<g id="surface1">
<use xlink:href="#surface5"/>
<path style="fill:none;stroke-width:1;stroke-linecap:butt;stroke-linejoin:miter;stroke:rgb(0%,0%,0%);stroke-opacity:1;stroke-miterlimit:4;" d="M 29.992188 25.824219 L 29.992188 167.445312 "/>
<path style="fill-rule:nonzero;fill:rgb(0%,0%,0%);fill-opacity:1;stroke-width:1;stroke-linecap:butt;stroke-linejoin:miter;stroke:rgb(0%,0%,0%);stroke-opacity:1;stroke-miterlimit:4;" d="M 32.992188 25.824219 L 29.992188 17.824219 L 26.992188 25.824219 Z M 32.992188 25.824219 "/>
<path style="fill:none;stroke-width:1;stroke-linecap:butt;stroke-linejoin:miter;stroke:rgb(0%,0%,0%);stroke-opacity:1;stroke-miterlimit:4;" d="M 24.230469 53.863281 L 187.253906 53.863281 "/>
<path style="fill-rule:nonzero;fill:rgb(0%,0%,0%);fill-opacity:1;stroke-width:1;stroke-linecap:butt;stroke-linejoin:miter;stroke:rgb(0%,0%,0%);stroke-opacity:1;stroke-miterlimit:4;" d="M 187.253906 56.863281 L 195.253906 53.863281 L 187.253906 50.863281 Z M 187.253906 56.863281 "/>
<path style=" stroke:none;fill-rule:nonzero;fill:rgb(0%,0%,0%);fill-opacity:1;" d="M 199.898438 59.117188 C 199.972656 58.808594 200.246094 57.707031 201.082031 57.707031 C 201.144531 57.707031 201.429688 57.707031 201.679688 57.863281 C 201.347656 57.921875 201.105469 58.222656 201.105469 58.507812 C 201.105469 58.699219 201.238281 58.925781 201.5625 58.925781 C 201.824219 58.925781 202.207031 58.710938 202.207031 58.234375 C 202.207031 57.613281 201.5 57.445312 201.09375 57.445312 C 200.402344 57.445312 199.984375 58.078125 199.839844 58.351562 C 199.542969 57.566406 198.894531 57.445312 198.550781 57.445312 C 197.304688 57.445312 196.625 58.988281 196.625 59.285156 C 196.625 59.40625 196.742188 59.40625 196.769531 59.40625 C 196.863281 59.40625 196.898438 59.382812 196.921875 59.273438 C 197.328125 58.007812 198.117188 57.707031 198.523438 57.707031 C 198.753906 57.707031 199.171875 57.816406 199.171875 58.507812 C 199.171875 58.878906 198.96875 59.679688 198.523438 61.355469 C 198.332031 62.09375 197.914062 62.597656 197.390625 62.597656 C 197.316406 62.597656 197.042969 62.597656 196.792969 62.441406 C 197.089844 62.382812 197.351562 62.132812 197.351562 61.796875 C 197.351562 61.472656 197.089844 61.378906 196.910156 61.378906 C 196.550781 61.378906 196.253906 61.6875 196.253906 62.070312 C 196.253906 62.621094 196.851562 62.859375 197.378906 62.859375 C 198.167969 62.859375 198.597656 62.023438 198.632812 61.953125 C 198.777344 62.394531 199.207031 62.859375 199.921875 62.859375 C 201.15625 62.859375 201.835938 61.320312 201.835938 61.019531 C 201.835938 60.898438 201.730469 60.898438 201.691406 60.898438 C 201.585938 60.898438 201.5625 60.949219 201.539062 61.03125 C 201.144531 62.3125 200.332031 62.597656 199.949219 62.597656 C 199.480469 62.597656 199.289062 62.214844 199.289062 61.808594 C 199.289062 61.546875 199.363281 61.28125 199.492188 60.757812 Z M 199.898438 59.117188 "/>
<path style=" stroke:none;fill-rule:nonzero;fill:rgb(0%,0%,0%);fill-opacity:1;" d="M 25.414062 13.085938 C 25.460938 12.921875 25.460938 12.898438 25.460938 12.8125 C 25.460938 12.597656 25.296875 12.488281 25.117188 12.488281 C 24.996094 12.488281 24.804688 12.5625 24.699219 12.742188 C 24.671875 12.800781 24.578125 13.171875 24.53125 13.386719 C 24.445312 13.699219 24.363281 14.019531 24.292969 14.34375 L 23.753906 16.496094 C 23.707031 16.675781 23.191406 17.511719 22.402344 17.511719 C 21.792969 17.511719 21.660156 16.984375 21.660156 16.542969 C 21.660156 15.992188 21.863281 15.25 22.269531 14.199219 C 22.460938 13.710938 22.511719 13.578125 22.511719 13.339844 C 22.511719 12.800781 22.128906 12.359375 21.53125 12.359375 C 20.394531 12.359375 19.953125 14.09375 19.953125 14.199219 C 19.953125 14.320312 20.070312 14.320312 20.09375 14.320312 C 20.214844 14.320312 20.226562 14.296875 20.285156 14.105469 C 20.609375 12.980469 21.085938 12.621094 21.492188 12.621094 C 21.589844 12.621094 21.792969 12.621094 21.792969 13.003906 C 21.792969 13.304688 21.671875 13.613281 21.589844 13.839844 C 21.109375 15.109375 20.894531 15.789062 20.894531 16.351562 C 20.894531 17.414062 21.648438 17.773438 22.355469 17.773438 C 22.820312 17.773438 23.226562 17.570312 23.5625 17.234375 C 23.40625 17.859375 23.261719 18.445312 22.785156 19.078125 C 22.472656 19.484375 22.019531 19.832031 21.46875 19.832031 C 21.300781 19.832031 20.765625 19.792969 20.5625 19.328125 C 20.753906 19.328125 20.90625 19.328125 21.074219 19.183594 C 21.195312 19.078125 21.3125 18.921875 21.3125 18.695312 C 21.3125 18.324219 20.992188 18.277344 20.871094 18.277344 C 20.597656 18.277344 20.203125 18.46875 20.203125 19.054688 C 20.203125 19.652344 20.730469 20.09375 21.46875 20.09375 C 22.703125 20.09375 23.933594 19.003906 24.265625 17.65625 Z M 25.414062 13.085938 "/>
<path style=" stroke:none;fill-rule:nonzero;fill:rgb(0%,0%,0%);fill-opacity:1;" d="M 33.175781 48.460938 C 32.695312 49.261719 32.230469 49.429688 31.703125 49.464844 C 31.5625 49.476562 31.453125 49.476562 31.453125 49.703125 C 31.453125 49.773438 31.511719 49.835938 31.609375 49.835938 C 31.929688 49.835938 32.300781 49.796875 32.636719 49.796875 C 33.03125 49.796875 33.449219 49.835938 33.832031 49.835938 C 33.902344 49.835938 34.058594 49.835938 34.058594 49.605469 C 34.058594 49.476562 33.953125 49.464844 33.867188 49.464844 C 33.59375 49.441406 33.304688 49.34375 33.304688 49.046875 C 33.304688 48.902344 33.378906 48.769531 33.472656 48.601562 L 34.382812 47.074219 L 37.382812 47.074219 C 37.40625 47.324219 37.574219 48.949219 37.574219 49.070312 C 37.574219 49.429688 36.953125 49.464844 36.714844 49.464844 C 36.546875 49.464844 36.425781 49.464844 36.425781 49.703125 C 36.425781 49.835938 36.570312 49.835938 36.59375 49.835938 C 37.085938 49.835938 37.597656 49.796875 38.089844 49.796875 C 38.386719 49.796875 39.140625 49.835938 39.4375 49.835938 C 39.511719 49.835938 39.65625 49.835938 39.65625 49.59375 C 39.65625 49.464844 39.535156 49.464844 39.378906 49.464844 C 38.636719 49.464844 38.636719 49.378906 38.601562 49.035156 L 37.875 41.5625 C 37.847656 41.324219 37.847656 41.273438 37.644531 41.273438 C 37.453125 41.273438 37.40625 41.359375 37.335938 41.476562 Z M 34.609375 46.703125 L 36.964844 42.757812 L 37.347656 46.703125 Z M 34.609375 46.703125 "/>
<path style=" stroke:none;fill-rule:nonzero;fill:rgb(0%,0%,0%);fill-opacity:1;" d="M 157.890625 128.453125 C 157.769531 128.921875 157.746094 129.015625 156.800781 129.015625 C 156.597656 129.015625 156.480469 129.015625 156.480469 129.257812 C 156.480469 129.386719 156.585938 129.386719 156.800781 129.386719 L 161.070312 129.386719 C 162.960938 129.386719 164.371094 127.976562 164.371094 126.804688 C 164.371094 125.945312 163.675781 125.25 162.515625 125.121094 C 163.761719 124.890625 165.015625 124.007812 165.015625 122.871094 C 165.015625 121.988281 164.226562 121.222656 162.792969 121.222656 L 158.773438 121.222656 C 158.546875 121.222656 158.429688 121.222656 158.429688 121.460938 C 158.429688 121.59375 158.535156 121.59375 158.761719 121.59375 C 158.785156 121.59375 159.015625 121.59375 159.21875 121.617188 C 159.433594 121.640625 159.539062 121.652344 159.539062 121.808594 C 159.539062 121.855469 159.527344 121.890625 159.492188 122.035156 Z M 159.695312 125.011719 L 160.4375 122.046875 C 160.542969 121.628906 160.566406 121.59375 161.082031 121.59375 L 162.625 121.59375 C 163.675781 121.59375 163.925781 122.296875 163.925781 122.824219 C 163.925781 123.875 162.898438 125.011719 161.441406 125.011719 Z M 159.15625 129.015625 C 158.988281 129.015625 158.964844 129.015625 158.894531 129.003906 C 158.773438 128.992188 158.738281 128.980469 158.738281 128.886719 C 158.738281 128.847656 158.738281 128.824219 158.800781 128.609375 L 159.625 125.273438 L 161.882812 125.273438 C 163.03125 125.273438 163.257812 126.160156 163.257812 126.671875 C 163.257812 127.855469 162.195312 129.015625 160.785156 129.015625 Z M 159.15625 129.015625 "/>
<path style=" stroke:none;fill-rule:nonzero;fill:rgb(0%,0%,0%);fill-opacity:1;" d="M 154.152344 123.566406 C 152.941406 123.566406 151.964844 122.585938 151.964844 121.378906 C 151.964844 120.167969 152.941406 119.1875 154.152344 119.1875 C 155.359375 119.1875 156.339844 120.167969 156.339844 121.378906 C 156.339844 122.585938 155.359375 123.566406 154.152344 123.566406 Z M 154.152344 123.566406 "/>
<path style=" stroke:none;fill-rule:nonzero;fill:rgb(0%,0%,0%);fill-opacity:1;" d="M 29.992188 56.363281 C 28.609375 56.363281 27.492188 55.242188 27.492188 53.863281 C 27.492188 52.480469 28.609375 51.359375 29.992188 51.359375 C 31.375 51.359375 32.496094 52.480469 32.496094 53.863281 C 32.496094 55.242188 31.375 56.363281 29.992188 56.363281 Z M 29.992188 56.363281 "/>
<path style="fill:none;stroke-width:1;stroke-linecap:round;stroke-linejoin:round;stroke:rgb(11.764526%,13.725281%,100%);stroke-opacity:1;stroke-miterlimit:4;" d="M 30.46875 53.929688 C 36.890625 74.113281 81.042969 163.558594 112.542969 159.058594 C 141.816406 154.875 135.351562 135.363281 152.011719 122.035156 "/>
<path style="fill:none;stroke-width:1;stroke-linecap:round;stroke-linejoin:round;stroke:rgb(100%,90.588379%,0%);stroke-opacity:1;stroke-miterlimit:4;" d="M 30.46875 53.929688 C 69.585938 57.445312 122.140625 128.929688 152.011719 122.035156 "/>
<path style="fill:none;stroke-width:1;stroke-linecap:round;stroke-linejoin:round;stroke:rgb(0.392151%,100%,36.862183%);stroke-opacity:1;stroke-miterlimit:4;" d="M 30.46875 53.929688 C 60.570312 68.351562 89.015625 108.121094 122.324219 116.449219 C 132.238281 118.925781 139.140625 113.25 153.757812 121.222656 "/>
<path style="fill:none;stroke-width:1;stroke-linecap:round;stroke-linejoin:round;stroke:rgb(100%,0%,0%);stroke-opacity:1;stroke-miterlimit:4;" d="M 29.769531 54.28125 C 30.640625 118.859375 55.023438 83.644531 60.503906 90.953125 C 65.199219 97.214844 61.734375 122.167969 70.980469 124.480469 C 81.113281 127.015625 82.597656 97.632812 93.683594 103.175781 C 101.117188 106.890625 99.292969 121.179688 105.558594 125.878906 C 116.960938 134.429688 121.304688 121.59375 130.707031 119.242188 C 142.421875 116.3125 140.738281 137.257812 152.359375 122.734375 "/>
</g>
</svg>
