<?xml version="1.0" encoding="UTF-8"?>
<svg xmlns="http://www.w3.org/2000/svg" xmlns:xlink="http://www.w3.org/1999/xlink" width="243.7795pt" height="218.2677pt" viewBox="0 0 243.7795 218.2677" version="1.1">
<defs>
<clipPath id="clip2">
  <path d="M 0 0 L 243.78125 0 L 243.78125 218.269531 L 0 218.269531 Z M 0 0 "/>
</clipPath>
<clipPath id="clip1">
  <rect x="0" y="0" width="244" height="219"/>
</clipPath>
<g id="surface5" clip-path="url(#clip1)">
<g clip-path="url(#clip2)" clip-rule="nonzero">
<path style=" stroke:none;fill-rule:nonzero;fill:rgb(100%,100%,100%);fill-opacity:1;" d="M 0 0 L 243.78125 0 L 243.78125 218.269531 L 0 218.269531 Z M 0 0 "/>
</g>
</g>
</defs>
<g id="surface1">
<use xlink:href="#surface5"/>
<path style="fill:none;stroke-width:1;stroke-linecap:butt;stroke-linejoin:miter;stroke:rgb(0%,0%,0%);stroke-opacity:1;stroke-dasharray:3,2;stroke-miterlimit:4;" d="M 123.449219 172.632812 L 123.449219 185.53125 "/>
<path style="fill:none;stroke-width:1;stroke-linecap:butt;stroke-linejoin:miter;stroke:rgb(0%,0%,0%);stroke-opacity:1;stroke-miterlimit:4;" d="M 35.097656 26.835938 L 35.097656 199.1875 "/>
<path style="fill-rule:nonzero;fill:rgb(0%,0%,0%);fill-opacity:1;stroke-width:1;stroke-linecap:butt;stroke-linejoin:miter;stroke:rgb(0%,0%,0%);stroke-opacity:1;stroke-miterlimit:4;" d="M 38.097656 26.835938 L 35.097656 18.835938 L 32.097656 26.835938 Z M 38.097656 26.835938 "/>
<path style="fill:none;stroke-width:1;stroke-linecap:butt;stroke-linejoin:miter;stroke:rgb(0%,0%,0%);stroke-opacity:1;stroke-miterlimit:4;" d="M 25.992188 185.53125 L 216.558594 185.53125 "/>
<path style="fill-rule:nonzero;fill:rgb(0%,0%,0%);fill-opacity:1;stroke-width:1;stroke-linecap:butt;stroke-linejoin:miter;stroke:rgb(0%,0%,0%);stroke-opacity:1;stroke-miterlimit:4;" d="M 216.558594 188.53125 L 224.558594 185.53125 L 216.558594 182.53125 Z M 216.558594 188.53125 "/>
<path style="fill:none;stroke-width:1;stroke-linecap:round;stroke-linejoin:round;stroke:rgb(100%,0%,0%);stroke-opacity:1;stroke-miterlimit:4;" d="M 41.167969 68.550781 C 38.574219 189.808594 194.445312 222.078125 194.445312 73.105469 "/>
<path style=" stroke:none;fill-rule:nonzero;fill:rgb(0%,0%,0%);fill-opacity:1;" d="M 220.515625 193.46875 C 220.707031 193.46875 220.921875 193.46875 220.921875 193.265625 C 220.921875 193.101562 220.777344 193.101562 220.574219 193.101562 L 218.636719 193.101562 C 218.925781 192.082031 219.59375 191.390625 220.683594 191.390625 L 221.054688 191.390625 C 221.257812 191.390625 221.449219 191.390625 221.449219 191.1875 C 221.449219 191.019531 221.292969 191.019531 221.089844 191.019531 L 220.671875 191.019531 C 219.117188 191.019531 217.515625 192.214844 217.515625 194.042969 C 217.515625 195.359375 218.410156 196.304688 219.679688 196.304688 C 220.457031 196.304688 221.234375 195.824219 221.234375 195.695312 C 221.234375 195.65625 221.21875 195.527344 221.113281 195.527344 C 221.089844 195.527344 221.066406 195.527344 220.957031 195.597656 C 220.585938 195.835938 220.144531 196.039062 219.703125 196.039062 C 219.007812 196.039062 218.410156 195.539062 218.410156 194.488281 C 218.410156 194.066406 218.507812 193.613281 218.542969 193.46875 Z M 220.515625 193.46875 "/>
<path style=" stroke:none;fill-rule:nonzero;fill:rgb(0%,0%,0%);fill-opacity:1;" d="M 112.023438 206.351562 C 112.214844 206.351562 112.429688 206.351562 112.429688 206.148438 C 112.429688 205.980469 112.285156 205.980469 112.082031 205.980469 L 110.148438 205.980469 C 110.433594 204.964844 111.101562 204.269531 112.191406 204.269531 L 112.5625 204.269531 C 112.765625 204.269531 112.957031 204.269531 112.957031 204.066406 C 112.957031 203.902344 112.800781 203.902344 112.597656 203.902344 L 112.179688 203.902344 C 110.625 203.902344 109.023438 205.097656 109.023438 206.925781 C 109.023438 208.242188 109.921875 209.183594 111.1875 209.183594 C 111.964844 209.183594 112.742188 208.707031 112.742188 208.574219 C 112.742188 208.539062 112.730469 208.40625 112.621094 208.40625 C 112.597656 208.40625 112.574219 208.40625 112.464844 208.480469 C 112.097656 208.71875 111.652344 208.921875 111.210938 208.921875 C 110.519531 208.921875 109.921875 208.417969 109.921875 207.367188 C 109.921875 206.949219 110.015625 206.496094 110.050781 206.351562 Z M 112.023438 206.351562 "/>
<path style=" stroke:none;fill-rule:nonzero;fill:rgb(0%,0%,0%);fill-opacity:1;" d="M 124.847656 205.144531 C 125.027344 205.144531 125.253906 205.144531 125.253906 204.90625 C 125.253906 204.664062 125.027344 204.664062 124.859375 204.664062 L 117.699219 204.664062 C 117.53125 204.664062 117.304688 204.664062 117.304688 204.90625 C 117.304688 205.144531 117.53125 205.144531 117.710938 205.144531 Z M 124.859375 207.464844 C 125.027344 207.464844 125.253906 207.464844 125.253906 207.222656 C 125.253906 206.984375 125.027344 206.984375 124.847656 206.984375 L 117.710938 206.984375 C 117.53125 206.984375 117.304688 206.984375 117.304688 207.222656 C 117.304688 207.464844 117.53125 207.464844 117.699219 207.464844 Z M 124.859375 207.464844 "/>
<path style=" stroke:none;fill-rule:nonzero;fill:rgb(0%,0%,0%);fill-opacity:1;" d="M 134.757812 205.226562 C 134.757812 204.269531 134.695312 203.316406 134.277344 202.429688 C 133.726562 201.28125 132.746094 201.089844 132.246094 201.089844 C 131.527344 201.089844 130.65625 201.402344 130.164062 202.515625 C 129.78125 203.339844 129.722656 204.269531 129.722656 205.226562 C 129.722656 206.125 129.769531 207.199219 130.261719 208.109375 C 130.773438 209.078125 131.648438 209.316406 132.234375 209.316406 C 132.878906 209.316406 133.789062 209.066406 134.3125 207.929688 C 134.695312 207.105469 134.757812 206.171875 134.757812 205.226562 Z M 132.234375 209.054688 C 131.765625 209.054688 131.0625 208.753906 130.847656 207.605469 C 130.714844 206.890625 130.714844 205.789062 130.714844 205.085938 C 130.714844 204.320312 130.714844 203.53125 130.8125 202.882812 C 131.039062 201.460938 131.933594 201.355469 132.234375 201.355469 C 132.628906 201.355469 133.417969 201.570312 133.644531 202.753906 C 133.765625 203.421875 133.765625 204.332031 133.765625 205.085938 C 133.765625 205.980469 133.765625 206.792969 133.632812 207.558594 C 133.453125 208.695312 132.773438 209.054688 132.234375 209.054688 Z M 132.234375 209.054688 "/>
<path style=" stroke:none;fill-rule:nonzero;fill:rgb(0%,0%,0%);fill-opacity:1;" d="M 5.890625 10.496094 C 6.535156 9.492188 6.738281 8.726562 6.894531 8.09375 C 7.3125 6.445312 7.765625 5.011719 8.507812 4.183594 C 8.652344 4.03125 8.746094 3.921875 9.128906 3.921875 C 9.953125 3.921875 9.976562 4.746094 9.976562 4.914062 C 9.976562 5.128906 9.917969 5.296875 9.917969 5.355469 C 9.917969 5.441406 9.988281 5.441406 10.003906 5.441406 C 10.191406 5.441406 10.515625 5.308594 10.816406 5.09375 C 11.03125 4.925781 11.136719 4.808594 11.136719 4.316406 C 11.136719 3.671875 10.804688 3.179688 10.132812 3.179688 C 9.75 3.179688 8.699219 3.277344 7.527344 4.460938 C 6.570312 5.441406 6.007812 7.59375 5.78125 8.488281 C 5.566406 9.3125 5.472656 9.683594 5.113281 10.402344 C 5.027344 10.546875 4.71875 11.070312 4.550781 11.226562 C 4.226562 11.527344 4.109375 11.742188 4.109375 11.800781 C 4.109375 11.824219 4.132812 11.871094 4.214844 11.871094 C 4.261719 11.871094 4.515625 11.824219 4.824219 11.621094 C 5.027344 11.503906 5.050781 11.476562 5.328125 11.191406 C 5.925781 11.203125 6.34375 11.3125 7.097656 11.527344 C 7.707031 11.691406 8.316406 11.871094 8.925781 11.871094 C 9.894531 11.871094 10.875 11.144531 11.257812 10.617188 C 11.496094 10.292969 11.566406 9.996094 11.566406 9.960938 C 11.566406 9.875 11.496094 9.875 11.484375 9.875 C 11.292969 9.875 11.007812 10.007812 10.804688 10.152344 C 10.480469 10.355469 10.457031 10.425781 10.382812 10.628906 C 10.324219 10.820312 10.253906 10.917969 10.207031 10.988281 C 10.109375 11.132812 10.097656 11.132812 9.917969 11.132812 C 9.34375 11.132812 8.746094 10.953125 7.957031 10.738281 C 7.621094 10.640625 6.964844 10.449219 6.367188 10.449219 C 6.210938 10.449219 6.042969 10.460938 5.890625 10.496094 Z M 5.890625 10.496094 "/>
<path style=" stroke:none;fill-rule:nonzero;fill:rgb(0%,0%,0%);fill-opacity:1;" d="M 15.03125 14.597656 L 15.03125 14.121094 L 13.871094 14.121094 L 13.871094 3.121094 L 15.03125 3.121094 L 15.03125 2.644531 L 13.394531 2.644531 L 13.394531 14.597656 Z M 15.03125 14.597656 "/>
<path style=" stroke:none;fill-rule:nonzero;fill:rgb(0%,0%,0%);fill-opacity:1;" d="M 21.113281 7.054688 C 21.160156 6.886719 21.160156 6.863281 21.160156 6.78125 C 21.160156 6.566406 20.992188 6.457031 20.8125 6.457031 C 20.695312 6.457031 20.503906 6.527344 20.394531 6.707031 C 20.371094 6.769531 20.277344 7.136719 20.230469 7.355469 C 20.144531 7.664062 20.0625 7.988281 19.988281 8.308594 L 19.453125 10.460938 C 19.402344 10.640625 18.890625 11.476562 18.101562 11.476562 C 17.492188 11.476562 17.359375 10.953125 17.359375 10.507812 C 17.359375 9.960938 17.5625 9.21875 17.96875 8.167969 C 18.160156 7.675781 18.207031 7.542969 18.207031 7.304688 C 18.207031 6.769531 17.824219 6.324219 17.226562 6.324219 C 16.09375 6.324219 15.648438 8.058594 15.648438 8.167969 C 15.648438 8.285156 15.769531 8.285156 15.792969 8.285156 C 15.914062 8.285156 15.925781 8.261719 15.984375 8.070312 C 16.308594 6.945312 16.785156 6.589844 17.191406 6.589844 C 17.289062 6.589844 17.492188 6.589844 17.492188 6.972656 C 17.492188 7.269531 17.371094 7.582031 17.289062 7.808594 C 16.808594 9.074219 16.59375 9.757812 16.59375 10.320312 C 16.59375 11.382812 17.347656 11.742188 18.054688 11.742188 C 18.519531 11.742188 18.925781 11.539062 19.261719 11.203125 C 19.105469 11.824219 18.960938 12.410156 18.484375 13.042969 C 18.171875 13.449219 17.71875 13.796875 17.167969 13.796875 C 17 13.796875 16.460938 13.761719 16.257812 13.296875 C 16.449219 13.296875 16.605469 13.296875 16.773438 13.152344 C 16.894531 13.042969 17.011719 12.890625 17.011719 12.660156 C 17.011719 12.292969 16.691406 12.242188 16.570312 12.242188 C 16.296875 12.242188 15.902344 12.433594 15.902344 13.019531 C 15.902344 13.617188 16.425781 14.058594 17.167969 14.058594 C 18.398438 14.058594 19.628906 12.972656 19.964844 11.621094 Z M 21.113281 7.054688 "/>
<path style=" stroke:none;fill-rule:nonzero;fill:rgb(0%,0%,0%);fill-opacity:1;" d="M 25.550781 14.480469 C 25.550781 14.441406 25.550781 14.417969 25.347656 14.214844 C 23.851562 12.710938 23.46875 10.449219 23.46875 8.621094 C 23.46875 6.539062 23.925781 4.460938 25.394531 2.964844 C 25.550781 2.824219 25.550781 2.796875 25.550781 2.761719 C 25.550781 2.679688 25.503906 2.644531 25.429688 2.644531 C 25.3125 2.644531 24.234375 3.457031 23.53125 4.972656 C 22.921875 6.289062 22.777344 7.617188 22.777344 8.621094 C 22.777344 9.554688 22.910156 11 23.566406 12.351562 C 24.285156 13.820312 25.3125 14.597656 25.429688 14.597656 C 25.503906 14.597656 25.550781 14.5625 25.550781 14.480469 Z M 25.550781 14.480469 "/>
<path style=" stroke:none;fill-rule:nonzero;fill:rgb(0%,0%,0%);fill-opacity:1;" d="M 30.238281 8 C 30.308594 7.6875 30.582031 6.589844 31.421875 6.589844 C 31.480469 6.589844 31.765625 6.589844 32.019531 6.742188 C 31.683594 6.804688 31.445312 7.101562 31.445312 7.390625 C 31.445312 7.582031 31.574219 7.808594 31.898438 7.808594 C 32.160156 7.808594 32.542969 7.59375 32.542969 7.113281 C 32.542969 6.492188 31.839844 6.324219 31.433594 6.324219 C 30.738281 6.324219 30.320312 6.960938 30.175781 7.234375 C 29.878906 6.445312 29.230469 6.324219 28.886719 6.324219 C 27.640625 6.324219 26.960938 7.867188 26.960938 8.167969 C 26.960938 8.285156 27.082031 8.285156 27.105469 8.285156 C 27.199219 8.285156 27.234375 8.261719 27.257812 8.15625 C 27.667969 6.886719 28.457031 6.589844 28.863281 6.589844 C 29.089844 6.589844 29.507812 6.695312 29.507812 7.390625 C 29.507812 7.761719 29.304688 8.5625 28.863281 10.234375 C 28.671875 10.976562 28.253906 11.476562 27.726562 11.476562 C 27.652344 11.476562 27.378906 11.476562 27.128906 11.324219 C 27.425781 11.261719 27.691406 11.011719 27.691406 10.675781 C 27.691406 10.355469 27.425781 10.257812 27.246094 10.257812 C 26.890625 10.257812 26.589844 10.570312 26.589844 10.953125 C 26.589844 11.503906 27.1875 11.742188 27.714844 11.742188 C 28.503906 11.742188 28.933594 10.90625 28.96875 10.832031 C 29.113281 11.273438 29.542969 11.742188 30.261719 11.742188 C 31.492188 11.742188 32.171875 10.199219 32.171875 9.898438 C 32.171875 9.78125 32.066406 9.78125 32.03125 9.78125 C 31.921875 9.78125 31.898438 9.828125 31.875 9.910156 C 31.480469 11.191406 30.667969 11.476562 30.285156 11.476562 C 29.816406 11.476562 29.625 11.09375 29.625 10.6875 C 29.625 10.425781 29.699219 10.164062 29.828125 9.636719 Z M 30.238281 8 "/>
<path style=" stroke:none;fill-rule:nonzero;fill:rgb(0%,0%,0%);fill-opacity:1;" d="M 36.53125 8.621094 C 36.53125 7.6875 36.398438 6.242188 35.742188 4.890625 C 35.023438 3.421875 33.996094 2.644531 33.878906 2.644531 C 33.804688 2.644531 33.757812 2.691406 33.757812 2.761719 C 33.757812 2.796875 33.757812 2.824219 33.984375 3.039062 C 35.15625 4.222656 35.839844 6.121094 35.839844 8.621094 C 35.839844 10.664062 35.394531 12.769531 33.914062 14.277344 C 33.757812 14.417969 33.757812 14.441406 33.757812 14.480469 C 33.757812 14.550781 33.804688 14.597656 33.878906 14.597656 C 33.996094 14.597656 35.074219 13.785156 35.777344 12.265625 C 36.386719 10.953125 36.53125 9.625 36.53125 8.621094 Z M 36.53125 8.621094 "/>
<path style=" stroke:none;fill-rule:nonzero;fill:rgb(0%,0%,0%);fill-opacity:1;" d="M 45.269531 8.859375 L 48.605469 8.859375 C 48.773438 8.859375 49 8.859375 49 8.621094 C 49 8.382812 48.773438 8.382812 48.605469 8.382812 L 45.269531 8.382812 L 45.269531 5.035156 C 45.269531 4.867188 45.269531 4.640625 45.03125 4.640625 C 44.792969 4.640625 44.792969 4.867188 44.792969 5.035156 L 44.792969 8.382812 L 41.445312 8.382812 C 41.277344 8.382812 41.050781 8.382812 41.050781 8.621094 C 41.050781 8.859375 41.277344 8.859375 41.445312 8.859375 L 44.792969 8.859375 L 44.792969 12.207031 C 44.792969 12.375 44.792969 12.601562 45.03125 12.601562 C 45.269531 12.601562 45.269531 12.375 45.269531 12.207031 Z M 45.269531 8.859375 "/>
<path style=" stroke:none;fill-rule:nonzero;fill:rgb(0%,0%,0%);fill-opacity:1;" d="M 55.898438 8.90625 C 56.089844 8.90625 56.304688 8.90625 56.304688 8.703125 C 56.304688 8.535156 56.160156 8.535156 55.957031 8.535156 L 54.023438 8.535156 C 54.308594 7.519531 54.976562 6.828125 56.066406 6.828125 L 56.4375 6.828125 C 56.640625 6.828125 56.832031 6.828125 56.832031 6.625 C 56.832031 6.457031 56.675781 6.457031 56.472656 6.457031 L 56.054688 6.457031 C 54.5 6.457031 52.898438 7.652344 52.898438 9.480469 C 52.898438 10.796875 53.792969 11.742188 55.0625 11.742188 C 55.839844 11.742188 56.617188 11.261719 56.617188 11.132812 C 56.617188 11.09375 56.605469 10.964844 56.496094 10.964844 C 56.472656 10.964844 56.449219 10.964844 56.339844 11.035156 C 55.96875 11.273438 55.527344 11.476562 55.085938 11.476562 C 54.394531 11.476562 53.792969 10.976562 53.792969 9.925781 C 53.792969 9.503906 53.890625 9.050781 53.925781 8.90625 Z M 55.898438 8.90625 "/>
<path style=" stroke:none;fill-rule:nonzero;fill:rgb(0%,0%,0%);fill-opacity:1;" d="M 60.34375 6.386719 C 58.851562 6.742188 57.691406 8.296875 57.691406 9.746094 C 57.691406 10.890625 58.457031 11.753906 59.578125 11.753906 C 60.980469 11.753906 61.972656 9.875 61.972656 8.226562 C 61.972656 7.136719 61.492188 6.539062 61.085938 6.003906 C 60.65625 5.464844 59.949219 4.566406 59.949219 4.042969 C 59.949219 3.777344 60.191406 3.492188 60.609375 3.492188 C 60.964844 3.492188 61.207031 3.648438 61.457031 3.816406 C 61.695312 3.957031 61.933594 4.113281 62.113281 4.113281 C 62.414062 4.113281 62.59375 3.828125 62.59375 3.636719 C 62.59375 3.371094 62.402344 3.335938 61.972656 3.242188 C 61.347656 3.109375 61.183594 3.109375 60.992188 3.109375 C 60.058594 3.109375 59.628906 3.625 59.628906 4.339844 C 59.628906 4.988281 59.972656 5.65625 60.34375 6.386719 Z M 60.488281 6.648438 C 60.789062 7.199219 61.144531 7.84375 61.144531 8.703125 C 61.144531 9.492188 60.691406 11.488281 59.578125 11.488281 C 58.921875 11.488281 58.433594 10.988281 58.433594 10.078125 C 58.433594 9.328125 58.875 7.078125 60.488281 6.648438 Z M 60.488281 6.648438 "/>
<path style=" stroke:none;fill-rule:nonzero;fill:rgb(0%,0%,0%);fill-opacity:1;" d="M 68.773438 7.054688 C 68.820312 6.886719 68.820312 6.863281 68.820312 6.78125 C 68.820312 6.566406 68.652344 6.457031 68.472656 6.457031 C 68.355469 6.457031 68.164062 6.527344 68.054688 6.707031 C 68.03125 6.769531 67.933594 7.136719 67.886719 7.355469 C 67.804688 7.664062 67.71875 7.988281 67.648438 8.308594 L 67.109375 10.460938 C 67.0625 10.640625 66.546875 11.476562 65.757812 11.476562 C 65.148438 11.476562 65.019531 10.953125 65.019531 10.507812 C 65.019531 9.960938 65.222656 9.21875 65.628906 8.167969 C 65.820312 7.675781 65.867188 7.542969 65.867188 7.304688 C 65.867188 6.769531 65.484375 6.324219 64.886719 6.324219 C 63.75 6.324219 63.308594 8.058594 63.308594 8.167969 C 63.308594 8.285156 63.429688 8.285156 63.453125 8.285156 C 63.570312 8.285156 63.582031 8.261719 63.644531 8.070312 C 63.964844 6.945312 64.445312 6.589844 64.851562 6.589844 C 64.945312 6.589844 65.148438 6.589844 65.148438 6.972656 C 65.148438 7.269531 65.03125 7.582031 64.945312 7.808594 C 64.46875 9.074219 64.253906 9.757812 64.253906 10.320312 C 64.253906 11.382812 65.007812 11.742188 65.710938 11.742188 C 66.179688 11.742188 66.585938 11.539062 66.917969 11.203125 C 66.765625 11.824219 66.621094 12.410156 66.140625 13.042969 C 65.832031 13.449219 65.378906 13.796875 64.828125 13.796875 C 64.660156 13.796875 64.121094 13.761719 63.917969 13.296875 C 64.109375 13.296875 64.265625 13.296875 64.433594 13.152344 C 64.550781 13.042969 64.671875 12.890625 64.671875 12.660156 C 64.671875 12.292969 64.347656 12.242188 64.230469 12.242188 C 63.953125 12.242188 63.558594 12.433594 63.558594 13.019531 C 63.558594 13.617188 64.085938 14.058594 64.828125 14.058594 C 66.058594 14.058594 67.289062 12.972656 67.625 11.621094 Z M 68.773438 7.054688 "/>
<path style=" stroke:none;fill-rule:nonzero;fill:rgb(0%,0%,0%);fill-opacity:1;" d="M 73.203125 14.480469 C 73.203125 14.441406 73.203125 14.417969 73 14.214844 C 71.503906 12.710938 71.121094 10.449219 71.121094 8.621094 C 71.121094 6.539062 71.578125 4.460938 73.046875 2.964844 C 73.203125 2.824219 73.203125 2.796875 73.203125 2.761719 C 73.203125 2.679688 73.15625 2.644531 73.082031 2.644531 C 72.964844 2.644531 71.886719 3.457031 71.183594 4.972656 C 70.574219 6.289062 70.429688 7.617188 70.429688 8.621094 C 70.429688 9.554688 70.5625 11 71.21875 12.351562 C 71.933594 13.820312 72.964844 14.597656 73.082031 14.597656 C 73.15625 14.597656 73.203125 14.5625 73.203125 14.480469 Z M 73.203125 14.480469 "/>
<path style=" stroke:none;fill-rule:nonzero;fill:rgb(0%,0%,0%);fill-opacity:1;" d="M 77.886719 8 C 77.960938 7.6875 78.234375 6.589844 79.070312 6.589844 C 79.132812 6.589844 79.417969 6.589844 79.667969 6.742188 C 79.335938 6.804688 79.097656 7.101562 79.097656 7.390625 C 79.097656 7.582031 79.226562 7.808594 79.550781 7.808594 C 79.8125 7.808594 80.195312 7.59375 80.195312 7.113281 C 80.195312 6.492188 79.492188 6.324219 79.085938 6.324219 C 78.390625 6.324219 77.972656 6.960938 77.828125 7.234375 C 77.53125 6.445312 76.882812 6.324219 76.539062 6.324219 C 75.292969 6.324219 74.613281 7.867188 74.613281 8.167969 C 74.613281 8.285156 74.730469 8.285156 74.757812 8.285156 C 74.851562 8.285156 74.886719 8.261719 74.910156 8.15625 C 75.316406 6.886719 76.105469 6.589844 76.511719 6.589844 C 76.742188 6.589844 77.160156 6.695312 77.160156 7.390625 C 77.160156 7.761719 76.957031 8.5625 76.511719 10.234375 C 76.324219 10.976562 75.902344 11.476562 75.378906 11.476562 C 75.304688 11.476562 75.03125 11.476562 74.78125 11.324219 C 75.078125 11.261719 75.34375 11.011719 75.34375 10.675781 C 75.34375 10.355469 75.078125 10.257812 74.898438 10.257812 C 74.542969 10.257812 74.242188 10.570312 74.242188 10.953125 C 74.242188 11.503906 74.839844 11.742188 75.367188 11.742188 C 76.15625 11.742188 76.585938 10.90625 76.621094 10.832031 C 76.765625 11.273438 77.195312 11.742188 77.914062 11.742188 C 79.144531 11.742188 79.824219 10.199219 79.824219 9.898438 C 79.824219 9.78125 79.71875 9.78125 79.683594 9.78125 C 79.574219 9.78125 79.550781 9.828125 79.527344 9.910156 C 79.132812 11.191406 78.320312 11.476562 77.9375 11.476562 C 77.46875 11.476562 77.277344 11.09375 77.277344 10.6875 C 77.277344 10.425781 77.351562 10.164062 77.480469 9.636719 Z M 77.886719 8 "/>
<path style=" stroke:none;fill-rule:nonzero;fill:rgb(0%,0%,0%);fill-opacity:1;" d="M 84.183594 8.621094 C 84.183594 7.6875 84.050781 6.242188 83.394531 4.890625 C 82.675781 3.421875 81.648438 2.644531 81.527344 2.644531 C 81.457031 2.644531 81.410156 2.691406 81.410156 2.761719 C 81.410156 2.796875 81.410156 2.824219 81.636719 3.039062 C 82.808594 4.222656 83.488281 6.121094 83.488281 8.621094 C 83.488281 10.664062 83.046875 12.769531 81.5625 14.277344 C 81.410156 14.417969 81.410156 14.441406 81.410156 14.480469 C 81.410156 14.550781 81.457031 14.597656 81.527344 14.597656 C 81.648438 14.597656 82.722656 13.785156 83.429688 12.265625 C 84.039062 10.953125 84.183594 9.625 84.183594 8.621094 Z M 84.183594 8.621094 "/>
<path style=" stroke:none;fill-rule:nonzero;fill:rgb(0%,0%,0%);fill-opacity:1;" d="M 87.277344 2.644531 L 85.640625 2.644531 L 85.640625 3.121094 L 86.800781 3.121094 L 86.800781 14.121094 L 85.640625 14.121094 L 85.640625 14.597656 L 87.277344 14.597656 Z M 87.277344 2.644531 "/>
</g>
</svg>
