<?xml version="1.0" encoding="UTF-8"?>
<!DOCTYPE svg PUBLIC "-//W3C//DTD SVG 1.1//EN" "http://www.w3.org/Graphics/SVG/1.1/DTD/svg11.dtd">
<svg version="1.1" xmlns="http://www.w3.org/2000/svg" xmlns:xlink="http://www.w3.org/1999/xlink" x="0" y="0" width="243.78" height="218.268" viewBox="0, 0, 243.78, 218.268">
  <g id="Background">
    <rect x="0" y="0" width="243.78" height="218.268" fill="#FFFFFF"/>
  </g>
  <g id="Layer_1">
    <path d="M123.448,172.631 L123.448,185.531" fill-opacity="0" stroke="#000000" stroke-width="1" stroke-dasharray="3,2"/>
    <g>
      <path d="M35.096,26.834 L35.096,199.189" fill-opacity="0" stroke="#000000" stroke-width="1"/>
      <path d="M38.096,26.834 L35.096,18.834 L32.096,26.834 z" fill="#000000" fill-opacity="1" stroke="#000000" stroke-width="1" stroke-opacity="1"/>
    </g>
    <g>
      <path d="M25.99,185.531 L216.557,185.531" fill-opacity="0" stroke="#000000" stroke-width="1"/>
      <path d="M216.557,188.531 L224.557,185.531 L216.557,182.531 z" fill="#000000" fill-opacity="1" stroke="#000000" stroke-width="1" stroke-opacity="1"/>
    </g>
    <path d="M41.167,68.551 C38.573,189.807 194.446,222.079 194.446,73.104" fill-opacity="0" stroke="#FF0000" stroke-width="1" stroke-linecap="round" stroke-linejoin="round"/>
    <path d="M220.515,193.47 C220.707,193.47 220.922,193.47 220.922,193.267 C220.922,193.1 220.778,193.1 220.575,193.1 L218.638,193.1 C218.925,192.083 219.595,191.39 220.683,191.39 L221.053,191.39 C221.257,191.39 221.448,191.39 221.448,191.187 C221.448,191.019 221.292,191.019 221.089,191.019 L220.671,191.019 C219.117,191.019 217.515,192.215 217.515,194.044 C217.515,195.359 218.411,196.304 219.678,196.304 C220.456,196.304 221.233,195.825 221.233,195.694 C221.233,195.658 221.221,195.527 221.113,195.527 C221.089,195.527 221.065,195.527 220.958,195.598 C220.587,195.837 220.145,196.041 219.702,196.041 C219.009,196.041 218.411,195.539 218.411,194.486 C218.411,194.068 218.507,193.614 218.543,193.47 z" fill="#000000" id="Layer_1"/>
    <g id="Layer_1">
      <path d="M112.024,206.351 C112.215,206.351 112.431,206.351 112.431,206.148 C112.431,205.981 112.287,205.981 112.084,205.981 L110.147,205.981 C110.434,204.965 111.104,204.271 112.191,204.271 L112.562,204.271 C112.765,204.271 112.957,204.271 112.957,204.068 C112.957,203.901 112.801,203.901 112.598,203.901 L112.179,203.901 C110.625,203.901 109.023,205.096 109.023,206.925 C109.023,208.24 109.92,209.185 111.187,209.185 C111.964,209.185 112.741,208.707 112.741,208.575 C112.741,208.539 112.729,208.408 112.622,208.408 C112.598,208.408 112.574,208.408 112.466,208.479 C112.096,208.719 111.653,208.922 111.211,208.922 C110.518,208.922 109.92,208.42 109.92,207.368 C109.92,206.949 110.016,206.495 110.051,206.351 z" fill="#000000"/>
      <path d="M124.848,205.144 C125.027,205.144 125.254,205.144 125.254,204.905 C125.254,204.666 125.027,204.666 124.86,204.666 L117.699,204.666 C117.531,204.666 117.304,204.666 117.304,204.905 C117.304,205.144 117.531,205.144 117.711,205.144 z M124.86,207.463 C125.027,207.463 125.254,207.463 125.254,207.224 C125.254,206.985 125.027,206.985 124.848,206.985 L117.711,206.985 C117.531,206.985 117.304,206.985 117.304,207.224 C117.304,207.463 117.531,207.463 117.699,207.463 z" fill="#000000"/>
      <path d="M134.756,205.228 C134.756,204.271 134.696,203.315 134.278,202.43 C133.728,201.282 132.748,201.091 132.246,201.091 C131.528,201.091 130.656,201.402 130.165,202.514 C129.783,203.339 129.723,204.271 129.723,205.228 C129.723,206.124 129.771,207.2 130.261,208.109 C130.775,209.077 131.648,209.316 132.234,209.316 C132.879,209.316 133.788,209.065 134.314,207.929 C134.696,207.105 134.756,206.172 134.756,205.228 z M132.234,209.053 C131.767,209.053 131.062,208.754 130.847,207.607 C130.715,206.889 130.715,205.79 130.715,205.084 C130.715,204.319 130.715,203.53 130.811,202.884 C131.038,201.462 131.935,201.354 132.234,201.354 C132.628,201.354 133.417,201.569 133.644,202.753 C133.764,203.422 133.764,204.331 133.764,205.084 C133.764,205.981 133.764,206.794 133.632,207.559 C133.453,208.695 132.772,209.053 132.234,209.053 z" fill="#000000"/>
    </g>
    <g id="Layer_1">
      <path d="M5.889,10.498 C6.535,9.494 6.738,8.728 6.894,8.095 C7.312,6.445 7.766,5.01 8.508,4.186 C8.651,4.03 8.747,3.922 9.129,3.922 C9.954,3.922 9.978,4.747 9.978,4.915 C9.978,5.13 9.918,5.297 9.918,5.357 C9.918,5.441 9.99,5.441 10.002,5.441 C10.193,5.441 10.516,5.309 10.815,5.094 C11.03,4.927 11.138,4.807 11.138,4.317 C11.138,3.671 10.803,3.181 10.133,3.181 C9.751,3.181 8.699,3.277 7.527,4.46 C6.571,5.441 6.009,7.593 5.782,8.489 C5.567,9.314 5.471,9.685 5.112,10.402 C5.029,10.546 4.718,11.072 4.55,11.227 C4.228,11.526 4.108,11.741 4.108,11.801 C4.108,11.825 4.132,11.873 4.216,11.873 C4.264,11.873 4.515,11.825 4.825,11.622 C5.029,11.502 5.053,11.478 5.328,11.191 C5.925,11.203 6.344,11.311 7.097,11.526 C7.707,11.693 8.316,11.873 8.926,11.873 C9.894,11.873 10.875,11.143 11.257,10.617 C11.496,10.295 11.568,9.996 11.568,9.96 C11.568,9.876 11.496,9.876 11.484,9.876 C11.293,9.876 11.006,10.008 10.803,10.151 C10.48,10.354 10.456,10.426 10.385,10.629 C10.325,10.821 10.253,10.916 10.205,10.988 C10.11,11.131 10.098,11.131 9.918,11.131 C9.344,11.131 8.747,10.952 7.958,10.737 C7.623,10.641 6.965,10.45 6.368,10.45 C6.212,10.45 6.045,10.462 5.889,10.498 z" fill="#000000"/>
      <path d="M15.031,14.598 L15.031,14.12 L13.872,14.12 L13.872,3.121 L15.031,3.121 L15.031,2.643 L13.393,2.643 L13.393,14.598 z" fill="#000000"/>
      <path d="M21.113,7.055 C21.161,6.887 21.161,6.863 21.161,6.78 C21.161,6.565 20.994,6.457 20.814,6.457 C20.695,6.457 20.504,6.529 20.396,6.708 C20.372,6.768 20.276,7.138 20.229,7.354 C20.145,7.664 20.061,7.987 19.99,8.31 L19.452,10.462 C19.404,10.641 18.89,11.478 18.101,11.478 C17.491,11.478 17.359,10.952 17.359,10.51 C17.359,9.96 17.563,9.219 17.969,8.167 C18.16,7.676 18.208,7.545 18.208,7.306 C18.208,6.768 17.826,6.325 17.228,6.325 C16.092,6.325 15.65,8.059 15.65,8.167 C15.65,8.286 15.769,8.286 15.793,8.286 C15.913,8.286 15.925,8.262 15.985,8.071 C16.307,6.947 16.786,6.588 17.192,6.588 C17.288,6.588 17.491,6.588 17.491,6.971 C17.491,7.27 17.371,7.581 17.288,7.808 C16.809,9.075 16.594,9.757 16.594,10.318 C16.594,11.382 17.347,11.741 18.053,11.741 C18.519,11.741 18.926,11.538 19.26,11.203 C19.105,11.825 18.961,12.411 18.483,13.044 C18.172,13.451 17.718,13.797 17.168,13.797 C17.001,13.797 16.463,13.762 16.26,13.295 C16.451,13.295 16.606,13.295 16.774,13.152 C16.893,13.044 17.013,12.889 17.013,12.662 C17.013,12.291 16.69,12.243 16.57,12.243 C16.295,12.243 15.901,12.435 15.901,13.02 C15.901,13.618 16.427,14.06 17.168,14.06 C18.399,14.06 19.631,12.973 19.966,11.622 z" fill="#000000"/>
      <path d="M25.551,14.479 C25.551,14.443 25.551,14.419 25.347,14.216 C23.853,12.71 23.47,10.45 23.47,8.621 C23.47,6.541 23.925,4.46 25.395,2.966 C25.551,2.823 25.551,2.799 25.551,2.763 C25.551,2.679 25.503,2.643 25.431,2.643 C25.312,2.643 24.236,3.456 23.53,4.975 C22.921,6.29 22.777,7.617 22.777,8.621 C22.777,9.553 22.909,11 23.566,12.351 C24.283,13.821 25.312,14.598 25.431,14.598 C25.503,14.598 25.551,14.563 25.551,14.479 z" fill="#000000"/>
      <path d="M30.237,7.999 C30.308,7.688 30.583,6.588 31.42,6.588 C31.48,6.588 31.767,6.588 32.018,6.744 C31.683,6.804 31.444,7.103 31.444,7.389 C31.444,7.581 31.575,7.808 31.898,7.808 C32.161,7.808 32.544,7.593 32.544,7.115 C32.544,6.493 31.838,6.325 31.432,6.325 C30.739,6.325 30.32,6.959 30.177,7.234 C29.878,6.445 29.232,6.325 28.886,6.325 C27.642,6.325 26.961,7.868 26.961,8.167 C26.961,8.286 27.08,8.286 27.104,8.286 C27.2,8.286 27.236,8.262 27.26,8.155 C27.666,6.887 28.455,6.588 28.862,6.588 C29.089,6.588 29.507,6.696 29.507,7.389 C29.507,7.76 29.304,8.561 28.862,10.235 C28.67,10.976 28.252,11.478 27.726,11.478 C27.654,11.478 27.379,11.478 27.128,11.323 C27.427,11.263 27.69,11.012 27.69,10.677 C27.69,10.354 27.427,10.259 27.248,10.259 C26.889,10.259 26.59,10.57 26.59,10.952 C26.59,11.502 27.188,11.741 27.714,11.741 C28.503,11.741 28.933,10.904 28.969,10.833 C29.113,11.275 29.543,11.741 30.26,11.741 C31.492,11.741 32.173,10.199 32.173,9.9 C32.173,9.78 32.066,9.78 32.03,9.78 C31.922,9.78 31.898,9.828 31.874,9.912 C31.48,11.191 30.667,11.478 30.284,11.478 C29.818,11.478 29.627,11.096 29.627,10.689 C29.627,10.426 29.699,10.163 29.83,9.637 z" fill="#000000"/>
      <path d="M36.531,8.621 C36.531,7.688 36.4,6.242 35.742,4.891 C35.025,3.42 33.997,2.643 33.877,2.643 C33.806,2.643 33.758,2.691 33.758,2.763 C33.758,2.799 33.758,2.823 33.985,3.038 C35.156,4.221 35.838,6.122 35.838,8.621 C35.838,10.665 35.396,12.769 33.913,14.276 C33.758,14.419 33.758,14.443 33.758,14.479 C33.758,14.551 33.806,14.598 33.877,14.598 C33.997,14.598 35.073,13.785 35.778,12.267 C36.388,10.952 36.531,9.625 36.531,8.621 z" fill="#000000"/>
      <path d="M45.269,8.86 L48.605,8.86 C48.772,8.86 48.999,8.86 48.999,8.621 C48.999,8.382 48.772,8.382 48.605,8.382 L45.269,8.382 L45.269,5.034 C45.269,4.867 45.269,4.64 45.03,4.64 C44.791,4.64 44.791,4.867 44.791,5.034 L44.791,8.382 L41.444,8.382 C41.276,8.382 41.049,8.382 41.049,8.621 C41.049,8.86 41.276,8.86 41.444,8.86 L44.791,8.86 L44.791,12.207 C44.791,12.375 44.791,12.602 45.03,12.602 C45.269,12.602 45.269,12.375 45.269,12.207 z" fill="#000000"/>
      <path d="M55.899,8.908 C56.09,8.908 56.305,8.908 56.305,8.705 C56.305,8.537 56.162,8.537 55.959,8.537 L54.022,8.537 C54.309,7.521 54.978,6.828 56.066,6.828 L56.437,6.828 C56.64,6.828 56.831,6.828 56.831,6.624 C56.831,6.457 56.676,6.457 56.473,6.457 L56.054,6.457 C54.5,6.457 52.898,7.652 52.898,9.482 C52.898,10.797 53.795,11.741 55.062,11.741 C55.839,11.741 56.616,11.263 56.616,11.131 C56.616,11.096 56.604,10.964 56.497,10.964 C56.473,10.964 56.449,10.964 56.341,11.036 C55.971,11.275 55.528,11.478 55.086,11.478 C54.393,11.478 53.795,10.976 53.795,9.924 C53.795,9.506 53.89,9.051 53.926,8.908 z" fill="#000000"/>
      <path d="M60.345,6.385 C58.851,6.744 57.691,8.298 57.691,9.745 C57.691,10.892 58.456,11.753 59.58,11.753 C60.979,11.753 61.971,9.876 61.971,8.226 C61.971,7.138 61.493,6.541 61.086,6.003 C60.656,5.465 59.951,4.568 59.951,4.042 C59.951,3.779 60.19,3.492 60.608,3.492 C60.967,3.492 61.206,3.648 61.457,3.815 C61.696,3.958 61.935,4.114 62.114,4.114 C62.413,4.114 62.593,3.827 62.593,3.636 C62.593,3.373 62.401,3.337 61.971,3.241 C61.349,3.11 61.182,3.11 60.991,3.11 C60.058,3.11 59.628,3.624 59.628,4.341 C59.628,4.986 59.974,5.656 60.345,6.385 z M60.488,6.648 C60.787,7.198 61.146,7.844 61.146,8.705 C61.146,9.494 60.692,11.49 59.58,11.49 C58.922,11.49 58.432,10.988 58.432,10.079 C58.432,9.326 58.875,7.079 60.488,6.648 z" fill="#000000"/>
      <path d="M68.772,7.055 C68.82,6.887 68.82,6.863 68.82,6.78 C68.82,6.565 68.653,6.457 68.473,6.457 C68.354,6.457 68.163,6.529 68.055,6.708 C68.031,6.768 67.935,7.138 67.888,7.354 C67.804,7.664 67.72,7.987 67.648,8.31 L67.11,10.462 C67.063,10.641 66.549,11.478 65.76,11.478 C65.15,11.478 65.018,10.952 65.018,10.51 C65.018,9.96 65.222,9.219 65.628,8.167 C65.819,7.676 65.867,7.545 65.867,7.306 C65.867,6.768 65.485,6.325 64.887,6.325 C63.751,6.325 63.309,8.059 63.309,8.167 C63.309,8.286 63.428,8.286 63.452,8.286 C63.572,8.286 63.584,8.262 63.644,8.071 C63.966,6.947 64.444,6.588 64.851,6.588 C64.947,6.588 65.15,6.588 65.15,6.971 C65.15,7.27 65.03,7.581 64.947,7.808 C64.468,9.075 64.253,9.757 64.253,10.318 C64.253,11.382 65.006,11.741 65.712,11.741 C66.178,11.741 66.584,11.538 66.919,11.203 C66.764,11.825 66.62,12.411 66.142,13.044 C65.831,13.451 65.377,13.797 64.827,13.797 C64.66,13.797 64.122,13.762 63.918,13.295 C64.11,13.295 64.265,13.295 64.433,13.152 C64.552,13.044 64.672,12.889 64.672,12.662 C64.672,12.291 64.349,12.243 64.229,12.243 C63.954,12.243 63.56,12.435 63.56,13.02 C63.56,13.618 64.086,14.06 64.827,14.06 C66.058,14.06 67.29,12.973 67.625,11.622 z" fill="#000000"/>
      <path d="M73.203,14.479 C73.203,14.443 73.203,14.419 72.999,14.216 C71.505,12.71 71.122,10.45 71.122,8.621 C71.122,6.541 71.577,4.46 73.047,2.966 C73.203,2.823 73.203,2.799 73.203,2.763 C73.203,2.679 73.155,2.643 73.083,2.643 C72.964,2.643 71.888,3.456 71.182,4.975 C70.573,6.29 70.429,7.617 70.429,8.621 C70.429,9.553 70.561,11 71.218,12.351 C71.935,13.821 72.964,14.598 73.083,14.598 C73.155,14.598 73.203,14.563 73.203,14.479 z" fill="#000000"/>
      <path d="M77.889,7.999 C77.96,7.688 78.235,6.588 79.072,6.588 C79.132,6.588 79.419,6.588 79.67,6.744 C79.335,6.804 79.096,7.103 79.096,7.389 C79.096,7.581 79.227,7.808 79.55,7.808 C79.813,7.808 80.196,7.593 80.196,7.115 C80.196,6.493 79.49,6.325 79.084,6.325 C78.391,6.325 77.972,6.959 77.829,7.234 C77.53,6.445 76.884,6.325 76.538,6.325 C75.294,6.325 74.613,7.868 74.613,8.167 C74.613,8.286 74.732,8.286 74.756,8.286 C74.852,8.286 74.888,8.262 74.912,8.155 C75.318,6.887 76.107,6.588 76.514,6.588 C76.741,6.588 77.159,6.696 77.159,7.389 C77.159,7.76 76.956,8.561 76.514,10.235 C76.322,10.976 75.904,11.478 75.378,11.478 C75.306,11.478 75.031,11.478 74.78,11.323 C75.079,11.263 75.342,11.012 75.342,10.677 C75.342,10.354 75.079,10.259 74.9,10.259 C74.541,10.259 74.242,10.57 74.242,10.952 C74.242,11.502 74.84,11.741 75.366,11.741 C76.155,11.741 76.585,10.904 76.621,10.833 C76.765,11.275 77.195,11.741 77.912,11.741 C79.144,11.741 79.825,10.199 79.825,9.9 C79.825,9.78 79.718,9.78 79.682,9.78 C79.574,9.78 79.55,9.828 79.526,9.912 C79.132,11.191 78.319,11.478 77.936,11.478 C77.47,11.478 77.279,11.096 77.279,10.689 C77.279,10.426 77.351,10.163 77.482,9.637 z" fill="#000000"/>
      <path d="M84.182,8.621 C84.182,7.688 84.051,6.242 83.393,4.891 C82.676,3.42 81.648,2.643 81.528,2.643 C81.456,2.643 81.409,2.691 81.409,2.763 C81.409,2.799 81.409,2.823 81.636,3.038 C82.807,4.221 83.489,6.122 83.489,8.621 C83.489,10.665 83.046,12.769 81.564,14.276 C81.409,14.419 81.409,14.443 81.409,14.479 C81.409,14.551 81.456,14.598 81.528,14.598 C81.648,14.598 82.724,13.785 83.429,12.267 C84.039,10.952 84.182,9.625 84.182,8.621 z" fill="#000000"/>
      <path d="M87.277,2.643 L85.639,2.643 L85.639,3.121 L86.799,3.121 L86.799,14.12 L85.639,14.12 L85.639,14.598 L87.277,14.598 z" fill="#000000"/>
    </g>
    <path d="M-18.108,102.885 L-18.108,102.885" fill-opacity="0" stroke="#000000" stroke-width="1" stroke-linecap="round" stroke-linejoin="round"/>
  </g>
</svg>
