<?xml version="1.0" encoding="UTF-8"?>
<svg xmlns="http://www.w3.org/2000/svg" xmlns:xlink="http://www.w3.org/1999/xlink" width="226.7717pt" height="99.2126pt" viewBox="0 0 226.7717 99.2126" version="1.1">
<defs>
<clipPath id="clip1">
  <path d="M 0 0 L 226.773438 0 L 226.773438 99.210938 L 0 99.210938 Z M 0 0 "/>
</clipPath>
<clipPath id="clip3">
  <path d="M 0 0 L 226.773438 0 L 226.773438 99.210938 L 0 99.210938 Z M 0 0 "/>
</clipPath>
<clipPath id="clip2">
  <rect x="0" y="0" width="227" height="100"/>
</clipPath>
<g id="surface5" clip-path="url(#clip2)">
<g clip-path="url(#clip3)" clip-rule="nonzero">
<path style=" stroke:none;fill-rule:nonzero;fill:rgb(100%,100%,100%);fill-opacity:1;" d="M 0 0 L 226.773438 0 L 226.773438 99.210938 L 0 99.210938 Z M 0 0 "/>
</g>
</g>
<clipPath id="clip4">
  <path d="M 66 70 L 161 70 L 161 99.210938 L 66 99.210938 Z M 66 70 "/>
</clipPath>
</defs>
<g id="surface1">
<g clip-path="url(#clip1)" clip-rule="nonzero">
<use xlink:href="#surface5"/>
</g>
<path style="fill:none;stroke-width:1;stroke-linecap:butt;stroke-linejoin:miter;stroke:rgb(0%,0%,0%);stroke-opacity:1;stroke-miterlimit:4;" d="M 113.386719 23.351562 C 90.425781 23.351562 71.816406 19.339844 71.816406 14.394531 C 71.816406 9.445312 90.425781 5.433594 113.386719 5.433594 C 136.34375 5.433594 154.957031 9.445312 154.957031 14.394531 C 154.957031 19.339844 136.34375 23.351562 113.386719 23.351562 Z M 113.386719 23.351562 "/>
<g clip-path="url(#clip4)" clip-rule="nonzero">
<path style="fill:none;stroke-width:1;stroke-linecap:butt;stroke-linejoin:miter;stroke:rgb(0%,0%,0%);stroke-opacity:1;stroke-miterlimit:4;" d="M 113.386719 94.101562 C 90.425781 94.101562 71.816406 90.089844 71.816406 85.144531 C 71.816406 80.195312 90.425781 76.183594 113.386719 76.183594 C 136.34375 76.183594 154.957031 80.195312 154.957031 85.144531 C 154.957031 90.089844 136.34375 94.101562 113.386719 94.101562 Z M 113.386719 94.101562 "/>
</g>
<path style="fill:none;stroke-width:1;stroke-linecap:butt;stroke-linejoin:miter;stroke:rgb(0%,0%,0%);stroke-opacity:1;stroke-miterlimit:4;" d="M 71.816406 14.394531 L 71.816406 85.144531 "/>
<path style="fill:none;stroke-width:1;stroke-linecap:butt;stroke-linejoin:miter;stroke:rgb(0%,0%,0%);stroke-opacity:1;stroke-miterlimit:4;" d="M 154.957031 14.394531 L 154.957031 85.144531 "/>
<path style="fill:none;stroke-width:0.5;stroke-linecap:butt;stroke-linejoin:miter;stroke:rgb(0%,0%,0%);stroke-opacity:1;stroke-dasharray:1.5,1;stroke-miterlimit:4;" d="M 112.226562 14.394531 L 150.457031 14.394531 "/>
<path style="fill-rule:nonzero;fill:rgb(0%,0%,0%);fill-opacity:1;stroke-width:0.5;stroke-linecap:butt;stroke-linejoin:miter;stroke:rgb(0%,0%,0%);stroke-opacity:1;stroke-miterlimit:4;" d="M 150.457031 15.894531 L 154.457031 14.394531 L 150.457031 12.894531 Z M 150.457031 15.894531 "/>
<path style=" stroke:none;fill-rule:nonzero;fill:rgb(0%,0%,0%);fill-opacity:1;" d="M 128.519531 11.003906 C 128.59375 10.71875 128.628906 10.597656 128.855469 10.5625 C 128.960938 10.550781 129.34375 10.550781 129.585938 10.550781 C 130.433594 10.550781 131.761719 10.550781 131.761719 11.734375 C 131.761719 12.140625 131.570312 12.964844 131.101562 13.429688 C 130.792969 13.742188 130.15625 14.125 129.082031 14.125 L 127.742188 14.125 Z M 130.242188 14.28125 C 131.449219 14.015625 132.871094 13.179688 132.871094 11.972656 C 132.871094 10.945312 131.796875 10.179688 130.230469 10.179688 L 126.824219 10.179688 C 126.582031 10.179688 126.476562 10.179688 126.476562 10.417969 C 126.476562 10.550781 126.582031 10.550781 126.8125 10.550781 C 126.835938 10.550781 127.0625 10.550781 127.265625 10.574219 C 127.480469 10.597656 127.589844 10.609375 127.589844 10.765625 C 127.589844 10.8125 127.574219 10.847656 127.539062 10.992188 L 125.9375 17.410156 C 125.820312 17.878906 125.792969 17.972656 124.851562 17.972656 C 124.636719 17.972656 124.527344 17.972656 124.527344 18.214844 C 124.527344 18.34375 124.671875 18.34375 124.695312 18.34375 C 125.03125 18.34375 125.867188 18.308594 126.199219 18.308594 C 126.535156 18.308594 127.382812 18.34375 127.71875 18.34375 C 127.816406 18.34375 127.957031 18.34375 127.957031 18.105469 C 127.957031 17.972656 127.851562 17.972656 127.625 17.972656 C 127.179688 17.972656 126.847656 17.972656 126.847656 17.757812 C 126.847656 17.6875 126.871094 17.628906 126.882812 17.554688 L 127.671875 14.386719 L 129.09375 14.386719 C 130.183594 14.386719 130.398438 15.058594 130.398438 15.476562 C 130.398438 15.65625 130.300781 16.023438 130.230469 16.300781 C 130.144531 16.636719 130.039062 17.078125 130.039062 17.316406 C 130.039062 18.609375 131.472656 18.609375 131.628906 18.609375 C 132.644531 18.609375 133.0625 17.398438 133.0625 17.234375 C 133.0625 17.089844 132.933594 17.089844 132.917969 17.089844 C 132.8125 17.089844 132.789062 17.171875 132.765625 17.257812 C 132.464844 18.140625 131.953125 18.34375 131.675781 18.34375 C 131.28125 18.34375 131.199219 18.082031 131.199219 17.613281 C 131.199219 17.246094 131.269531 16.636719 131.316406 16.253906 C 131.34375 16.085938 131.367188 15.859375 131.367188 15.691406 C 131.367188 14.769531 130.566406 14.398438 130.242188 14.28125 Z M 130.242188 14.28125 "/>
<path style=" stroke:none;fill-rule:nonzero;fill:rgb(0%,0%,0%);fill-opacity:1;" d="M 105.816406 63.886719 C 104.597656 63.886719 103.605469 62.984375 103.605469 61.871094 C 103.605469 60.753906 104.597656 59.851562 105.816406 59.851562 C 107.039062 59.851562 108.027344 60.753906 108.027344 61.871094 C 108.027344 62.984375 107.039062 63.886719 105.816406 63.886719 Z M 105.816406 63.886719 "/>
<path style="fill:none;stroke-width:0.5;stroke-linecap:round;stroke-linejoin:round;stroke:rgb(0%,0%,0%);stroke-opacity:1;stroke-dasharray:3,2.5;stroke-miterlimit:4;" d="M 108.027344 61.320312 C 120.65625 57.796875 126.082031 54.433594 131.378906 50.933594 "/>
<path style="fill-rule:nonzero;fill:rgb(0%,0%,0%);fill-opacity:1;stroke-width:0.5;stroke-linecap:butt;stroke-linejoin:miter;stroke:rgb(0%,0%,0%);stroke-opacity:1;stroke-miterlimit:4;" d="M 132.199219 52.191406 L 134.722656 48.742188 L 130.554688 49.679688 Z M 132.199219 52.191406 "/>
</g>
</svg>
