<?xml version="1.0" encoding="UTF-8"?>
<svg xmlns="http://www.w3.org/2000/svg" xmlns:xlink="http://www.w3.org/1999/xlink" width="126.1417pt" height="72.28347pt" viewBox="0 0 126.1417 72.28347" version="1.1">
<defs>
<clipPath id="clip1">
  <path d="M 0 0 L 126.140625 0 L 126.140625 72.285156 L 0 72.285156 Z M 0 0 "/>
</clipPath>
<clipPath id="clip3">
  <path d="M 0 0 L 126.140625 0 L 126.140625 72.285156 L 0 72.285156 Z M 0 0 "/>
</clipPath>
<clipPath id="clip2">
  <rect x="0" y="0" width="127" height="73"/>
</clipPath>
<g id="surface5" clip-path="url(#clip2)">
<g clip-path="url(#clip3)" clip-rule="nonzero">
<path style=" stroke:none;fill-rule:nonzero;fill:rgb(100%,100%,100%);fill-opacity:1;" d="M 0 0 L 126.140625 0 L 126.140625 72.285156 L 0 72.285156 Z M 0 0 "/>
</g>
</g>
</defs>
<g id="surface1">
<g clip-path="url(#clip1)" clip-rule="nonzero">
<use xlink:href="#surface5"/>
</g>
<path style="fill:none;stroke-width:1;stroke-linecap:butt;stroke-linejoin:miter;stroke:rgb(0%,0%,0%);stroke-opacity:1;stroke-miterlimit:4;" d="M 14.894531 44.894531 L 111.246094 44.894531 L 111.246094 52.410156 L 14.894531 52.410156 Z M 14.894531 44.894531 "/>
<path style="fill:none;stroke-width:1;stroke-linecap:round;stroke-linejoin:round;stroke:rgb(0%,0%,0%);stroke-opacity:1;stroke-miterlimit:4;" d="M 27.710938 44.453125 C 29.238281 39.867188 24.734375 29.308594 28.15625 25.890625 C 34.65625 19.390625 43.324219 30.902344 48.042969 28.542969 C 55.566406 24.78125 55.851562 6.074219 67.933594 9.09375 C 74.585938 10.757812 75.796875 25.027344 81.191406 23.679688 C 86.6875 22.308594 103.589844 12.34375 107.710938 20.585938 C 112.273438 29.714844 96.710938 28.339844 95.335938 33.847656 C 94.542969 37.011719 98.871094 40.472656 98.429688 44.011719 "/>
<path style=" stroke:none;fill-rule:nonzero;fill:rgb(0%,0%,0%);fill-opacity:1;" d="M 27.386719 57.375 C 27.457031 57.0625 27.734375 55.964844 28.570312 55.964844 C 28.628906 55.964844 28.917969 55.964844 29.167969 56.117188 C 28.832031 56.179688 28.59375 56.476562 28.59375 56.765625 C 28.59375 56.957031 28.726562 57.183594 29.046875 57.183594 C 29.3125 57.183594 29.695312 56.96875 29.695312 56.488281 C 29.695312 55.867188 28.988281 55.699219 28.582031 55.699219 C 27.890625 55.699219 27.46875 56.335938 27.328125 56.609375 C 27.027344 55.820312 26.382812 55.699219 26.035156 55.699219 C 24.792969 55.699219 24.109375 57.242188 24.109375 57.542969 C 24.109375 57.660156 24.230469 57.660156 24.253906 57.660156 C 24.351562 57.660156 24.386719 57.636719 24.410156 57.53125 C 24.816406 56.261719 25.605469 55.964844 26.011719 55.964844 C 26.238281 55.964844 26.65625 56.070312 26.65625 56.765625 C 26.65625 57.136719 26.453125 57.9375 26.011719 59.609375 C 25.820312 60.351562 25.402344 60.851562 24.875 60.851562 C 24.804688 60.851562 24.53125 60.851562 24.277344 60.699219 C 24.578125 60.636719 24.839844 60.386719 24.839844 60.050781 C 24.839844 59.730469 24.578125 59.632812 24.398438 59.632812 C 24.039062 59.632812 23.742188 59.945312 23.742188 60.328125 C 23.742188 60.878906 24.339844 61.117188 24.863281 61.117188 C 25.652344 61.117188 26.082031 60.277344 26.121094 60.207031 C 26.261719 60.648438 26.691406 61.117188 27.410156 61.117188 C 28.640625 61.117188 29.324219 59.574219 29.324219 59.273438 C 29.324219 59.15625 29.214844 59.15625 29.179688 59.15625 C 29.074219 59.15625 29.046875 59.203125 29.023438 59.285156 C 28.628906 60.566406 27.816406 60.851562 27.433594 60.851562 C 26.96875 60.851562 26.777344 60.46875 26.777344 60.0625 C 26.777344 59.800781 26.847656 59.539062 26.980469 59.011719 Z M 27.386719 57.375 "/>
<path style=" stroke:none;fill-rule:nonzero;fill:rgb(0%,0%,0%);fill-opacity:1;" d="M 34.542969 60.109375 C 34.542969 59.1875 34.4375 58.527344 34.050781 57.941406 C 33.792969 57.554688 33.273438 57.222656 32.601562 57.222656 C 30.660156 57.222656 30.660156 59.507812 30.660156 60.109375 C 30.660156 60.710938 30.660156 62.945312 32.601562 62.945312 C 34.542969 62.945312 34.542969 60.710938 34.542969 60.109375 Z M 32.601562 62.710938 C 32.21875 62.710938 31.707031 62.484375 31.539062 61.800781 C 31.421875 61.304688 31.421875 60.621094 31.421875 60 C 31.421875 59.390625 31.421875 58.753906 31.546875 58.292969 C 31.722656 57.632812 32.261719 57.457031 32.601562 57.457031 C 33.054688 57.457031 33.488281 57.730469 33.640625 58.21875 C 33.773438 58.667969 33.78125 59.273438 33.78125 60 C 33.78125 60.621094 33.78125 61.238281 33.675781 61.765625 C 33.507812 62.527344 32.9375 62.710938 32.601562 62.710938 Z M 32.601562 62.710938 "/>
<path style=" stroke:none;fill-rule:nonzero;fill:rgb(0%,0%,0%);fill-opacity:1;" d="M 97.835938 57.457031 C 97.90625 57.148438 98.183594 56.046875 99.019531 56.046875 C 99.078125 56.046875 99.367188 56.046875 99.617188 56.203125 C 99.28125 56.261719 99.042969 56.5625 99.042969 56.847656 C 99.042969 57.039062 99.175781 57.265625 99.496094 57.265625 C 99.761719 57.265625 100.144531 57.050781 100.144531 56.574219 C 100.144531 55.953125 99.4375 55.785156 99.03125 55.785156 C 98.339844 55.785156 97.917969 56.417969 97.777344 56.691406 C 97.476562 55.902344 96.832031 55.785156 96.484375 55.785156 C 95.242188 55.785156 94.558594 57.328125 94.558594 57.625 C 94.558594 57.746094 94.679688 57.746094 94.703125 57.746094 C 94.800781 57.746094 94.835938 57.722656 94.859375 57.613281 C 95.265625 56.347656 96.054688 56.046875 96.460938 56.046875 C 96.6875 56.046875 97.105469 56.15625 97.105469 56.847656 C 97.105469 57.21875 96.902344 58.019531 96.460938 59.695312 C 96.269531 60.433594 95.851562 60.9375 95.324219 60.9375 C 95.253906 60.9375 94.980469 60.9375 94.726562 60.78125 C 95.027344 60.722656 95.289062 60.46875 95.289062 60.136719 C 95.289062 59.8125 95.027344 59.71875 94.847656 59.71875 C 94.488281 59.71875 94.191406 60.027344 94.191406 60.410156 C 94.191406 60.960938 94.789062 61.199219 95.3125 61.199219 C 96.101562 61.199219 96.53125 60.363281 96.570312 60.292969 C 96.710938 60.734375 97.140625 61.199219 97.859375 61.199219 C 99.089844 61.199219 99.773438 59.65625 99.773438 59.359375 C 99.773438 59.238281 99.664062 59.238281 99.628906 59.238281 C 99.523438 59.238281 99.496094 59.285156 99.472656 59.371094 C 99.078125 60.648438 98.265625 60.9375 97.882812 60.9375 C 97.417969 60.9375 97.226562 60.554688 97.226562 60.148438 C 97.226562 59.882812 97.296875 59.621094 97.429688 59.09375 Z M 97.835938 57.457031 "/>
<path style=" stroke:none;fill-rule:nonzero;fill:rgb(0%,0%,0%);fill-opacity:1;" d="M 103.480469 57.539062 C 103.480469 57.3125 103.460938 57.304688 103.226562 57.304688 C 102.691406 57.832031 101.929688 57.839844 101.589844 57.839844 L 101.589844 58.140625 C 101.789062 58.140625 102.339844 58.140625 102.800781 57.90625 L 102.800781 62.175781 C 102.800781 62.453125 102.800781 62.5625 101.964844 62.5625 L 101.648438 62.5625 L 101.648438 62.863281 C 101.796875 62.855469 102.828125 62.828125 103.136719 62.828125 C 103.394531 62.828125 104.449219 62.855469 104.632812 62.863281 L 104.632812 62.5625 L 104.316406 62.5625 C 103.480469 62.5625 103.480469 62.453125 103.480469 62.175781 Z M 103.480469 57.539062 "/>
</g>
</svg>
