<?xml version="1.0" encoding="UTF-8"?>
<svg xmlns="http://www.w3.org/2000/svg" xmlns:xlink="http://www.w3.org/1999/xlink" width="243.7795pt" height="141.7323pt" viewBox="0 0 243.7795 141.7323" version="1.1">
<defs>
<clipPath id="clip1">
  <path d="M 0 0 L 243.78125 0 L 243.78125 141.730469 L 0 141.730469 Z M 0 0 "/>
</clipPath>
<clipPath id="clip3">
  <path d="M 0 0 L 243.78125 0 L 243.78125 141.730469 L 0 141.730469 Z M 0 0 "/>
</clipPath>
<clipPath id="clip2">
  <rect x="0" y="0" width="244" height="142"/>
</clipPath>
<g id="surface5" clip-path="url(#clip2)">
<g clip-path="url(#clip3)" clip-rule="nonzero">
<path style=" stroke:none;fill-rule:nonzero;fill:rgb(100%,100%,100%);fill-opacity:1;" d="M 0 0 L 243.78125 0 L 243.78125 141.730469 L 0 141.730469 Z M 0 0 "/>
</g>
</g>
<clipPath id="clip4">
  <path d="M 112 52 L 169 52 L 169 141.730469 L 112 141.730469 Z M 112 52 "/>
</clipPath>
<clipPath id="clip5">
  <path d="M 111 116 L 140 116 L 140 141.730469 L 111 141.730469 Z M 111 116 "/>
</clipPath>
<clipPath id="clip6">
  <path d="M 137.714844 127.558594 L 146 127.558594 L 146 132 L 137.714844 132 Z M 137.714844 127.558594 "/>
</clipPath>
<clipPath id="clip7">
  <path d="M 145 128 L 148.714844 128 L 148.714844 133.855469 L 145 133.855469 Z M 145 128 "/>
</clipPath>
</defs>
<g id="surface1">
<g clip-path="url(#clip1)" clip-rule="nonzero">
<use xlink:href="#surface5"/>
</g>
<path style="fill:none;stroke-width:4;stroke-linecap:butt;stroke-linejoin:miter;stroke:rgb(0%,0%,0%);stroke-opacity:1;stroke-miterlimit:4;" d="M 67.445312 5.050781 L 176.332031 5.050781 "/>
<path style="fill:none;stroke-width:3;stroke-linecap:round;stroke-linejoin:miter;stroke:rgb(0%,0%,0%);stroke-opacity:1;stroke-miterlimit:4;" d="M 123.121094 5.050781 L 151.546875 68.976562 "/>
<path style="fill:none;stroke-width:1;stroke-linecap:butt;stroke-linejoin:miter;stroke:rgb(0%,0%,0%);stroke-opacity:1;stroke-dasharray:3,2;stroke-miterlimit:4;" d="M 151.546875 68.976562 L 151.546875 95.136719 "/>
<g clip-path="url(#clip4)" clip-rule="nonzero">
<path style="fill:none;stroke-width:3;stroke-linecap:round;stroke-linejoin:miter;stroke:rgb(0%,0%,0%);stroke-opacity:1;stroke-miterlimit:4;" d="M 151.546875 68.976562 L 129.484375 124.554688 "/>
</g>
<path style=" stroke:none;fill-rule:nonzero;fill:rgb(0%,0%,0%);fill-opacity:1;" d="M 125.878906 138.980469 C 121.308594 138.980469 117.605469 135.277344 117.605469 130.707031 C 117.605469 126.136719 121.308594 122.433594 125.878906 122.433594 C 130.445312 122.433594 134.152344 126.136719 134.152344 130.707031 C 134.152344 135.277344 130.445312 138.980469 125.878906 138.980469 Z M 125.878906 138.980469 "/>
<g clip-path="url(#clip5)" clip-rule="nonzero">
<path style="fill:none;stroke-width:1;stroke-linecap:butt;stroke-linejoin:miter;stroke:rgb(0%,0%,0%);stroke-opacity:1;stroke-miterlimit:4;" d="M 125.878906 138.980469 C 121.308594 138.980469 117.605469 135.277344 117.605469 130.707031 C 117.605469 126.136719 121.308594 122.433594 125.878906 122.433594 C 130.445312 122.433594 134.152344 126.136719 134.152344 130.707031 C 134.152344 135.277344 130.445312 138.980469 125.878906 138.980469 Z M 125.878906 138.980469 "/>
</g>
<path style="fill:none;stroke-width:1;stroke-linecap:butt;stroke-linejoin:miter;stroke:rgb(0%,0%,0%);stroke-opacity:1;stroke-dasharray:3,2;stroke-miterlimit:4;" d="M 123.121094 5.050781 L 123.121094 59.824219 "/>
<path style="fill:none;stroke-width:1;stroke-linecap:butt;stroke-linejoin:miter;stroke:rgb(0%,0%,0%);stroke-opacity:1;stroke-miterlimit:4;" d="M 140.863281 44.632812 C 135.28125 47.132812 129.234375 48.425781 123.121094 48.425781 "/>
<path style="fill:none;stroke-width:1;stroke-linecap:butt;stroke-linejoin:miter;stroke:rgb(0%,0%,0%);stroke-opacity:1;stroke-miterlimit:4;" d="M 151.546875 90.203125 C 148.914062 92.683594 145.925781 92.84375 143.238281 90.648438 "/>
<path style=" stroke:none;fill-rule:nonzero;fill:rgb(0%,0%,0%);fill-opacity:1;" d="M 134.421875 53.355469 C 134.421875 52.566406 134.207031 50.902344 132.988281 50.902344 C 131.324219 50.902344 129.484375 54.273438 129.484375 57.011719 C 129.484375 58.136719 129.832031 59.464844 130.917969 59.464844 C 132.605469 59.464844 134.421875 56.03125 134.421875 53.355469 Z M 130.75 54.992188 C 130.953125 54.226562 131.195312 53.269531 131.671875 52.421875 C 131.996094 51.835938 132.4375 51.167969 132.976562 51.167969 C 133.558594 51.167969 133.632812 51.929688 133.632812 52.613281 C 133.632812 53.199219 133.535156 53.808594 133.25 54.992188 Z M 133.140625 55.375 C 133.011719 55.925781 132.757812 56.941406 132.304688 57.800781 C 131.886719 58.613281 131.433594 59.199219 130.917969 59.199219 C 130.523438 59.199219 130.273438 58.851562 130.273438 57.742188 C 130.273438 57.238281 130.34375 56.546875 130.65625 55.375 Z M 133.140625 55.375 "/>
<path style=" stroke:none;fill-rule:nonzero;fill:rgb(0%,0%,0%);fill-opacity:1;" d="M 137.398438 55.804688 C 137.398438 55.578125 137.378906 55.570312 137.148438 55.570312 C 136.609375 56.097656 135.847656 56.105469 135.507812 56.105469 L 135.507812 56.40625 C 135.707031 56.40625 136.257812 56.40625 136.71875 56.171875 L 136.71875 60.4375 C 136.71875 60.714844 136.71875 60.824219 135.882812 60.824219 L 135.566406 60.824219 L 135.566406 61.125 C 135.714844 61.117188 136.746094 61.09375 137.054688 61.09375 C 137.3125 61.09375 138.367188 61.117188 138.550781 61.125 L 138.550781 60.824219 L 138.234375 60.824219 C 137.398438 60.824219 137.398438 60.714844 137.398438 60.4375 Z M 137.398438 55.804688 "/>
<path style=" stroke:none;fill-rule:nonzero;fill:rgb(0%,0%,0%);fill-opacity:1;" d="M 148.175781 98.679688 C 148.175781 97.890625 147.960938 96.226562 146.738281 96.226562 C 145.078125 96.226562 143.238281 99.597656 143.238281 102.335938 C 143.238281 103.460938 143.582031 104.789062 144.671875 104.789062 C 146.355469 104.789062 148.175781 101.355469 148.175781 98.679688 Z M 144.503906 100.316406 C 144.707031 99.550781 144.945312 98.59375 145.425781 97.746094 C 145.746094 97.160156 146.191406 96.492188 146.726562 96.492188 C 147.3125 96.492188 147.386719 97.257812 147.386719 97.9375 C 147.386719 98.523438 147.289062 99.132812 147.003906 100.316406 Z M 146.894531 100.699219 C 146.761719 101.25 146.511719 102.265625 146.058594 103.125 C 145.640625 103.9375 145.183594 104.523438 144.671875 104.523438 C 144.277344 104.523438 144.027344 104.179688 144.027344 103.066406 C 144.027344 102.566406 144.097656 101.871094 144.410156 100.699219 Z M 146.894531 100.699219 "/>
<path style=" stroke:none;fill-rule:nonzero;fill:rgb(0%,0%,0%);fill-opacity:1;" d="M 152.574219 104.925781 L 152.289062 104.925781 C 152.261719 105.113281 152.179688 105.605469 152.070312 105.6875 C 152.003906 105.738281 151.359375 105.738281 151.242188 105.738281 L 149.703125 105.738281 C 150.582031 104.960938 150.875 104.726562 151.375 104.332031 C 151.996094 103.839844 152.574219 103.320312 152.574219 102.527344 C 152.574219 101.511719 151.6875 100.894531 150.613281 100.894531 C 149.578125 100.894531 148.875 101.621094 148.875 102.390625 C 148.875 102.820312 149.234375 102.859375 149.316406 102.859375 C 149.519531 102.859375 149.761719 102.71875 149.761719 102.417969 C 149.761719 102.265625 149.703125 101.972656 149.269531 101.972656 C 149.527344 101.378906 150.097656 101.195312 150.488281 101.195312 C 151.328125 101.195312 151.761719 101.847656 151.761719 102.527344 C 151.761719 103.253906 151.242188 103.832031 150.976562 104.132812 L 148.957031 106.125 C 148.875 106.199219 148.875 106.214844 148.875 106.449219 L 152.320312 106.449219 Z M 152.574219 104.925781 "/>
<path style="fill:none;stroke-width:1;stroke-linecap:butt;stroke-linejoin:miter;stroke:rgb(0%,0%,0%);stroke-opacity:1;stroke-dasharray:3,2;stroke-miterlimit:4;" d="M 137.769531 18.148438 L 154.550781 56.363281 "/>
<path style="fill-rule:nonzero;fill:rgb(0%,0%,0%);fill-opacity:1;stroke-width:1;stroke-linecap:butt;stroke-linejoin:miter;stroke:rgb(0%,0%,0%);stroke-opacity:1;stroke-miterlimit:4;" d="M 140.515625 16.941406 L 134.554688 10.824219 L 135.023438 19.355469 Z M 140.515625 16.941406 "/>
<path style="fill-rule:nonzero;fill:rgb(0%,0%,0%);fill-opacity:1;stroke-width:1;stroke-linecap:butt;stroke-linejoin:miter;stroke:rgb(0%,0%,0%);stroke-opacity:1;stroke-miterlimit:4;" d="M 151.804688 57.570312 L 157.769531 63.6875 L 157.296875 55.15625 Z M 151.804688 57.570312 "/>
<path style="fill:none;stroke-width:1;stroke-linecap:butt;stroke-linejoin:miter;stroke:rgb(0%,0%,0%);stroke-opacity:1;stroke-dasharray:3,2;stroke-miterlimit:4;" d="M 142.691406 76.097656 L 128.832031 110.824219 "/>
<path style="fill-rule:nonzero;fill:rgb(0%,0%,0%);fill-opacity:1;stroke-width:1;stroke-linecap:butt;stroke-linejoin:miter;stroke:rgb(0%,0%,0%);stroke-opacity:1;stroke-miterlimit:4;" d="M 145.476562 77.207031 L 145.65625 68.664062 L 139.90625 74.984375 Z M 145.476562 77.207031 "/>
<path style="fill-rule:nonzero;fill:rgb(0%,0%,0%);fill-opacity:1;stroke-width:1;stroke-linecap:butt;stroke-linejoin:miter;stroke:rgb(0%,0%,0%);stroke-opacity:1;stroke-miterlimit:4;" d="M 126.046875 109.714844 L 125.867188 118.253906 L 131.617188 111.9375 Z M 126.046875 109.714844 "/>
<g clip-path="url(#clip6)" clip-rule="nonzero">
<path style=" stroke:none;fill-rule:nonzero;fill:rgb(0%,0%,0%);fill-opacity:1;" d="M 138.460938 131.242188 C 138.4375 131.375 138.382812 131.582031 138.382812 131.625 C 138.382812 131.789062 138.507812 131.867188 138.640625 131.867188 C 138.75 131.867188 138.910156 131.796875 138.972656 131.617188 C 138.984375 131.597656 139.089844 131.175781 139.144531 130.953125 L 139.339844 130.144531 C 139.394531 129.949219 139.449219 129.75 139.492188 129.546875 C 139.53125 129.394531 139.601562 129.132812 139.609375 129.097656 C 139.746094 128.820312 140.21875 128.003906 141.070312 128.003906 C 141.476562 128.003906 141.554688 128.335938 141.554688 128.632812 C 141.554688 128.855469 141.492188 129.105469 141.421875 129.375 L 141.171875 130.414062 L 140.992188 131.097656 C 140.957031 131.277344 140.875 131.582031 140.875 131.625 C 140.875 131.789062 141 131.867188 141.132812 131.867188 C 141.414062 131.867188 141.464844 131.644531 141.539062 131.355469 C 141.664062 130.855469 141.996094 129.546875 142.078125 129.195312 C 142.101562 129.078125 142.578125 128.003906 143.554688 128.003906 C 143.941406 128.003906 144.039062 128.308594 144.039062 128.632812 C 144.039062 129.140625 143.664062 130.164062 143.484375 130.640625 C 143.402344 130.855469 143.367188 130.953125 143.367188 131.132812 C 143.367188 131.554688 143.679688 131.867188 144.101562 131.867188 C 144.945312 131.867188 145.277344 130.558594 145.277344 130.488281 C 145.277344 130.398438 145.195312 130.398438 145.167969 130.398438 C 145.078125 130.398438 145.078125 130.425781 145.035156 130.558594 C 144.902344 131.035156 144.613281 131.671875 144.121094 131.671875 C 143.96875 131.671875 143.90625 131.582031 143.90625 131.375 C 143.90625 131.152344 143.984375 130.933594 144.066406 130.738281 C 144.238281 130.273438 144.613281 129.277344 144.613281 128.765625 C 144.613281 128.183594 144.253906 127.804688 143.582031 127.804688 C 142.910156 127.804688 142.453125 128.199219 142.121094 128.675781 C 142.113281 128.558594 142.085938 128.253906 141.835938 128.039062 C 141.609375 127.851562 141.324219 127.804688 141.097656 127.804688 C 140.292969 127.804688 139.851562 128.378906 139.699219 128.585938 C 139.65625 128.074219 139.277344 127.804688 138.875 127.804688 C 138.460938 127.804688 138.292969 128.15625 138.210938 128.316406 C 138.050781 128.632812 137.933594 129.160156 137.933594 129.1875 C 137.933594 129.277344 138.023438 129.277344 138.042969 129.277344 C 138.132812 129.277344 138.140625 129.269531 138.195312 129.070312 C 138.347656 128.433594 138.527344 128.003906 138.847656 128.003906 C 138.992188 128.003906 139.125 128.074219 139.125 128.414062 C 139.125 128.605469 139.097656 128.703125 138.984375 129.167969 Z M 138.460938 131.242188 "/>
</g>
<g clip-path="url(#clip7)" clip-rule="nonzero">
<path style=" stroke:none;fill-rule:nonzero;fill:rgb(0%,0%,0%);fill-opacity:1;" d="M 148.714844 131.972656 L 148.503906 131.972656 C 148.484375 132.109375 148.421875 132.480469 148.339844 132.542969 C 148.289062 132.582031 147.804688 132.582031 147.71875 132.582031 L 146.5625 132.582031 C 147.222656 131.996094 147.441406 131.820312 147.816406 131.527344 C 148.28125 131.15625 148.714844 130.765625 148.714844 130.171875 C 148.714844 129.410156 148.050781 128.949219 147.246094 128.949219 C 146.46875 128.949219 145.941406 129.492188 145.941406 130.070312 C 145.941406 130.390625 146.210938 130.421875 146.273438 130.421875 C 146.425781 130.421875 146.605469 130.316406 146.605469 130.089844 C 146.605469 129.976562 146.5625 129.757812 146.238281 129.757812 C 146.429688 129.3125 146.859375 129.171875 147.152344 129.171875 C 147.78125 129.171875 148.105469 129.664062 148.105469 130.171875 C 148.105469 130.71875 147.71875 131.148438 147.515625 131.375 L 146.003906 132.871094 C 145.941406 132.925781 145.941406 132.9375 145.941406 133.113281 L 148.527344 133.113281 Z M 148.714844 131.972656 "/>
</g>
<path style=" stroke:none;fill-rule:nonzero;fill:rgb(0%,0%,0%);fill-opacity:1;" d="M 151.546875 72.3125 C 149.417969 72.3125 147.691406 70.585938 147.691406 68.457031 C 147.691406 66.328125 149.417969 64.605469 151.546875 64.605469 C 153.675781 64.605469 155.398438 66.328125 155.398438 68.457031 C 155.398438 70.585938 153.675781 72.3125 151.546875 72.3125 Z M 151.546875 72.3125 "/>
<path style=" stroke:none;fill-rule:nonzero;fill:rgb(0%,0%,0%);fill-opacity:1;" d="M 155.929688 73.769531 C 155.902344 73.90625 155.847656 74.109375 155.847656 74.15625 C 155.847656 74.316406 155.972656 74.398438 156.105469 74.398438 C 156.214844 74.398438 156.375 74.324219 156.4375 74.148438 C 156.449219 74.128906 156.554688 73.707031 156.609375 73.484375 L 156.808594 72.675781 C 156.859375 72.480469 156.914062 72.28125 156.960938 72.074219 C 156.996094 71.921875 157.066406 71.664062 157.074219 71.628906 C 157.210938 71.347656 157.683594 70.53125 158.539062 70.53125 C 158.941406 70.53125 159.019531 70.863281 159.019531 71.160156 C 159.019531 71.386719 158.957031 71.636719 158.886719 71.90625 L 158.636719 72.945312 L 158.457031 73.625 C 158.421875 73.804688 158.339844 74.109375 158.339844 74.15625 C 158.339844 74.316406 158.464844 74.398438 158.601562 74.398438 C 158.878906 74.398438 158.933594 74.171875 159.003906 73.886719 C 159.128906 73.382812 159.460938 72.074219 159.542969 71.726562 C 159.566406 71.609375 160.042969 70.53125 161.019531 70.53125 C 161.40625 70.53125 161.503906 70.839844 161.503906 71.160156 C 161.503906 71.671875 161.128906 72.695312 160.949219 73.167969 C 160.867188 73.382812 160.832031 73.484375 160.832031 73.664062 C 160.832031 74.082031 161.144531 74.398438 161.566406 74.398438 C 162.410156 74.398438 162.742188 73.089844 162.742188 73.015625 C 162.742188 72.925781 162.660156 72.925781 162.636719 72.925781 C 162.546875 72.925781 162.546875 72.953125 162.5 73.089844 C 162.367188 73.5625 162.078125 74.199219 161.585938 74.199219 C 161.433594 74.199219 161.371094 74.109375 161.371094 73.90625 C 161.371094 73.679688 161.453125 73.464844 161.53125 73.269531 C 161.703125 72.800781 162.078125 71.804688 162.078125 71.296875 C 162.078125 70.710938 161.71875 70.335938 161.046875 70.335938 C 160.375 70.335938 159.917969 70.730469 159.585938 71.207031 C 159.578125 71.089844 159.550781 70.785156 159.300781 70.570312 C 159.074219 70.378906 158.789062 70.335938 158.5625 70.335938 C 157.757812 70.335938 157.316406 70.910156 157.164062 71.117188 C 157.121094 70.605469 156.742188 70.335938 156.339844 70.335938 C 155.929688 70.335938 155.757812 70.6875 155.675781 70.847656 C 155.515625 71.160156 155.398438 71.691406 155.398438 71.714844 C 155.398438 71.804688 155.488281 71.804688 155.507812 71.804688 C 155.597656 71.804688 155.605469 71.796875 155.660156 71.601562 C 155.8125 70.964844 155.992188 70.53125 156.3125 70.53125 C 156.457031 70.53125 156.589844 70.605469 156.589844 70.945312 C 156.589844 71.132812 156.566406 71.234375 156.449219 71.699219 Z M 155.929688 73.769531 "/>
<path style=" stroke:none;fill-rule:nonzero;fill:rgb(0%,0%,0%);fill-opacity:1;" d="M 165.113281 71.652344 C 165.113281 71.484375 165.101562 71.476562 164.925781 71.476562 C 164.523438 71.871094 163.953125 71.878906 163.695312 71.878906 L 163.695312 72.105469 C 163.847656 72.105469 164.261719 72.105469 164.605469 71.929688 L 164.605469 75.128906 C 164.605469 75.335938 164.605469 75.417969 163.976562 75.417969 L 163.738281 75.417969 L 163.738281 75.644531 C 163.851562 75.636719 164.625 75.621094 164.855469 75.621094 C 165.050781 75.621094 165.84375 75.636719 165.980469 75.644531 L 165.980469 75.417969 L 165.742188 75.417969 C 165.113281 75.417969 165.113281 75.335938 165.113281 75.128906 Z M 165.113281 71.652344 "/>
<path style=" stroke:none;fill-rule:nonzero;fill:rgb(0%,0%,0%);fill-opacity:1;" d="M 127.578125 91.800781 C 127.550781 91.910156 127.550781 91.925781 127.550781 91.945312 C 127.550781 92.078125 127.652344 92.1875 127.804688 92.1875 C 127.992188 92.1875 128.097656 92.027344 128.117188 92 C 128.164062 91.917969 128.449219 90.714844 128.691406 89.75 C 128.871094 90.105469 129.15625 90.347656 129.578125 90.347656 C 130.628906 90.347656 131.785156 89.085938 131.785156 87.75 C 131.785156 86.796875 131.191406 86.285156 130.539062 86.285156 C 129.667969 86.285156 128.726562 87.183594 128.457031 88.277344 Z M 129.570312 90.152344 C 128.941406 90.152344 128.800781 89.433594 128.800781 89.355469 C 128.800781 89.316406 128.84375 89.136719 128.871094 89.023438 C 129.121094 88.015625 129.210938 87.695312 129.410156 87.335938 C 129.792969 86.679688 130.242188 86.484375 130.519531 86.484375 C 130.851562 86.484375 131.140625 86.746094 131.140625 87.363281 C 131.140625 87.855469 130.878906 88.859375 130.636719 89.300781 C 130.339844 89.863281 129.910156 90.152344 129.570312 90.152344 Z M 129.570312 90.152344 "/>
<path style=" stroke:none;fill-rule:nonzero;fill:rgb(0%,0%,0%);fill-opacity:1;" d="M 135.089844 90.453125 L 134.875 90.453125 C 134.855469 90.589844 134.792969 90.960938 134.710938 91.023438 C 134.664062 91.0625 134.179688 91.0625 134.089844 91.0625 L 132.9375 91.0625 C 133.59375 90.476562 133.816406 90.304688 134.191406 90.007812 C 134.65625 89.636719 135.089844 89.25 135.089844 88.652344 C 135.089844 87.894531 134.421875 87.429688 133.621094 87.429688 C 132.84375 87.429688 132.316406 87.972656 132.316406 88.550781 C 132.316406 88.871094 132.585938 88.902344 132.648438 88.902344 C 132.796875 88.902344 132.980469 88.796875 132.980469 88.570312 C 132.980469 88.457031 132.9375 88.238281 132.609375 88.238281 C 132.804688 87.792969 133.230469 87.652344 133.527344 87.652344 C 134.152344 87.652344 134.480469 88.144531 134.480469 88.652344 C 134.480469 89.199219 134.089844 89.632812 133.890625 89.855469 L 132.378906 91.351562 C 132.316406 91.40625 132.316406 91.421875 132.316406 91.59375 L 134.902344 91.59375 Z M 135.089844 90.453125 "/>
<path style=" stroke:none;fill-rule:nonzero;fill:rgb(0%,0%,0%);fill-opacity:1;" d="M 147.90625 35 C 147.878906 35.109375 147.878906 35.125 147.878906 35.144531 C 147.878906 35.277344 147.976562 35.386719 148.128906 35.386719 C 148.316406 35.386719 148.425781 35.226562 148.441406 35.199219 C 148.488281 35.117188 148.773438 33.914062 149.015625 32.949219 C 149.195312 33.304688 149.484375 33.546875 149.90625 33.546875 C 150.953125 33.546875 152.109375 32.285156 152.109375 30.949219 C 152.109375 29.996094 151.519531 29.488281 150.863281 29.488281 C 149.996094 29.488281 149.054688 30.382812 148.785156 31.476562 Z M 149.894531 33.351562 C 149.269531 33.351562 149.125 32.632812 149.125 32.554688 C 149.125 32.515625 149.167969 32.339844 149.195312 32.222656 C 149.449219 31.21875 149.535156 30.894531 149.734375 30.535156 C 150.121094 29.882812 150.566406 29.683594 150.847656 29.683594 C 151.179688 29.683594 151.464844 29.945312 151.464844 30.5625 C 151.464844 31.054688 151.203125 32.058594 150.960938 32.5 C 150.667969 33.0625 150.234375 33.351562 149.894531 33.351562 Z M 149.894531 33.351562 "/>
<path style=" stroke:none;fill-rule:nonzero;fill:rgb(0%,0%,0%);fill-opacity:1;" d="M 154.347656 30.804688 C 154.347656 30.632812 154.335938 30.628906 154.160156 30.628906 C 153.757812 31.023438 153.1875 31.03125 152.929688 31.03125 L 152.929688 31.253906 C 153.078125 31.253906 153.492188 31.253906 153.839844 31.078125 L 153.839844 34.28125 C 153.839844 34.488281 153.839844 34.570312 153.210938 34.570312 L 152.972656 34.570312 L 152.972656 34.796875 C 153.085938 34.789062 153.859375 34.769531 154.089844 34.769531 C 154.285156 34.769531 155.074219 34.789062 155.214844 34.796875 L 155.214844 34.570312 L 154.976562 34.570312 C 154.347656 34.570312 154.347656 34.488281 154.347656 34.28125 Z M 154.347656 30.804688 "/>
</g>
</svg>
