<?xml version="1.0" encoding="UTF-8"?>
<svg xmlns="http://www.w3.org/2000/svg" xmlns:xlink="http://www.w3.org/1999/xlink" width="167.2441pt" height="138.8976pt" viewBox="0 0 167.2441 138.8976" version="1.1">
<defs>
<clipPath id="clip1">
  <path d="M 0 0 L 167.242188 0 L 167.242188 138.898438 L 0 138.898438 Z M 0 0 "/>
</clipPath>
<clipPath id="clip3">
  <path d="M 0 0 L 167.242188 0 L 167.242188 138.898438 L 0 138.898438 Z M 0 0 "/>
</clipPath>
<clipPath id="clip2">
  <rect x="0" y="0" width="168" height="139"/>
</clipPath>
<g id="surface5" clip-path="url(#clip2)">
<g clip-path="url(#clip3)" clip-rule="nonzero">
<path style=" stroke:none;fill-rule:nonzero;fill:rgb(100%,100%,100%);fill-opacity:1;" d="M 0 0 L 167.242188 0 L 167.242188 138.898438 L 0 138.898438 Z M 0 0 "/>
</g>
</g>
<clipPath id="clip4">
  <path d="M 89 80.640625 L 94.773438 80.640625 L 94.773438 89.4375 L 89 89.4375 Z M 89 80.640625 "/>
</clipPath>
</defs>
<g id="surface1">
<g clip-path="url(#clip1)" clip-rule="nonzero">
<use xlink:href="#surface5"/>
</g>
<path style="fill:none;stroke-width:0.5;stroke-linecap:butt;stroke-linejoin:miter;stroke:rgb(0%,0%,0%);stroke-opacity:1;stroke-miterlimit:4;" d="M 5.1875 127.4375 L 160.574219 127.4375 L 160.574219 132.265625 L 5.1875 132.265625 Z M 5.1875 127.4375 "/>
<path style="fill:none;stroke-width:0.5;stroke-linecap:butt;stroke-linejoin:miter;stroke:rgb(0%,0%,0%);stroke-opacity:1;stroke-dasharray:1.5,1;stroke-miterlimit:4;" d="M 80.402344 127.4375 L 152.613281 23.925781 "/>
<path style="fill:none;stroke-width:1;stroke-linecap:round;stroke-linejoin:round;stroke:rgb(0%,0%,0%);stroke-opacity:1;stroke-miterlimit:4;" d="M 80.402344 127.4375 C 98.65625 99.394531 96.363281 64.671875 103.144531 34.382812 "/>
<path style="fill:none;stroke-width:1;stroke-linecap:round;stroke-linejoin:round;stroke:rgb(0%,0%,0%);stroke-opacity:1;stroke-miterlimit:4;" d="M 80.402344 127.4375 C 100.511719 100.695312 133.921875 90.972656 160.066406 74.238281 "/>
<path style="fill:none;stroke-width:1;stroke-linecap:butt;stroke-linejoin:miter;stroke:rgb(0%,0%,0%);stroke-opacity:1;stroke-miterlimit:4;" d="M 128.285156 59.054688 C 112.566406 48.046875 101.433594 36.824219 103.421875 33.988281 C 105.410156 31.148438 119.761719 37.769531 135.480469 48.777344 C 151.199219 59.78125 162.332031 71.003906 160.34375 73.84375 C 158.355469 76.679688 144.003906 70.058594 128.285156 59.054688 Z M 128.285156 59.054688 "/>
<path style="fill:none;stroke-width:0.5;stroke-linecap:butt;stroke-linejoin:miter;stroke:rgb(0%,0%,0%);stroke-opacity:1;stroke-dasharray:1.5,1;stroke-miterlimit:4;" d="M 80.402344 127.4375 L 80.402344 19.597656 "/>
<path style="fill:none;stroke-width:0.5;stroke-linecap:butt;stroke-linejoin:miter;stroke:rgb(0%,0%,0%);stroke-opacity:1;stroke-dasharray:1.5,1;stroke-miterlimit:4;" d="M 80.402344 63.621094 C 93.28125 63.621094 105.863281 67.519531 116.484375 74.800781 "/>
<path style="fill:none;stroke-width:0.5;stroke-linecap:butt;stroke-linejoin:miter;stroke:rgb(0%,0%,0%);stroke-opacity:1;stroke-dasharray:1.5,1;stroke-miterlimit:4;" d="M 93.890625 21.722656 C 90.34375 23.082031 85.613281 23.890625 80.574219 23.925781 C 73.292969 23.972656 66.53125 22.402344 62.957031 19.832031 "/>
<path style="fill-rule:nonzero;fill:rgb(0%,0%,0%);fill-opacity:1;stroke-width:0.5;stroke-linecap:butt;stroke-linejoin:miter;stroke:rgb(0%,0%,0%);stroke-opacity:1;stroke-miterlimit:4;" d="M 94.601562 23.042969 L 97.414062 19.828125 L 93.179688 20.398438 Z M 94.601562 23.042969 "/>
<path style="fill:none;stroke-width:0.5;stroke-linecap:butt;stroke-linejoin:miter;stroke:rgb(0%,0%,0%);stroke-opacity:1;stroke-dasharray:1.5,1;stroke-miterlimit:4;" d="M 159.742188 36.75 C 156.058594 35.832031 151.71875 33.78125 147.570312 30.914062 C 141.578125 26.78125 136.941406 21.613281 135.488281 17.460938 "/>
<path style="fill-rule:nonzero;fill:rgb(0%,0%,0%);fill-opacity:1;stroke-width:0.5;stroke-linecap:butt;stroke-linejoin:miter;stroke:rgb(0%,0%,0%);stroke-opacity:1;stroke-miterlimit:4;" d="M 159.566406 38.238281 L 163.714844 37.21875 L 159.917969 35.261719 Z M 159.566406 38.238281 "/>
<g clip-path="url(#clip4)" clip-rule="nonzero">
<path style=" stroke:none;fill-rule:nonzero;fill:rgb(0%,0%,0%);fill-opacity:1;" d="M 94.335938 83.078125 C 94.335938 82.289062 94.117188 80.628906 92.898438 80.628906 C 91.238281 80.628906 89.398438 84 89.398438 86.734375 C 89.398438 87.859375 89.742188 89.1875 90.832031 89.1875 C 92.515625 89.1875 94.335938 85.753906 94.335938 83.078125 Z M 90.664062 84.714844 C 90.867188 83.949219 91.105469 82.992188 91.585938 82.144531 C 91.90625 81.558594 92.347656 80.890625 92.886719 80.890625 C 93.472656 80.890625 93.546875 81.65625 93.546875 82.335938 C 93.546875 82.921875 93.449219 83.53125 93.164062 84.714844 Z M 93.054688 85.097656 C 92.921875 85.648438 92.671875 86.664062 92.21875 87.523438 C 91.800781 88.339844 91.34375 88.921875 90.832031 88.921875 C 90.4375 88.921875 90.1875 88.578125 90.1875 87.464844 C 90.1875 86.964844 90.257812 86.269531 90.566406 85.097656 Z M 93.054688 85.097656 "/>
</g>
<path style=" stroke:none;fill-rule:nonzero;fill:rgb(0%,0%,0%);fill-opacity:1;" d="M 84.386719 9.136719 C 84.386719 9.113281 84.421875 8.980469 84.421875 8.96875 C 84.421875 8.957031 84.421875 8.847656 84.28125 8.847656 C 84.160156 8.847656 84.148438 8.882812 84.101562 9.089844 L 83.40625 11.847656 C 81.507812 11.910156 79.75 13.5 79.75 15.125 C 79.75 16.261719 80.585938 17.207031 82.042969 17.289062 C 81.949219 17.660156 81.863281 18.042969 81.769531 18.414062 C 81.625 18.976562 81.507812 19.429688 81.507812 19.464844 C 81.507812 19.585938 81.589844 19.597656 81.648438 19.597656 C 81.710938 19.597656 81.734375 19.585938 81.769531 19.546875 C 81.792969 19.523438 81.863281 19.238281 81.902344 19.070312 L 82.355469 17.289062 C 84.28125 17.230469 86.011719 15.617188 86.011719 14.011719 C 86.011719 13.070312 85.378906 11.96875 83.71875 11.847656 Z M 82.105469 17.027344 C 81.386719 16.992188 80.527344 16.570312 80.527344 15.375 C 80.527344 13.941406 81.554688 12.269531 83.335938 12.113281 Z M 83.644531 12.113281 C 84.554688 12.160156 85.234375 12.710938 85.234375 13.761719 C 85.234375 15.171875 84.207031 16.882812 82.414062 17.027344 Z M 83.644531 12.113281 "/>
<path style=" stroke:none;fill-rule:nonzero;fill:rgb(0%,0%,0%);fill-opacity:1;" d="M 157.917969 16.65625 C 158.046875 16.523438 158.046875 16.5 158.046875 16.464844 C 158.046875 16.394531 158 16.320312 157.902344 16.320312 C 157.832031 16.320312 157.785156 16.382812 157.714844 16.464844 L 154.976562 19.515625 C 154.496094 17.996094 154.402344 17.695312 154.125 17.0625 C 153.996094 16.789062 153.730469 16.191406 152.679688 16.191406 C 151.988281 16.191406 151.675781 16.8125 151.675781 16.980469 C 151.675781 16.992188 151.675781 17.097656 151.820312 17.097656 C 151.925781 17.097656 151.949219 17.027344 151.972656 16.96875 C 152.152344 16.5 152.535156 16.453125 152.609375 16.453125 C 152.964844 16.453125 153.324219 17.363281 153.527344 17.886719 C 153.910156 18.832031 154.292969 20.21875 154.292969 20.253906 C 154.292969 20.265625 154.292969 20.289062 154.199219 20.386719 L 151.449219 23.457031 C 151.316406 23.589844 151.316406 23.613281 151.316406 23.648438 C 151.316406 23.722656 151.386719 23.792969 151.460938 23.792969 C 151.542969 23.792969 151.605469 23.710938 151.652344 23.660156 L 154.390625 20.589844 C 154.773438 21.832031 154.914062 22.300781 155.203125 22.96875 C 155.359375 23.328125 155.621094 23.925781 156.683594 23.925781 C 157.378906 23.925781 157.699219 23.304688 157.699219 23.148438 C 157.699219 23.089844 157.675781 23.015625 157.558594 23.015625 C 157.4375 23.015625 157.425781 23.0625 157.390625 23.183594 C 157.28125 23.472656 156.984375 23.660156 156.757812 23.660156 C 156.148438 23.660156 155.332031 20.769531 155.070312 19.847656 Z M 157.917969 16.65625 "/>
</g>
</svg>
