<?xml version="1.0" encoding="UTF-8"?>
<svg xmlns="http://www.w3.org/2000/svg" xmlns:xlink="http://www.w3.org/1999/xlink" width="243.7795pt" height="162.9921pt" viewBox="0 0 243.7795 162.9921" version="1.1">
<defs>
<clipPath id="clip2">
  <path d="M 0 0 L 243.78125 0 L 243.78125 162.992188 L 0 162.992188 Z M 0 0 "/>
</clipPath>
<clipPath id="clip1">
  <rect x="0" y="0" width="244" height="163"/>
</clipPath>
<g id="surface5" clip-path="url(#clip1)">
<g clip-path="url(#clip2)" clip-rule="nonzero">
<path style=" stroke:none;fill-rule:nonzero;fill:rgb(100%,100%,100%);fill-opacity:1;" d="M 0 0 L 243.78125 0 L 243.78125 162.992188 L 0 162.992188 Z M 0 0 "/>
</g>
</g>
<clipPath id="clip3">
  <path d="M 52 83 L 133 83 L 133 162.992188 L 52 162.992188 Z M 52 83 "/>
</clipPath>
</defs>
<g id="surface1">
<use xlink:href="#surface5"/>
<path style="fill:none;stroke-width:1;stroke-linecap:butt;stroke-linejoin:miter;stroke:rgb(0%,0%,0%);stroke-opacity:1;stroke-miterlimit:4;" d="M 35.890625 89.433594 L 207.890625 89.433594 "/>
<g clip-path="url(#clip3)" clip-rule="nonzero">
<path style="fill:none;stroke-width:1;stroke-linecap:butt;stroke-linejoin:miter;stroke:rgb(100%,0%,0%);stroke-opacity:1;stroke-miterlimit:4;" d="M 58.148438 156.742188 L 126.695312 89.433594 "/>
</g>
<path style="fill:none;stroke-width:1;stroke-linecap:butt;stroke-linejoin:miter;stroke:rgb(100%,0%,0%);stroke-opacity:1;stroke-miterlimit:4;" d="M 126.695312 89.433594 L 139.921875 11.839844 "/>
<path style="fill:none;stroke-width:1;stroke-linecap:butt;stroke-linejoin:miter;stroke:rgb(0%,0%,0%);stroke-opacity:1;stroke-dasharray:3,2;stroke-miterlimit:4;" d="M 126.695312 32.882812 L 126.695312 141.710938 "/>
<path style="fill:none;stroke-width:1;stroke-linecap:butt;stroke-linejoin:miter;stroke:rgb(0%,0%,0%);stroke-opacity:1;stroke-miterlimit:4;" d="M 126.695312 120.160156 C 118.527344 120.160156 110.695312 116.90625 104.933594 111.125 "/>
<path style="fill:none;stroke-width:1;stroke-linecap:butt;stroke-linejoin:miter;stroke:rgb(0%,0%,0%);stroke-opacity:1;stroke-miterlimit:4;" d="M 126.695312 50.132812 C 129.03125 50.132812 131.367188 50.34375 133.667969 50.757812 "/>
<path style=" stroke:none;fill-rule:nonzero;fill:rgb(0%,0%,0%);fill-opacity:1;" d="M 51.671875 160.226562 C 51.191406 161.03125 50.726562 161.195312 50.199219 161.234375 C 50.054688 161.246094 49.949219 161.246094 49.949219 161.472656 C 49.949219 161.542969 50.007812 161.601562 50.105469 161.601562 C 50.425781 161.601562 50.796875 161.566406 51.132812 161.566406 C 51.527344 161.566406 51.945312 161.601562 52.328125 161.601562 C 52.398438 161.601562 52.554688 161.601562 52.554688 161.375 C 52.554688 161.246094 52.445312 161.234375 52.363281 161.234375 C 52.089844 161.207031 51.800781 161.113281 51.800781 160.8125 C 51.800781 160.671875 51.875 160.539062 51.96875 160.371094 L 52.878906 158.839844 L 55.878906 158.839844 C 55.902344 159.09375 56.070312 160.71875 56.070312 160.839844 C 56.070312 161.195312 55.449219 161.234375 55.207031 161.234375 C 55.042969 161.234375 54.921875 161.234375 54.921875 161.472656 C 54.921875 161.601562 55.066406 161.601562 55.089844 161.601562 C 55.578125 161.601562 56.09375 161.566406 56.582031 161.566406 C 56.882812 161.566406 57.636719 161.601562 57.933594 161.601562 C 58.007812 161.601562 58.148438 161.601562 58.148438 161.363281 C 58.148438 161.234375 58.03125 161.234375 57.875 161.234375 C 57.132812 161.234375 57.132812 161.148438 57.097656 160.800781 L 56.367188 153.332031 C 56.34375 153.089844 56.34375 153.042969 56.140625 153.042969 C 55.949219 153.042969 55.902344 153.128906 55.832031 153.246094 Z M 53.105469 158.472656 L 55.460938 154.527344 L 55.84375 158.472656 Z M 53.105469 158.472656 "/>
<path style=" stroke:none;fill-rule:nonzero;fill:rgb(0%,0%,0%);fill-opacity:1;" d="M 142.175781 10.90625 C 142.054688 11.371094 142.03125 11.46875 141.085938 11.46875 C 140.882812 11.46875 140.765625 11.46875 140.765625 11.707031 C 140.765625 11.839844 140.871094 11.839844 141.085938 11.839844 L 145.355469 11.839844 C 147.246094 11.839844 148.65625 10.429688 148.65625 9.257812 C 148.65625 8.394531 147.960938 7.703125 146.800781 7.570312 C 148.046875 7.34375 149.300781 6.460938 149.300781 5.324219 C 149.300781 4.4375 148.511719 3.675781 147.078125 3.675781 L 143.058594 3.675781 C 142.832031 3.675781 142.714844 3.675781 142.714844 3.914062 C 142.714844 4.042969 142.820312 4.042969 143.046875 4.042969 C 143.070312 4.042969 143.300781 4.042969 143.503906 4.070312 C 143.71875 4.09375 143.824219 4.105469 143.824219 4.257812 C 143.824219 4.308594 143.8125 4.34375 143.777344 4.488281 Z M 143.980469 7.464844 L 144.722656 4.5 C 144.828125 4.082031 144.851562 4.042969 145.367188 4.042969 L 146.910156 4.042969 C 147.960938 4.042969 148.210938 4.75 148.210938 5.277344 C 148.210938 6.328125 147.183594 7.464844 145.726562 7.464844 Z M 143.441406 11.46875 C 143.273438 11.46875 143.25 11.46875 143.179688 11.457031 C 143.058594 11.445312 143.023438 11.433594 143.023438 11.335938 C 143.023438 11.300781 143.023438 11.277344 143.085938 11.0625 L 143.910156 7.726562 L 146.167969 7.726562 C 147.316406 7.726562 147.542969 8.613281 147.542969 9.125 C 147.542969 10.308594 146.480469 11.46875 145.070312 11.46875 Z M 143.441406 11.46875 "/>
<path style=" stroke:none;fill-rule:nonzero;fill:rgb(0%,0%,0%);fill-opacity:1;" d="M 171.359375 133.660156 C 171.320312 133.839844 171.25 134.117188 171.25 134.175781 C 171.25 134.390625 171.417969 134.5 171.597656 134.5 C 171.738281 134.5 171.957031 134.402344 172.039062 134.164062 C 172.050781 134.140625 172.195312 133.578125 172.265625 133.277344 L 172.527344 132.203125 C 172.601562 131.941406 172.671875 131.675781 172.730469 131.402344 C 172.78125 131.199219 172.875 130.851562 172.886719 130.804688 C 173.066406 130.433594 173.699219 129.34375 174.835938 129.34375 C 175.375 129.34375 175.480469 129.789062 175.480469 130.183594 C 175.480469 130.921875 174.894531 132.453125 174.703125 132.96875 C 174.597656 133.242188 174.585938 133.386719 174.585938 133.519531 C 174.585938 134.078125 175.003906 134.5 175.566406 134.5 C 176.691406 134.5 177.132812 132.753906 177.132812 132.65625 C 177.132812 132.539062 177.023438 132.539062 176.988281 132.539062 C 176.867188 132.539062 176.867188 132.574219 176.808594 132.753906 C 176.570312 133.566406 176.175781 134.234375 175.589844 134.234375 C 175.386719 134.234375 175.300781 134.117188 175.300781 133.839844 C 175.300781 133.542969 175.410156 133.253906 175.519531 132.992188 C 175.746094 132.359375 176.246094 131.042969 176.246094 130.363281 C 176.246094 129.5625 175.734375 129.082031 174.871094 129.082031 C 173.796875 129.082031 173.210938 129.847656 173.007812 130.121094 C 172.949219 129.453125 172.457031 129.082031 171.90625 129.082031 C 171.359375 129.082031 171.128906 129.546875 171.011719 129.765625 C 170.820312 130.171875 170.652344 130.875 170.652344 130.921875 C 170.652344 131.042969 170.773438 131.042969 170.796875 131.042969 C 170.914062 131.042969 170.925781 131.03125 171 130.769531 C 171.203125 129.917969 171.441406 129.34375 171.871094 129.34375 C 172.109375 129.34375 172.242188 129.5 172.242188 129.894531 C 172.242188 130.144531 172.207031 130.277344 172.050781 130.898438 Z M 171.359375 133.660156 "/>
<path style=" stroke:none;fill-rule:nonzero;fill:rgb(0%,0%,0%);fill-opacity:1;" d="M 180.285156 130.839844 C 180.285156 130.613281 180.269531 130.605469 180.035156 130.605469 C 179.5 131.132812 178.738281 131.140625 178.394531 131.140625 L 178.394531 131.441406 C 178.59375 131.441406 179.148438 131.441406 179.605469 131.207031 L 179.605469 135.472656 C 179.605469 135.75 179.605469 135.859375 178.769531 135.859375 L 178.453125 135.859375 L 178.453125 136.160156 C 178.601562 136.152344 179.632812 136.128906 179.941406 136.128906 C 180.203125 136.128906 181.253906 136.152344 181.441406 136.160156 L 181.441406 135.859375 L 181.121094 135.859375 C 180.285156 135.859375 180.285156 135.75 180.285156 135.472656 Z M 180.285156 130.839844 "/>
<path style=" stroke:none;fill-rule:nonzero;fill:rgb(0%,0%,0%);fill-opacity:1;" d="M 187.105469 29.132812 C 187.066406 29.3125 186.996094 29.585938 186.996094 29.648438 C 186.996094 29.863281 187.164062 29.96875 187.34375 29.96875 C 187.488281 29.96875 187.703125 29.875 187.785156 29.636719 C 187.796875 29.613281 187.941406 29.050781 188.011719 28.75 L 188.277344 27.675781 C 188.347656 27.410156 188.417969 27.148438 188.480469 26.875 C 188.527344 26.671875 188.621094 26.324219 188.632812 26.277344 C 188.8125 25.90625 189.445312 24.816406 190.582031 24.816406 C 191.121094 24.816406 191.226562 25.257812 191.226562 25.652344 C 191.226562 26.394531 190.644531 27.925781 190.453125 28.441406 C 190.34375 28.714844 190.332031 28.859375 190.332031 28.988281 C 190.332031 29.550781 190.75 29.96875 191.3125 29.96875 C 192.4375 29.96875 192.878906 28.222656 192.878906 28.128906 C 192.878906 28.007812 192.769531 28.007812 192.734375 28.007812 C 192.617188 28.007812 192.617188 28.046875 192.554688 28.222656 C 192.316406 29.039062 191.921875 29.707031 191.335938 29.707031 C 191.132812 29.707031 191.050781 29.585938 191.050781 29.3125 C 191.050781 29.011719 191.15625 28.726562 191.265625 28.464844 C 191.492188 27.828125 191.992188 26.515625 191.992188 25.832031 C 191.992188 25.03125 191.480469 24.554688 190.617188 24.554688 C 189.542969 24.554688 188.957031 25.320312 188.753906 25.59375 C 188.695312 24.925781 188.203125 24.554688 187.652344 24.554688 C 187.105469 24.554688 186.875 25.019531 186.757812 25.234375 C 186.566406 25.640625 186.398438 26.347656 186.398438 26.394531 C 186.398438 26.515625 186.519531 26.515625 186.542969 26.515625 C 186.660156 26.515625 186.671875 26.503906 186.746094 26.238281 C 186.949219 25.390625 187.1875 24.816406 187.617188 24.816406 C 187.855469 24.816406 187.988281 24.972656 187.988281 25.367188 C 187.988281 25.617188 187.953125 25.75 187.796875 26.371094 Z M 187.105469 29.132812 "/>
<path style=" stroke:none;fill-rule:nonzero;fill:rgb(0%,0%,0%);fill-opacity:1;" d="M 197.453125 30.109375 L 197.167969 30.109375 C 197.144531 30.292969 197.0625 30.789062 196.953125 30.871094 C 196.886719 30.921875 196.242188 30.921875 196.125 30.921875 L 194.582031 30.921875 C 195.460938 30.144531 195.753906 29.910156 196.257812 29.515625 C 196.875 29.023438 197.453125 28.503906 197.453125 27.707031 C 197.453125 26.695312 196.566406 26.074219 195.496094 26.074219 C 194.457031 26.074219 193.753906 26.804688 193.753906 27.574219 C 193.753906 28 194.113281 28.042969 194.199219 28.042969 C 194.398438 28.042969 194.640625 27.898438 194.640625 27.597656 C 194.640625 27.449219 194.582031 27.15625 194.148438 27.15625 C 194.40625 26.5625 194.976562 26.378906 195.371094 26.378906 C 196.207031 26.378906 196.640625 27.03125 196.640625 27.707031 C 196.640625 28.4375 196.125 29.011719 195.855469 29.3125 L 193.839844 31.304688 C 193.753906 31.382812 193.753906 31.398438 193.753906 31.632812 L 197.203125 31.632812 Z M 197.453125 30.109375 "/>
<path style=" stroke:none;fill-rule:nonzero;fill:rgb(0%,0%,0%);fill-opacity:1;" d="M 113.226562 122.609375 C 113.226562 121.820312 113.011719 120.160156 111.792969 120.160156 C 110.128906 120.160156 108.289062 123.53125 108.289062 126.265625 C 108.289062 127.390625 108.636719 128.71875 109.722656 128.71875 C 111.410156 128.71875 113.226562 125.285156 113.226562 122.609375 Z M 109.558594 124.246094 C 109.761719 123.480469 110 122.523438 110.476562 121.675781 C 110.800781 121.089844 111.242188 120.421875 111.78125 120.421875 C 112.367188 120.421875 112.4375 121.1875 112.4375 121.867188 C 112.4375 122.453125 112.34375 123.0625 112.054688 124.246094 Z M 111.949219 124.628906 C 111.816406 125.179688 111.566406 126.195312 111.109375 127.054688 C 110.691406 127.871094 110.238281 128.457031 109.722656 128.457031 C 109.328125 128.457031 109.078125 128.109375 109.078125 126.996094 C 109.078125 126.496094 109.148438 125.800781 109.460938 124.628906 Z M 111.949219 124.628906 "/>
<path style=" stroke:none;fill-rule:nonzero;fill:rgb(0%,0%,0%);fill-opacity:1;" d="M 116.203125 125.058594 C 116.203125 124.832031 116.1875 124.824219 115.953125 124.824219 C 115.417969 125.351562 114.65625 125.359375 114.3125 125.359375 L 114.3125 125.660156 C 114.511719 125.660156 115.066406 125.660156 115.523438 125.425781 L 115.523438 129.695312 C 115.523438 129.96875 115.523438 130.078125 114.6875 130.078125 L 114.371094 130.078125 L 114.371094 130.378906 C 114.519531 130.371094 115.550781 130.347656 115.859375 130.347656 C 116.121094 130.347656 117.175781 130.371094 117.359375 130.378906 L 117.359375 130.078125 L 117.039062 130.078125 C 116.203125 130.078125 116.203125 129.96875 116.203125 129.695312 Z M 116.203125 125.058594 "/>
<path style=" stroke:none;fill-rule:nonzero;fill:rgb(0%,0%,0%);fill-opacity:1;" d="M 140.882812 52.585938 C 140.882812 51.796875 140.667969 50.132812 139.449219 50.132812 C 137.785156 50.132812 135.945312 53.503906 135.945312 56.242188 C 135.945312 57.367188 136.292969 58.695312 137.378906 58.695312 C 139.066406 58.695312 140.882812 55.261719 140.882812 52.585938 Z M 137.214844 54.222656 C 137.417969 53.457031 137.65625 52.5 138.132812 51.652344 C 138.457031 51.066406 138.898438 50.398438 139.4375 50.398438 C 140.023438 50.398438 140.09375 51.164062 140.09375 51.84375 C 140.09375 52.429688 140 53.039062 139.710938 54.222656 Z M 139.605469 54.605469 C 139.472656 55.15625 139.222656 56.171875 138.765625 57.03125 C 138.347656 57.84375 137.894531 58.429688 137.378906 58.429688 C 136.984375 58.429688 136.734375 58.085938 136.734375 56.972656 C 136.734375 56.46875 136.804688 55.777344 137.117188 54.605469 Z M 139.605469 54.605469 "/>
<path style=" stroke:none;fill-rule:nonzero;fill:rgb(0%,0%,0%);fill-opacity:1;" d="M 145.28125 58.832031 L 144.996094 58.832031 C 144.972656 59.019531 144.890625 59.511719 144.78125 59.59375 C 144.714844 59.644531 144.070312 59.644531 143.953125 59.644531 L 142.410156 59.644531 C 143.289062 58.867188 143.582031 58.632812 144.085938 58.238281 C 144.703125 57.746094 145.28125 57.226562 145.28125 56.433594 C 145.28125 55.417969 144.394531 54.800781 143.324219 54.800781 C 142.285156 54.800781 141.582031 55.527344 141.582031 56.296875 C 141.582031 56.726562 141.941406 56.765625 142.027344 56.765625 C 142.226562 56.765625 142.46875 56.625 142.46875 56.324219 C 142.46875 56.171875 142.410156 55.878906 141.976562 55.878906 C 142.234375 55.285156 142.804688 55.101562 143.199219 55.101562 C 144.035156 55.101562 144.46875 55.753906 144.46875 56.433594 C 144.46875 57.160156 143.953125 57.738281 143.683594 58.039062 L 141.667969 60.03125 C 141.582031 60.105469 141.582031 60.121094 141.582031 60.355469 L 145.03125 60.355469 Z M 145.28125 58.832031 "/>
</g>
</svg>
