<?xml version="1.0" encoding="UTF-8"?>
<svg xmlns="http://www.w3.org/2000/svg" xmlns:xlink="http://www.w3.org/1999/xlink" width="170.0787pt" height="114.8032pt" viewBox="0 0 170.0787 114.8032" version="1.1">
<defs>
<clipPath id="clip1">
  <path d="M 0 0 L 170.078125 0 L 170.078125 114.804688 L 0 114.804688 Z M 0 0 "/>
</clipPath>
<clipPath id="clip3">
  <path d="M 0 0 L 170.078125 0 L 170.078125 114.804688 L 0 114.804688 Z M 0 0 "/>
</clipPath>
<clipPath id="clip2">
  <rect x="0" y="0" width="171" height="115"/>
</clipPath>
<g id="surface5" clip-path="url(#clip2)">
<g clip-path="url(#clip3)" clip-rule="nonzero">
<path style=" stroke:none;fill-rule:nonzero;fill:rgb(100%,100%,100%);fill-opacity:1;" d="M 0 0 L 170.078125 0 L 170.078125 114.804688 L 0 114.804688 Z M 0 0 "/>
</g>
</g>
<clipPath id="clip4">
  <path d="M 71 90 L 97 90 L 97 114.804688 L 71 114.804688 Z M 71 90 "/>
</clipPath>
<clipPath id="clip5">
  <path d="M 102.246094 30.140625 L 108 30.140625 L 108 38.941406 L 102.246094 38.941406 Z M 102.246094 30.140625 "/>
</clipPath>
</defs>
<g id="surface1">
<g clip-path="url(#clip1)" clip-rule="nonzero">
<use xlink:href="#surface5"/>
</g>
<path style="fill:none;stroke-width:1;stroke-linecap:butt;stroke-linejoin:miter;stroke:rgb(100%,0%,0%);stroke-opacity:1;stroke-miterlimit:4;" d="M 83.921875 67.421875 L 83.921875 38.097656 "/>
<path style="fill-rule:nonzero;fill:rgb(100%,100%,100%);fill-opacity:1;stroke-width:0.5;stroke-linecap:butt;stroke-linejoin:miter;stroke:rgb(0%,0%,0%);stroke-opacity:1;stroke-miterlimit:4;" d="M 73.527344 5.164062 L 146.882812 6.421875 L 91.480469 67.421875 L 18.125 66.164062 Z M 84.695312 31.707031 C 82.878906 31.6875 81.058594 33.144531 80.632812 34.964844 C 80.203125 36.785156 81.332031 38.273438 83.148438 38.292969 C 84.96875 38.316406 86.789062 36.855469 87.214844 35.039062 C 87.640625 33.21875 86.511719 31.726562 84.695312 31.707031 Z M 84.695312 31.707031 "/>
<path style="fill:none;stroke-width:1;stroke-linecap:butt;stroke-linejoin:miter;stroke:rgb(3.921509%,0%,0%);stroke-opacity:1;stroke-miterlimit:4;" d="M 83.921875 67.421875 L 83.921875 96.335938 "/>
<path style="fill:none;stroke-width:1;stroke-linecap:butt;stroke-linejoin:miter;stroke:rgb(0.392151%,0.392151%,0.392151%);stroke-opacity:1;stroke-miterlimit:4;" d="M 83.921875 38.097656 L 83.921875 34.472656 L 110.101562 26.742188 "/>
<path style="fill:none;stroke-width:1;stroke-linecap:butt;stroke-linejoin:miter;stroke:rgb(3.921509%,0%,0%);stroke-opacity:1;stroke-miterlimit:4;" d="M 117.359375 31.289062 C 113.351562 31.289062 110.101562 28.039062 110.101562 24.03125 C 110.101562 20.023438 113.351562 16.777344 117.359375 16.777344 C 121.367188 16.777344 124.617188 20.023438 124.617188 24.03125 C 124.617188 28.039062 121.367188 31.289062 117.359375 31.289062 Z M 117.359375 31.289062 "/>
<g clip-path="url(#clip4)" clip-rule="nonzero">
<path style="fill:none;stroke-width:1;stroke-linecap:butt;stroke-linejoin:miter;stroke:rgb(3.921509%,0%,0%);stroke-opacity:1;stroke-miterlimit:4;" d="M 83.921875 110.847656 C 79.914062 110.847656 76.667969 107.601562 76.667969 103.59375 C 76.667969 99.585938 79.914062 96.335938 83.921875 96.335938 C 87.929688 96.335938 91.179688 99.585938 91.179688 103.59375 C 91.179688 107.601562 87.929688 110.847656 83.921875 110.847656 Z M 83.921875 110.847656 "/>
</g>
<path style=" stroke:none;fill-rule:nonzero;fill:rgb(0%,0%,0%);fill-opacity:1;" d="M 113.167969 25.902344 C 113.132812 26.082031 113.0625 26.359375 113.0625 26.417969 C 113.0625 26.632812 113.230469 26.742188 113.40625 26.742188 C 113.550781 26.742188 113.765625 26.644531 113.851562 26.40625 C 113.863281 26.382812 114.003906 25.820312 114.078125 25.519531 L 114.339844 24.445312 C 114.414062 24.183594 114.484375 23.917969 114.542969 23.644531 C 114.589844 23.441406 114.6875 23.09375 114.699219 23.046875 C 114.878906 22.675781 115.511719 21.589844 116.648438 21.589844 C 117.1875 21.589844 117.292969 22.03125 117.292969 22.425781 C 117.292969 22.722656 117.210938 23.058594 117.113281 23.417969 L 116.78125 24.804688 L 116.539062 25.710938 C 116.492188 25.953125 116.386719 26.359375 116.386719 26.417969 C 116.386719 26.632812 116.550781 26.742188 116.730469 26.742188 C 117.101562 26.742188 117.175781 26.441406 117.269531 26.058594 C 117.4375 25.390625 117.878906 23.644531 117.988281 23.179688 C 118.023438 23.023438 118.65625 21.589844 119.960938 21.589844 C 120.472656 21.589844 120.605469 21.996094 120.605469 22.425781 C 120.605469 23.105469 120.101562 24.46875 119.863281 25.101562 C 119.757812 25.390625 119.707031 25.519531 119.707031 25.761719 C 119.707031 26.324219 120.125 26.742188 120.6875 26.742188 C 121.8125 26.742188 122.253906 24.996094 122.253906 24.898438 C 122.253906 24.78125 122.148438 24.78125 122.109375 24.78125 C 121.992188 24.78125 121.992188 24.816406 121.933594 24.996094 C 121.753906 25.628906 121.371094 26.476562 120.710938 26.476562 C 120.507812 26.476562 120.425781 26.359375 120.425781 26.082031 C 120.425781 25.785156 120.535156 25.496094 120.640625 25.234375 C 120.867188 24.613281 121.371094 23.285156 121.371094 22.605469 C 121.371094 21.828125 120.890625 21.324219 119.996094 21.324219 C 119.097656 21.324219 118.488281 21.851562 118.046875 22.484375 C 118.035156 22.328125 118 21.921875 117.664062 21.636719 C 117.363281 21.386719 116.984375 21.324219 116.683594 21.324219 C 115.609375 21.324219 115.023438 22.089844 114.820312 22.363281 C 114.757812 21.683594 114.257812 21.324219 113.71875 21.324219 C 113.167969 21.324219 112.941406 21.792969 112.835938 22.007812 C 112.617188 22.425781 112.464844 23.128906 112.464844 23.167969 C 112.464844 23.285156 112.582031 23.285156 112.605469 23.285156 C 112.726562 23.285156 112.738281 23.273438 112.808594 23.011719 C 113.011719 22.160156 113.253906 21.589844 113.683594 21.589844 C 113.875 21.589844 114.054688 21.683594 114.054688 22.136719 C 114.054688 22.390625 114.019531 22.519531 113.863281 23.140625 Z M 113.167969 25.902344 "/>
<path style=" stroke:none;fill-rule:nonzero;fill:rgb(0%,0%,0%);fill-opacity:1;" d="M 79.734375 105.464844 C 79.695312 105.644531 79.625 105.917969 79.625 105.976562 C 79.625 106.191406 79.792969 106.300781 79.972656 106.300781 C 80.113281 106.300781 80.332031 106.203125 80.414062 105.964844 C 80.425781 105.941406 80.570312 105.378906 80.640625 105.082031 L 80.902344 104.003906 C 80.976562 103.742188 81.046875 103.480469 81.105469 103.203125 C 81.15625 103 81.25 102.652344 81.261719 102.605469 C 81.441406 102.234375 82.074219 101.148438 83.210938 101.148438 C 83.75 101.148438 83.855469 101.589844 83.855469 101.984375 C 83.855469 102.285156 83.773438 102.617188 83.675781 102.976562 L 83.34375 104.363281 L 83.105469 105.273438 C 83.054688 105.511719 82.949219 105.917969 82.949219 105.976562 C 82.949219 106.191406 83.117188 106.300781 83.296875 106.300781 C 83.664062 106.300781 83.738281 106 83.832031 105.617188 C 84 104.949219 84.441406 103.203125 84.550781 102.738281 C 84.585938 102.582031 85.21875 101.148438 86.523438 101.148438 C 87.035156 101.148438 87.167969 101.554688 87.167969 101.984375 C 87.167969 102.667969 86.667969 104.027344 86.425781 104.664062 C 86.320312 104.949219 86.273438 105.082031 86.273438 105.320312 C 86.273438 105.882812 86.691406 106.300781 87.253906 106.300781 C 88.375 106.300781 88.820312 104.554688 88.820312 104.460938 C 88.820312 104.339844 88.710938 104.339844 88.675781 104.339844 C 88.554688 104.339844 88.554688 104.375 88.496094 104.554688 C 88.316406 105.1875 87.933594 106.039062 87.277344 106.039062 C 87.074219 106.039062 86.988281 105.917969 86.988281 105.644531 C 86.988281 105.34375 87.097656 105.058594 87.203125 104.792969 C 87.429688 104.171875 87.933594 102.84375 87.933594 102.164062 C 87.933594 101.386719 87.457031 100.886719 86.558594 100.886719 C 85.664062 100.886719 85.050781 101.410156 84.609375 102.042969 C 84.597656 101.890625 84.5625 101.484375 84.226562 101.195312 C 83.929688 100.945312 83.546875 100.886719 83.246094 100.886719 C 82.171875 100.886719 81.585938 101.648438 81.382812 101.925781 C 81.324219 101.242188 80.820312 100.886719 80.28125 100.886719 C 79.734375 100.886719 79.503906 101.351562 79.398438 101.566406 C 79.183594 101.984375 79.027344 102.691406 79.027344 102.726562 C 79.027344 102.84375 79.148438 102.84375 79.171875 102.84375 C 79.289062 102.84375 79.300781 102.832031 79.375 102.570312 C 79.578125 101.722656 79.816406 101.148438 80.246094 101.148438 C 80.4375 101.148438 80.617188 101.242188 80.617188 101.699219 C 80.617188 101.949219 80.582031 102.082031 80.425781 102.703125 Z M 79.734375 105.464844 "/>
<path style="fill:none;stroke-width:0.5;stroke-linecap:butt;stroke-linejoin:miter;stroke:rgb(0%,0%,0%);stroke-opacity:1;stroke-dasharray:1.5,1;stroke-miterlimit:4;" d="M 141.378906 36.195312 L 141.378906 92.058594 "/>
<path style="fill:none;stroke-width:0.5;stroke-linecap:butt;stroke-linejoin:miter;stroke:rgb(0%,0%,0%);stroke-opacity:1;stroke-miterlimit:4;" d="M 141.378906 36.195312 L 141.378906 33.195312 M 143.878906 33.195312 L 138.878906 33.195312 "/>
<path style="fill:none;stroke-width:0.5;stroke-linecap:butt;stroke-linejoin:miter;stroke:rgb(0%,0%,0%);stroke-opacity:1;stroke-miterlimit:4;" d="M 141.378906 92.058594 L 141.378906 95.058594 M 138.878906 95.058594 L 143.878906 95.058594 "/>
<path style=" stroke:none;fill-rule:nonzero;fill:rgb(0%,0%,0%);fill-opacity:1;" d="M 147.960938 65.710938 C 148.605469 65.019531 148.953125 64.71875 149.382812 64.347656 C 149.382812 64.335938 150.125 63.703125 150.554688 63.273438 C 151.6875 62.160156 151.953125 61.585938 151.953125 61.539062 C 151.953125 61.417969 151.84375 61.417969 151.820312 61.417969 C 151.738281 61.417969 151.703125 61.445312 151.640625 61.550781 C 151.28125 62.125 151.03125 62.316406 150.746094 62.316406 C 150.457031 62.316406 150.316406 62.136719 150.136719 61.933594 C 149.90625 61.660156 149.703125 61.417969 149.308594 61.417969 C 148.414062 61.417969 147.863281 62.53125 147.863281 62.78125 C 147.863281 62.84375 147.898438 62.914062 148.007812 62.914062 C 148.113281 62.914062 148.136719 62.855469 148.164062 62.78125 C 148.390625 62.234375 149.082031 62.222656 149.179688 62.222656 C 149.429688 62.222656 149.65625 62.304688 149.933594 62.398438 C 150.410156 62.578125 150.542969 62.578125 150.851562 62.578125 C 150.421875 63.09375 149.417969 63.953125 149.191406 64.144531 L 148.113281 65.148438 C 147.300781 65.949219 146.882812 66.632812 146.882812 66.714844 C 146.882812 66.835938 147.003906 66.835938 147.027344 66.835938 C 147.121094 66.835938 147.144531 66.8125 147.21875 66.679688 C 147.492188 66.261719 147.851562 65.9375 148.234375 65.9375 C 148.507812 65.9375 148.628906 66.046875 148.925781 66.394531 C 149.132812 66.644531 149.347656 66.835938 149.691406 66.835938 C 150.875 66.835938 151.570312 65.316406 151.570312 64.996094 C 151.570312 64.933594 151.523438 64.875 151.425781 64.875 C 151.320312 64.875 151.292969 64.945312 151.257812 65.03125 C 150.984375 65.808594 150.21875 66.035156 149.824219 66.035156 C 149.585938 66.035156 149.371094 65.960938 149.117188 65.878906 C 148.710938 65.722656 148.53125 65.675781 148.28125 65.675781 C 148.257812 65.675781 148.066406 65.675781 147.960938 65.710938 Z M 147.960938 65.710938 "/>
<path style="fill:none;stroke-width:0.5;stroke-linecap:butt;stroke-linejoin:miter;stroke:rgb(0.392151%,0.392151%,0.392151%);stroke-opacity:1;stroke-dasharray:1.5,1;stroke-miterlimit:4;" d="M 83.816406 22.742188 L 110.207031 14.65625 "/>
<path style="fill:none;stroke-width:0.5;stroke-linecap:butt;stroke-linejoin:miter;stroke:rgb(0.392151%,0.392151%,0.392151%);stroke-opacity:1;stroke-miterlimit:4;" d="M 83.816406 22.742188 L 80.949219 23.621094 M 80.21875 21.230469 L 81.683594 26.011719 "/>
<path style="fill:none;stroke-width:0.5;stroke-linecap:butt;stroke-linejoin:miter;stroke:rgb(0.392151%,0.392151%,0.392151%);stroke-opacity:1;stroke-miterlimit:4;" d="M 110.207031 14.65625 L 113.078125 13.777344 M 113.808594 16.167969 L 112.34375 11.386719 "/>
<path style=" stroke:none;fill-rule:nonzero;fill:rgb(0%,0%,0%);fill-opacity:1;" d="M 91.882812 17.308594 C 91.847656 17.488281 91.777344 17.761719 91.777344 17.820312 C 91.777344 18.035156 91.945312 18.144531 92.125 18.144531 C 92.265625 18.144531 92.480469 18.046875 92.566406 17.808594 C 92.589844 17.761719 92.996094 16.136719 93.042969 15.921875 C 93.140625 15.527344 93.355469 14.6875 93.425781 14.367188 C 93.472656 14.210938 93.808594 13.648438 94.097656 13.386719 C 94.191406 13.300781 94.539062 12.992188 95.050781 12.992188 C 95.363281 12.992188 95.542969 13.136719 95.554688 13.136719 C 95.195312 13.195312 94.933594 13.480469 94.933594 13.792969 C 94.933594 13.984375 95.0625 14.210938 95.386719 14.210938 C 95.710938 14.210938 96.042969 13.9375 96.042969 13.503906 C 96.042969 13.085938 95.660156 12.730469 95.050781 12.730469 C 94.273438 12.730469 93.75 13.316406 93.523438 13.648438 C 93.425781 13.109375 92.996094 12.730469 92.433594 12.730469 C 91.882812 12.730469 91.65625 13.195312 91.550781 13.410156 C 91.335938 13.816406 91.179688 14.535156 91.179688 14.570312 C 91.179688 14.6875 91.296875 14.6875 91.324219 14.6875 C 91.441406 14.6875 91.453125 14.675781 91.527344 14.414062 C 91.730469 13.566406 91.96875 12.992188 92.398438 12.992188 C 92.601562 12.992188 92.769531 13.085938 92.769531 13.542969 C 92.769531 13.792969 92.734375 13.925781 92.578125 14.546875 Z M 91.882812 17.308594 "/>
<path style="fill:none;stroke-width:0.5;stroke-linecap:butt;stroke-linejoin:miter;stroke:rgb(0%,0%,0%);stroke-opacity:1;stroke-dasharray:1.5,1;stroke-miterlimit:4;" d="M 83.921875 34.472656 L 112.464844 43.191406 "/>
<path style="fill:none;stroke-width:0.5;stroke-linecap:butt;stroke-linejoin:miter;stroke:rgb(0%,0%,0%);stroke-opacity:1;stroke-dasharray:1.5,1;stroke-miterlimit:4;" d="M 110.101562 26.742188 C 111.605469 31.835938 111.59375 37.257812 110.0625 42.34375 "/>
<g clip-path="url(#clip5)" clip-rule="nonzero">
<path style=" stroke:none;fill-rule:nonzero;fill:rgb(0%,0%,0%);fill-opacity:1;" d="M 107.808594 32.582031 C 107.808594 31.792969 107.59375 30.128906 106.371094 30.128906 C 104.710938 30.128906 102.871094 33.5 102.871094 36.238281 C 102.871094 37.363281 103.21875 38.691406 104.304688 38.691406 C 105.992188 38.691406 107.808594 35.257812 107.808594 32.582031 Z M 104.136719 34.21875 C 104.339844 33.453125 104.578125 32.496094 105.058594 31.648438 C 105.378906 31.0625 105.824219 30.394531 106.359375 30.394531 C 106.945312 30.394531 107.019531 31.15625 107.019531 31.839844 C 107.019531 32.425781 106.921875 33.035156 106.636719 34.21875 Z M 106.527344 34.601562 C 106.398438 35.152344 106.144531 36.167969 105.691406 37.027344 C 105.273438 37.839844 104.820312 38.425781 104.304688 38.425781 C 103.910156 38.425781 103.660156 38.078125 103.660156 36.96875 C 103.660156 36.464844 103.730469 35.773438 104.042969 34.601562 Z M 106.527344 34.601562 "/>
</g>
</g>
</svg>
