<?xml version="1.0" encoding="UTF-8"?>
<svg xmlns="http://www.w3.org/2000/svg" xmlns:xlink="http://www.w3.org/1999/xlink" width="226.7717pt" height="170.0787pt" viewBox="0 0 226.7717 170.0787" version="1.1">
<defs>
<clipPath id="clip1">
  <path d="M 0 0 L 226.773438 0 L 226.773438 170.078125 L 0 170.078125 Z M 0 0 "/>
</clipPath>
<clipPath id="clip3">
  <path d="M 0 0 L 226.773438 0 L 226.773438 170.078125 L 0 170.078125 Z M 0 0 "/>
</clipPath>
<clipPath id="clip2">
  <rect x="0" y="0" width="227" height="171"/>
</clipPath>
<g id="surface5" clip-path="url(#clip2)">
<g clip-path="url(#clip3)" clip-rule="nonzero">
<path style=" stroke:none;fill-rule:nonzero;fill:rgb(100%,100%,100%);fill-opacity:1;" d="M 0 0 L 226.773438 0 L 226.773438 170.078125 L 0 170.078125 Z M 0 0 "/>
</g>
</g>
<clipPath id="clip4">
  <path d="M 209 137 L 226.773438 137 L 226.773438 156 L 209 156 Z M 209 137 "/>
</clipPath>
</defs>
<g id="surface1">
<g clip-path="url(#clip1)" clip-rule="nonzero">
<use xlink:href="#surface5"/>
</g>
<path style="fill:none;stroke-width:1;stroke-linecap:butt;stroke-linejoin:miter;stroke:rgb(0%,0%,0%);stroke-opacity:1;stroke-miterlimit:4;" d="M 41.105469 24.265625 L 41.105469 156 "/>
<path style="fill-rule:nonzero;fill:rgb(0%,0%,0%);fill-opacity:1;stroke-width:1;stroke-linecap:butt;stroke-linejoin:miter;stroke:rgb(0%,0%,0%);stroke-opacity:1;stroke-miterlimit:4;" d="M 44.105469 24.265625 L 41.105469 16.265625 L 38.105469 24.265625 Z M 44.105469 24.265625 "/>
<path style="fill:none;stroke-width:1;stroke-linecap:butt;stroke-linejoin:miter;stroke:rgb(0%,0%,0%);stroke-opacity:1;stroke-miterlimit:4;" d="M 30.054688 146.421875 L 214.839844 146.421875 "/>
<path style=" stroke:none;fill-rule:nonzero;fill:rgb(0%,0%,0%);fill-opacity:1;" d="M 214.839844 149.421875 L 222.839844 146.421875 L 214.839844 143.421875 Z M 214.839844 149.421875 "/>
<g clip-path="url(#clip4)" clip-rule="nonzero">
<path style="fill:none;stroke-width:1;stroke-linecap:butt;stroke-linejoin:miter;stroke:rgb(0%,0%,0%);stroke-opacity:1;stroke-miterlimit:4;" d="M 214.839844 149.421875 L 222.839844 146.421875 L 214.839844 143.421875 Z M 214.839844 149.421875 "/>
</g>
<path style="fill:none;stroke-width:1;stroke-linecap:round;stroke-linejoin:round;stroke:rgb(0%,0%,0%);stroke-opacity:1;stroke-miterlimit:4;" d="M 36.625 83.121094 C 88.253906 89.050781 138.554688 64.058594 174.734375 27.878906 "/>
<path style="fill:none;stroke-width:0.5;stroke-linecap:butt;stroke-linejoin:miter;stroke:rgb(0%,0%,0%);stroke-opacity:1;stroke-miterlimit:4;" d="M 198.980469 18.496094 L 41.105469 119.75 "/>
<path style="fill:none;stroke-width:0.5;stroke-linecap:butt;stroke-linejoin:miter;stroke:rgb(0%,0%,0%);stroke-opacity:1;stroke-miterlimit:4;" d="M 138.554688 56.910156 L 138.554688 146.421875 "/>
<path style="fill:none;stroke-width:0.5;stroke-linecap:butt;stroke-linejoin:miter;stroke:rgb(0%,0%,0%);stroke-opacity:1;stroke-miterlimit:4;" d="M 138.554688 56.910156 L 41.105469 56.910156 "/>
<path style="fill:none;stroke-width:0.5;stroke-linecap:butt;stroke-linejoin:miter;stroke:rgb(0%,0%,0%);stroke-opacity:1;stroke-miterlimit:4;" d="M 65.441406 104.113281 L 109.253906 104.113281 "/>
<path style="fill:none;stroke-width:0.5;stroke-linecap:butt;stroke-linejoin:miter;stroke:rgb(0%,0%,0%);stroke-opacity:1;stroke-miterlimit:4;" d="M 109.253906 104.113281 L 109.253906 76.289062 "/>
<path style=" stroke:none;fill-rule:nonzero;fill:rgb(0%,0%,0%);fill-opacity:1;" d="M 138.402344 150.140625 C 138.472656 149.832031 138.746094 148.730469 139.585938 148.730469 C 139.644531 148.730469 139.929688 148.730469 140.183594 148.886719 C 139.847656 148.945312 139.609375 149.246094 139.609375 149.53125 C 139.609375 149.722656 139.738281 149.949219 140.0625 149.949219 C 140.324219 149.949219 140.707031 149.734375 140.707031 149.257812 C 140.707031 148.636719 140.003906 148.46875 139.597656 148.46875 C 138.902344 148.46875 138.484375 149.101562 138.339844 149.375 C 138.042969 148.585938 137.394531 148.46875 137.050781 148.46875 C 135.804688 148.46875 135.125 150.011719 135.125 150.308594 C 135.125 150.429688 135.246094 150.429688 135.269531 150.429688 C 135.363281 150.429688 135.398438 150.40625 135.421875 150.296875 C 135.832031 149.03125 136.621094 148.730469 137.027344 148.730469 C 137.253906 148.730469 137.671875 148.839844 137.671875 149.53125 C 137.671875 149.902344 137.46875 150.703125 137.027344 152.378906 C 136.835938 153.117188 136.414062 153.621094 135.890625 153.621094 C 135.816406 153.621094 135.542969 153.621094 135.292969 153.464844 C 135.589844 153.40625 135.855469 153.152344 135.855469 152.820312 C 135.855469 152.496094 135.589844 152.402344 135.410156 152.402344 C 135.054688 152.402344 134.753906 152.710938 134.753906 153.09375 C 134.753906 153.644531 135.351562 153.882812 135.878906 153.882812 C 136.667969 153.882812 137.097656 153.046875 137.132812 152.976562 C 137.277344 153.417969 137.707031 153.882812 138.425781 153.882812 C 139.65625 153.882812 140.335938 152.339844 140.335938 152.042969 C 140.335938 151.921875 140.230469 151.921875 140.195312 151.921875 C 140.085938 151.921875 140.0625 151.96875 140.039062 152.054688 C 139.644531 153.332031 138.832031 153.621094 138.449219 153.621094 C 137.980469 153.621094 137.789062 153.238281 137.789062 152.832031 C 137.789062 152.570312 137.863281 152.304688 137.992188 151.78125 Z M 138.402344 150.140625 "/>
<path style=" stroke:none;fill-rule:nonzero;fill:rgb(0%,0%,0%);fill-opacity:1;" d="M 20.753906 55.117188 L 21.78125 55.117188 C 22.019531 55.117188 22.140625 55.117188 22.140625 54.878906 C 22.140625 54.746094 22.019531 54.746094 21.816406 54.746094 L 20.824219 54.746094 L 21.078125 53.382812 C 21.125 53.132812 21.292969 52.28125 21.363281 52.140625 C 21.472656 51.914062 21.675781 51.734375 21.925781 51.734375 C 21.972656 51.734375 22.285156 51.734375 22.511719 51.949219 C 21.984375 51.996094 21.867188 52.414062 21.867188 52.59375 C 21.867188 52.867188 22.082031 53.011719 22.308594 53.011719 C 22.617188 53.011719 22.964844 52.75 22.964844 52.292969 C 22.964844 51.746094 22.414062 51.46875 21.925781 51.46875 C 21.519531 51.46875 20.765625 51.683594 20.40625 52.867188 C 20.335938 53.121094 20.300781 53.238281 20.011719 54.746094 L 19.1875 54.746094 C 18.960938 54.746094 18.828125 54.746094 18.828125 54.972656 C 18.828125 55.117188 18.9375 55.117188 19.164062 55.117188 L 19.953125 55.117188 L 19.054688 59.839844 C 18.839844 61 18.636719 62.085938 18.015625 62.085938 C 17.96875 62.085938 17.667969 62.085938 17.441406 61.871094 C 17.992188 61.835938 18.101562 61.40625 18.101562 61.226562 C 18.101562 60.949219 17.882812 60.808594 17.65625 60.808594 C 17.347656 60.808594 17 61.070312 17 61.523438 C 17 62.0625 17.527344 62.347656 18.015625 62.347656 C 18.671875 62.347656 19.152344 61.644531 19.367188 61.191406 C 19.75 60.4375 20.023438 58.988281 20.035156 58.90625 Z M 20.753906 55.117188 "/>
<path style=" stroke:none;fill-rule:nonzero;fill:rgb(0%,0%,0%);fill-opacity:1;" d="M 27.464844 62.765625 C 27.464844 62.730469 27.464844 62.707031 27.261719 62.503906 C 25.765625 61 25.382812 58.738281 25.382812 56.910156 C 25.382812 54.828125 25.835938 52.75 27.308594 51.253906 C 27.464844 51.109375 27.464844 51.085938 27.464844 51.050781 C 27.464844 50.96875 27.414062 50.933594 27.34375 50.933594 C 27.222656 50.933594 26.148438 51.746094 25.441406 53.261719 C 24.832031 54.578125 24.691406 55.90625 24.691406 56.910156 C 24.691406 57.84375 24.820312 59.289062 25.480469 60.640625 C 26.195312 62.109375 27.222656 62.886719 27.34375 62.886719 C 27.414062 62.886719 27.464844 62.851562 27.464844 62.765625 Z M 27.464844 62.765625 "/>
<path style=" stroke:none;fill-rule:nonzero;fill:rgb(0%,0%,0%);fill-opacity:1;" d="M 32.148438 56.289062 C 32.21875 55.976562 32.496094 54.878906 33.332031 54.878906 C 33.390625 54.878906 33.679688 54.878906 33.929688 55.03125 C 33.59375 55.09375 33.355469 55.390625 33.355469 55.679688 C 33.355469 55.871094 33.488281 56.097656 33.808594 56.097656 C 34.074219 56.097656 34.457031 55.882812 34.457031 55.402344 C 34.457031 54.78125 33.75 54.613281 33.34375 54.613281 C 32.648438 54.613281 32.230469 55.246094 32.089844 55.523438 C 31.789062 54.734375 31.144531 54.613281 30.796875 54.613281 C 29.554688 54.613281 28.871094 56.15625 28.871094 56.457031 C 28.871094 56.574219 28.992188 56.574219 29.015625 56.574219 C 29.113281 56.574219 29.148438 56.550781 29.171875 56.441406 C 29.578125 55.175781 30.367188 54.878906 30.773438 54.878906 C 31 54.878906 31.417969 54.984375 31.417969 55.679688 C 31.417969 56.046875 31.214844 56.851562 30.773438 58.523438 C 30.582031 59.265625 30.164062 59.765625 29.636719 59.765625 C 29.566406 59.765625 29.289062 59.765625 29.039062 59.613281 C 29.339844 59.550781 29.601562 59.300781 29.601562 58.964844 C 29.601562 58.644531 29.339844 58.546875 29.160156 58.546875 C 28.800781 58.546875 28.5 58.859375 28.5 59.242188 C 28.5 59.789062 29.101562 60.03125 29.625 60.03125 C 30.414062 60.03125 30.84375 59.191406 30.882812 59.121094 C 31.023438 59.5625 31.453125 60.03125 32.171875 60.03125 C 33.402344 60.03125 34.085938 58.488281 34.085938 58.1875 C 34.085938 58.070312 33.976562 58.070312 33.941406 58.070312 C 33.832031 58.070312 33.808594 58.117188 33.785156 58.199219 C 33.390625 59.480469 32.578125 59.765625 32.195312 59.765625 C 31.730469 59.765625 31.539062 59.382812 31.539062 58.976562 C 31.539062 58.714844 31.609375 58.453125 31.742188 57.925781 Z M 32.148438 56.289062 "/>
<path style=" stroke:none;fill-rule:nonzero;fill:rgb(0%,0%,0%);fill-opacity:1;" d="M 38.441406 56.910156 C 38.441406 55.976562 38.3125 54.53125 37.652344 53.179688 C 36.9375 51.710938 35.910156 50.933594 35.789062 50.933594 C 35.71875 50.933594 35.667969 50.980469 35.667969 51.050781 C 35.667969 51.085938 35.667969 51.109375 35.898438 51.328125 C 37.066406 52.511719 37.75 54.410156 37.75 56.910156 C 37.75 58.953125 37.308594 61.058594 35.824219 62.5625 C 35.667969 62.707031 35.667969 62.730469 35.667969 62.765625 C 35.667969 62.839844 35.71875 62.886719 35.789062 62.886719 C 35.910156 62.886719 36.984375 62.074219 37.691406 60.554688 C 38.300781 59.242188 38.441406 57.914062 38.441406 56.910156 Z M 38.441406 56.910156 "/>
<path style=" stroke:none;fill-rule:nonzero;fill:rgb(0%,0%,0%);fill-opacity:1;" d="M 90.308594 107.175781 C 90.308594 106.890625 90.308594 106.867188 90.035156 106.867188 C 89.292969 107.632812 88.242188 107.632812 87.859375 107.632812 L 87.859375 108 C 88.097656 108 88.804688 108 89.425781 107.691406 L 89.425781 113.882812 C 89.425781 114.3125 89.390625 114.457031 88.3125 114.457031 L 87.929688 114.457031 L 87.929688 114.828125 C 88.347656 114.792969 89.390625 114.792969 89.867188 114.792969 C 90.34375 114.792969 91.386719 114.792969 91.804688 114.828125 L 91.804688 114.457031 L 91.421875 114.457031 C 90.34375 114.457031 90.308594 114.324219 90.308594 113.882812 Z M 90.308594 107.175781 "/>
<path style=" stroke:none;fill-rule:nonzero;fill:rgb(0%,0%,0%);fill-opacity:1;" d="M 111.441406 94.023438 C 111.347656 94.429688 111.320312 94.515625 110.796875 94.515625 C 110.652344 94.515625 110.519531 94.515625 110.519531 94.742188 C 110.519531 94.835938 110.582031 94.886719 110.675781 94.886719 C 111 94.886719 111.347656 94.851562 111.679688 94.851562 C 112.074219 94.851562 112.480469 94.886719 112.863281 94.886719 C 112.925781 94.886719 113.078125 94.886719 113.078125 94.648438 C 113.078125 94.515625 112.960938 94.515625 112.792969 94.515625 C 112.195312 94.515625 112.195312 94.429688 112.195312 94.324219 C 112.195312 94.179688 112.695312 92.230469 112.78125 91.933594 C 112.9375 92.28125 113.269531 92.699219 113.878906 92.699219 C 115.265625 92.699219 116.761719 90.953125 116.761719 89.195312 C 116.761719 88.070312 116.082031 87.28125 115.171875 87.28125 C 114.574219 87.28125 114 87.710938 113.605469 88.179688 C 113.484375 87.535156 112.972656 87.28125 112.53125 87.28125 C 111.980469 87.28125 111.753906 87.75 111.644531 87.964844 C 111.429688 88.371094 111.273438 89.085938 111.273438 89.125 C 111.273438 89.242188 111.394531 89.242188 111.417969 89.242188 C 111.539062 89.242188 111.550781 89.230469 111.621094 88.96875 C 111.824219 88.117188 112.0625 87.546875 112.492188 87.546875 C 112.695312 87.546875 112.863281 87.640625 112.863281 88.09375 C 112.863281 88.371094 112.828125 88.5 112.78125 88.703125 Z M 113.546875 88.835938 C 113.628906 88.511719 113.953125 88.179688 114.167969 88 C 114.585938 87.628906 114.933594 87.546875 115.136719 87.546875 C 115.613281 87.546875 115.902344 87.964844 115.902344 88.667969 C 115.902344 89.375 115.507812 90.75 115.292969 91.203125 C 114.882812 92.039062 114.3125 92.433594 113.867188 92.433594 C 113.078125 92.433594 112.925781 91.441406 112.925781 91.371094 C 112.925781 91.347656 112.925781 91.324219 112.960938 91.179688 Z M 113.546875 88.835938 "/>
<path style=" stroke:none;fill-rule:nonzero;fill:rgb(0%,0%,0%);fill-opacity:1;" d="M 8.449219 119.023438 C 8.652344 119.023438 8.867188 119.023438 8.867188 118.785156 C 8.867188 118.546875 8.652344 118.546875 8.449219 118.546875 L 1.980469 118.546875 C 1.777344 118.546875 1.5625 118.546875 1.5625 118.785156 C 1.5625 119.023438 1.777344 119.023438 1.980469 119.023438 Z M 8.449219 119.023438 "/>
<path style=" stroke:none;fill-rule:nonzero;fill:rgb(0%,0%,0%);fill-opacity:1;" d="M 14.257812 116.992188 L 15.285156 116.992188 C 15.523438 116.992188 15.644531 116.992188 15.644531 116.753906 C 15.644531 116.621094 15.523438 116.621094 15.320312 116.621094 L 14.328125 116.621094 L 14.578125 115.257812 C 14.625 115.007812 14.792969 114.160156 14.867188 114.015625 C 14.972656 113.789062 15.175781 113.609375 15.425781 113.609375 C 15.476562 113.609375 15.785156 113.609375 16.011719 113.824219 C 15.488281 113.871094 15.367188 114.289062 15.367188 114.46875 C 15.367188 114.746094 15.582031 114.886719 15.808594 114.886719 C 16.121094 114.886719 16.46875 114.625 16.46875 114.171875 C 16.46875 113.621094 15.917969 113.347656 15.425781 113.347656 C 15.019531 113.347656 14.269531 113.5625 13.910156 114.746094 C 13.835938 114.996094 13.800781 115.117188 13.515625 116.621094 L 12.691406 116.621094 C 12.460938 116.621094 12.332031 116.621094 12.332031 116.847656 C 12.332031 116.992188 12.4375 116.992188 12.664062 116.992188 L 13.453125 116.992188 L 12.558594 121.714844 C 12.34375 122.875 12.140625 123.960938 11.519531 123.960938 C 11.46875 123.960938 11.171875 123.960938 10.945312 123.746094 C 11.496094 123.710938 11.601562 123.28125 11.601562 123.101562 C 11.601562 122.828125 11.386719 122.683594 11.160156 122.683594 C 10.847656 122.683594 10.503906 122.945312 10.503906 123.402344 C 10.503906 123.9375 11.027344 124.226562 11.519531 124.226562 C 12.175781 124.226562 12.652344 123.519531 12.871094 123.066406 C 13.25 122.3125 13.527344 120.867188 13.539062 120.78125 Z M 14.257812 116.992188 "/>
<path style=" stroke:none;fill-rule:nonzero;fill:rgb(0%,0%,0%);fill-opacity:1;" d="M 19.710938 114.753906 C 20.398438 114.453125 20.707031 114.335938 20.917969 114.238281 C 21.074219 114.167969 21.152344 114.136719 21.152344 113.976562 C 21.152344 113.835938 21.042969 113.710938 20.890625 113.710938 C 20.832031 113.710938 20.816406 113.710938 20.714844 113.785156 L 19.578125 114.546875 L 19.703125 113.308594 C 19.71875 113.15625 19.703125 112.949219 19.453125 112.949219 C 19.351562 112.949219 19.191406 113.015625 19.191406 113.199219 C 19.191406 113.273438 19.226562 113.523438 19.234375 113.609375 C 19.25 113.75 19.308594 114.351562 19.328125 114.546875 L 18.195312 113.785156 C 18.113281 113.734375 18.089844 113.710938 18.011719 113.710938 C 17.863281 113.710938 17.753906 113.835938 17.753906 113.976562 C 17.753906 114.144531 17.855469 114.1875 17.929688 114.21875 L 19.191406 114.746094 C 18.507812 115.046875 18.195312 115.164062 17.988281 115.265625 C 17.828125 115.332031 17.753906 115.367188 17.753906 115.523438 C 17.753906 115.667969 17.863281 115.792969 18.011719 115.792969 C 18.070312 115.792969 18.089844 115.792969 18.1875 115.71875 L 19.328125 114.957031 L 19.191406 116.304688 C 19.191406 116.488281 19.351562 116.554688 19.453125 116.554688 C 19.550781 116.554688 19.710938 116.488281 19.710938 116.304688 C 19.710938 116.226562 19.679688 115.976562 19.667969 115.894531 C 19.652344 115.75 19.59375 115.148438 19.578125 114.957031 L 20.582031 115.625 C 20.800781 115.792969 20.816406 115.792969 20.890625 115.792969 C 21.042969 115.792969 21.152344 115.667969 21.152344 115.523438 C 21.152344 115.359375 21.050781 115.316406 20.976562 115.28125 Z M 19.710938 114.753906 "/>
<path style=" stroke:none;fill-rule:nonzero;fill:rgb(0%,0%,0%);fill-opacity:1;" d="M 26.460938 124.644531 C 26.460938 124.609375 26.460938 124.585938 26.257812 124.378906 C 24.765625 122.875 24.382812 120.613281 24.382812 118.785156 C 24.382812 116.707031 24.835938 114.625 26.304688 113.132812 C 26.460938 112.988281 26.460938 112.964844 26.460938 112.929688 C 26.460938 112.84375 26.414062 112.808594 26.34375 112.808594 C 26.222656 112.808594 25.148438 113.621094 24.441406 115.140625 C 23.832031 116.453125 23.6875 117.78125 23.6875 118.785156 C 23.6875 119.71875 23.820312 121.164062 24.476562 122.515625 C 25.195312 123.984375 26.222656 124.761719 26.34375 124.761719 C 26.414062 124.761719 26.460938 124.726562 26.460938 124.644531 Z M 26.460938 124.644531 "/>
<path style=" stroke:none;fill-rule:nonzero;fill:rgb(0%,0%,0%);fill-opacity:1;" d="M 27.691406 123.234375 C 27.59375 123.640625 27.570312 123.722656 27.046875 123.722656 C 26.902344 123.722656 26.769531 123.722656 26.769531 123.949219 C 26.769531 124.046875 26.832031 124.09375 26.925781 124.09375 C 27.25 124.09375 27.59375 124.058594 27.929688 124.058594 C 28.324219 124.058594 28.730469 124.09375 29.113281 124.09375 C 29.171875 124.09375 29.328125 124.09375 29.328125 123.855469 C 29.328125 123.722656 29.210938 123.722656 29.042969 123.722656 C 28.445312 123.722656 28.445312 123.640625 28.445312 123.53125 C 28.445312 123.386719 28.945312 121.441406 29.03125 121.140625 C 29.1875 121.488281 29.519531 121.90625 30.128906 121.90625 C 31.515625 121.90625 33.011719 120.160156 33.011719 118.402344 C 33.011719 117.28125 32.328125 116.492188 31.421875 116.492188 C 30.824219 116.492188 30.25 116.921875 29.855469 117.386719 C 29.734375 116.742188 29.222656 116.492188 28.777344 116.492188 C 28.230469 116.492188 28.003906 116.957031 27.894531 117.171875 C 27.679688 117.578125 27.523438 118.296875 27.523438 118.332031 C 27.523438 118.449219 27.644531 118.449219 27.667969 118.449219 C 27.785156 118.449219 27.796875 118.4375 27.871094 118.175781 C 28.074219 117.328125 28.3125 116.753906 28.742188 116.753906 C 28.945312 116.753906 29.113281 116.847656 29.113281 117.304688 C 29.113281 117.578125 29.078125 117.710938 29.03125 117.914062 Z M 29.796875 118.042969 C 29.878906 117.722656 30.203125 117.386719 30.417969 117.207031 C 30.835938 116.835938 31.183594 116.753906 31.386719 116.753906 C 31.863281 116.753906 32.152344 117.171875 32.152344 117.878906 C 32.152344 118.582031 31.757812 119.957031 31.539062 120.410156 C 31.132812 121.25 30.558594 121.644531 30.117188 121.644531 C 29.328125 121.644531 29.171875 120.652344 29.171875 120.578125 C 29.171875 120.554688 29.171875 120.53125 29.210938 120.386719 Z M 29.796875 118.042969 "/>
<path style=" stroke:none;fill-rule:nonzero;fill:rgb(0%,0%,0%);fill-opacity:1;" d="M 36.625 118.785156 C 36.625 117.851562 36.492188 116.40625 35.835938 115.054688 C 35.117188 113.585938 34.089844 112.808594 33.96875 112.808594 C 33.898438 112.808594 33.851562 112.855469 33.851562 112.929688 C 33.851562 112.964844 33.851562 112.988281 34.078125 113.203125 C 35.25 114.386719 35.929688 116.289062 35.929688 118.785156 C 35.929688 120.832031 35.488281 122.933594 34.003906 124.441406 C 33.851562 124.585938 33.851562 124.609375 33.851562 124.644531 C 33.851562 124.714844 33.898438 124.761719 33.96875 124.761719 C 34.089844 124.761719 35.164062 123.949219 35.871094 122.433594 C 36.480469 121.117188 36.625 119.789062 36.625 118.785156 Z M 36.625 118.785156 "/>
</g>
</svg>
