<?xml version="1.0" encoding="UTF-8"?>
<svg xmlns="http://www.w3.org/2000/svg" xmlns:xlink="http://www.w3.org/1999/xlink" width="255.1181pt" height="144.5669pt" viewBox="0 0 255.1181 144.5669" version="1.1">
<defs>
<clipPath id="clip1">
  <path d="M 0 0 L 255.117188 0 L 255.117188 144.566406 L 0 144.566406 Z M 0 0 "/>
</clipPath>
<clipPath id="clip3">
  <path d="M 0 0 L 255.117188 0 L 255.117188 144.566406 L 0 144.566406 Z M 0 0 "/>
</clipPath>
<clipPath id="clip2">
  <rect x="0" y="0" width="256" height="145"/>
</clipPath>
<g id="surface5" clip-path="url(#clip2)">
<g clip-path="url(#clip3)" clip-rule="nonzero">
<path style=" stroke:none;fill-rule:nonzero;fill:rgb(100%,100%,100%);fill-opacity:1;" d="M 0 0 L 255.117188 0 L 255.117188 144.566406 L 0 144.566406 Z M 0 0 "/>
</g>
</g>
</defs>
<g id="surface1">
<g clip-path="url(#clip1)" clip-rule="nonzero">
<use xlink:href="#surface5"/>
</g>
<path style="fill:none;stroke-width:1;stroke-linecap:round;stroke-linejoin:round;stroke:rgb(0%,0%,0%);stroke-opacity:1;stroke-miterlimit:4;" d="M 13.644531 73.945312 C 7.859375 66.109375 4.1875 62.558594 8.191406 54.550781 C 16.542969 37.851562 32.921875 61.542969 44.234375 59.5 C 55.546875 57.457031 67.035156 29.640625 88.050781 32.644531 C 106.222656 35.238281 108.441406 67.992188 106.425781 82.113281 C 100.625 122.714844 48.285156 107.984375 40.199219 105.082031 C 32.113281 102.179688 19.429688 81.78125 13.644531 73.945312 Z M 13.644531 73.945312 "/>
<path style="fill:none;stroke-width:1;stroke-linecap:round;stroke-linejoin:round;stroke:rgb(0%,0%,0%);stroke-opacity:1;stroke-miterlimit:4;" d="M 175.75 106.613281 C 177.675781 119.238281 194.140625 129.332031 206.136719 119.335938 C 225.765625 102.976562 173.921875 99.960938 185.644531 88.238281 C 196.949219 76.933594 266.582031 52.132812 240.0625 18.980469 C 233.15625 10.347656 209.128906 81.960938 190.589844 72.691406 C 175 64.894531 217.046875 16.757812 189.175781 9.792969 C 173.464844 5.863281 184.15625 55.839844 174.335938 70.570312 C 167.382812 81 120.441406 156.042969 152.425781 132.054688 C 160.65625 125.882812 173.332031 75.910156 175.75 104.910156 Z M 175.75 106.613281 "/>
<path style=" stroke:none;fill-rule:nonzero;fill:rgb(0%,0%,0%);fill-opacity:1;" d="M 76.292969 78.109375 C 76.878906 77.175781 77.378906 77.140625 77.824219 77.117188 C 77.964844 77.101562 77.980469 76.898438 77.980469 76.886719 C 77.980469 76.792969 77.917969 76.746094 77.824219 76.746094 C 77.511719 76.746094 77.164062 76.78125 76.84375 76.78125 C 76.449219 76.78125 76.042969 76.746094 75.660156 76.746094 C 75.585938 76.746094 75.433594 76.746094 75.433594 76.972656 C 75.433594 77.101562 75.539062 77.117188 75.625 77.117188 C 75.945312 77.140625 76.171875 77.257812 76.171875 77.511719 C 76.171875 77.6875 75.992188 77.953125 75.992188 77.964844 L 72.324219 83.796875 L 71.511719 77.472656 C 71.511719 77.269531 71.785156 77.117188 72.335938 77.117188 C 72.503906 77.117188 72.632812 77.117188 72.632812 76.875 C 72.632812 76.769531 72.539062 76.746094 72.46875 76.746094 C 71.988281 76.746094 71.476562 76.78125 70.984375 76.78125 C 70.769531 76.78125 70.542969 76.769531 70.328125 76.769531 C 70.113281 76.769531 69.886719 76.746094 69.683594 76.746094 C 69.597656 76.746094 69.453125 76.746094 69.453125 76.972656 C 69.453125 77.117188 69.5625 77.117188 69.753906 77.117188 C 70.421875 77.117188 70.433594 77.222656 70.472656 77.523438 L 71.414062 84.898438 C 71.449219 85.136719 71.5 85.171875 71.652344 85.171875 C 71.84375 85.171875 71.894531 85.113281 71.988281 84.957031 Z M 76.292969 78.109375 "/>
<path style=" stroke:none;fill-rule:nonzero;fill:rgb(0%,0%,0%);fill-opacity:1;" d="M 185.460938 78.109375 C 186.046875 77.175781 186.550781 77.140625 186.992188 77.117188 C 187.136719 77.101562 187.148438 76.898438 187.148438 76.886719 C 187.148438 76.792969 187.085938 76.746094 186.992188 76.746094 C 186.679688 76.746094 186.335938 76.78125 186.011719 76.78125 C 185.617188 76.78125 185.210938 76.746094 184.828125 76.746094 C 184.757812 76.746094 184.601562 76.746094 184.601562 76.972656 C 184.601562 77.101562 184.707031 77.117188 184.792969 77.117188 C 185.113281 77.140625 185.34375 77.257812 185.34375 77.511719 C 185.34375 77.6875 185.164062 77.953125 185.164062 77.964844 L 181.492188 83.796875 L 180.679688 77.472656 C 180.679688 77.269531 180.953125 77.117188 181.503906 77.117188 C 181.671875 77.117188 181.804688 77.117188 181.804688 76.875 C 181.804688 76.769531 181.707031 76.746094 181.636719 76.746094 C 181.15625 76.746094 180.644531 76.78125 180.152344 76.78125 C 179.9375 76.78125 179.710938 76.769531 179.496094 76.769531 C 179.28125 76.769531 179.054688 76.746094 178.851562 76.746094 C 178.765625 76.746094 178.625 76.746094 178.625 76.972656 C 178.625 77.117188 178.730469 77.117188 178.921875 77.117188 C 179.589844 77.117188 179.601562 77.222656 179.640625 77.523438 L 180.582031 84.898438 C 180.621094 85.136719 180.667969 85.171875 180.824219 85.171875 C 181.015625 85.171875 181.0625 85.113281 181.15625 84.957031 Z M 185.460938 78.109375 "/>
</g>
</svg>
