<?xml version="1.0" encoding="UTF-8"?>
<svg xmlns="http://www.w3.org/2000/svg" xmlns:xlink="http://www.w3.org/1999/xlink" width="226.7717pt" height="110.5512pt" viewBox="0 0 226.7717 110.5512" version="1.1">
<defs>
<clipPath id="clip1">
  <path d="M 0 0 L 226.773438 0 L 226.773438 110.550781 L 0 110.550781 Z M 0 0 "/>
</clipPath>
<clipPath id="clip3">
  <path d="M 0 0 L 226.773438 0 L 226.773438 110.550781 L 0 110.550781 Z M 0 0 "/>
</clipPath>
<clipPath id="clip2">
  <rect x="0" y="0" width="227" height="111"/>
</clipPath>
<g id="surface5" clip-path="url(#clip2)">
<g clip-path="url(#clip3)" clip-rule="nonzero">
<path style=" stroke:none;fill-rule:nonzero;fill:rgb(100%,100%,100%);fill-opacity:1;" d="M 0 0 L 226.773438 0 L 226.773438 110.550781 L 0 110.550781 Z M 0 0 "/>
</g>
</g>
<clipPath id="clip4">
  <path d="M 36 34 L 180 34 L 180 110.550781 L 36 110.550781 Z M 36 34 "/>
</clipPath>
<clipPath id="clip5">
  <path d="M 67 91 L 77 91 L 77 110.550781 L 67 110.550781 Z M 67 91 "/>
</clipPath>
<clipPath id="clip6">
  <path d="M 111 3.097656 L 116.59375 3.097656 L 116.59375 11.894531 L 111 11.894531 Z M 111 3.097656 "/>
</clipPath>
</defs>
<g id="surface1">
<g clip-path="url(#clip1)" clip-rule="nonzero">
<use xlink:href="#surface5"/>
</g>
<g clip-path="url(#clip4)" clip-rule="nonzero">
<path style="fill:none;stroke-width:1;stroke-linecap:butt;stroke-linejoin:miter;stroke:rgb(0%,0%,0%);stroke-opacity:1;stroke-miterlimit:4;" d="M 173.960938 109.136719 L 41.980469 109.136719 L 173.960938 40.359375 Z M 173.960938 109.136719 "/>
</g>
<path style="fill:none;stroke-width:0.5;stroke-linecap:butt;stroke-linejoin:miter;stroke:rgb(0%,0%,0%);stroke-opacity:1;stroke-dasharray:1.5,1;stroke-miterlimit:4;" d="M 45.960938 81.035156 L 107.40625 48.554688 "/>
<path style="fill-rule:nonzero;fill:rgb(0%,0%,0%);fill-opacity:1;stroke-width:0.5;stroke-linecap:butt;stroke-linejoin:miter;stroke:rgb(0%,0%,0%);stroke-opacity:1;stroke-miterlimit:4;" d="M 45.257812 79.707031 L 42.421875 82.902344 L 46.660156 82.359375 Z M 45.257812 79.707031 "/>
<path style="fill-rule:nonzero;fill:rgb(0%,0%,0%);fill-opacity:1;stroke-width:0.5;stroke-linecap:butt;stroke-linejoin:miter;stroke:rgb(0%,0%,0%);stroke-opacity:1;stroke-miterlimit:4;" d="M 108.105469 49.882812 L 110.941406 46.6875 L 106.703125 47.230469 Z M 108.105469 49.882812 "/>
<path style="fill:none;stroke-width:1;stroke-linecap:butt;stroke-linejoin:miter;stroke:rgb(0%,0%,0%);stroke-opacity:1;stroke-miterlimit:4;" d="M 111.382812 69.746094 C 98.515625 69.746094 88.085938 59.316406 88.085938 46.449219 C 88.085938 33.582031 98.515625 23.152344 111.382812 23.152344 C 124.25 23.152344 134.679688 33.582031 134.679688 46.449219 C 134.679688 59.316406 124.25 69.746094 111.382812 69.746094 Z M 111.382812 69.746094 "/>
<path style="fill:none;stroke-width:0.5;stroke-linecap:butt;stroke-linejoin:miter;stroke:rgb(0%,0%,0%);stroke-opacity:1;stroke-dasharray:1.5,1;stroke-miterlimit:4;" d="M 111.382812 27.652344 L 111.382812 41.953125 "/>
<path style="fill-rule:nonzero;fill:rgb(0%,0%,0%);fill-opacity:1;stroke-width:0.5;stroke-linecap:butt;stroke-linejoin:miter;stroke:rgb(0%,0%,0%);stroke-opacity:1;stroke-miterlimit:4;" d="M 112.882812 27.652344 L 111.382812 23.652344 L 109.882812 27.652344 Z M 112.882812 27.652344 "/>
<path style="fill-rule:nonzero;fill:rgb(0%,0%,0%);fill-opacity:1;stroke-width:0.5;stroke-linecap:butt;stroke-linejoin:miter;stroke:rgb(0%,0%,0%);stroke-opacity:1;stroke-miterlimit:4;" d="M 109.882812 41.953125 L 111.382812 45.953125 L 112.882812 41.953125 Z M 109.882812 41.953125 "/>
<g clip-path="url(#clip5)" clip-rule="nonzero">
<path style="fill:none;stroke-width:0.5;stroke-linecap:butt;stroke-linejoin:miter;stroke:rgb(0%,0%,0%);stroke-opacity:1;stroke-dasharray:1.5,1;stroke-miterlimit:4;" d="M 70.609375 94.585938 C 72.902344 99.09375 74.09375 104.082031 74.09375 109.136719 "/>
</g>
<path style="fill:none;stroke-width:0.5;stroke-linecap:butt;stroke-linejoin:miter;stroke:rgb(0%,0%,0%);stroke-opacity:1;stroke-dasharray:1.5,1;stroke-miterlimit:4;" d="M 91.507812 25.0625 C 101.972656 16.203125 116.792969 15.230469 128.21875 22.195312 "/>
<path style="fill-rule:nonzero;fill:rgb(0%,0%,0%);fill-opacity:1;stroke-width:0.5;stroke-linecap:butt;stroke-linejoin:miter;stroke:rgb(0%,0%,0%);stroke-opacity:1;stroke-miterlimit:4;" d="M 127.351562 23.417969 L 131.480469 24.515625 L 129.089844 20.972656 Z M 127.351562 23.417969 "/>
<path style=" stroke:none;fill-rule:nonzero;fill:rgb(0%,0%,0%);fill-opacity:1;" d="M 68.984375 96.773438 C 68.984375 96.75 69.019531 96.621094 69.019531 96.609375 C 69.019531 96.597656 69.019531 96.488281 68.875 96.488281 C 68.757812 96.488281 68.746094 96.523438 68.695312 96.726562 L 68.003906 99.488281 C 66.101562 99.550781 64.34375 101.140625 64.34375 102.765625 C 64.34375 103.902344 65.183594 104.84375 66.640625 104.929688 C 66.546875 105.300781 66.460938 105.683594 66.367188 106.050781 C 66.222656 106.613281 66.101562 107.070312 66.101562 107.105469 C 66.101562 107.222656 66.1875 107.234375 66.246094 107.234375 C 66.304688 107.234375 66.328125 107.222656 66.367188 107.1875 C 66.390625 107.164062 66.460938 106.878906 66.496094 106.710938 L 66.953125 104.929688 C 68.875 104.867188 70.609375 103.253906 70.609375 101.652344 C 70.609375 100.707031 69.976562 99.609375 68.3125 99.488281 Z M 66.699219 104.664062 C 65.984375 104.628906 65.121094 104.210938 65.121094 103.015625 C 65.121094 101.582031 66.152344 99.90625 67.933594 99.753906 Z M 68.242188 99.753906 C 69.152344 99.800781 69.832031 100.351562 69.832031 101.402344 C 69.832031 102.8125 68.804688 104.523438 67.011719 104.664062 Z M 68.242188 99.753906 "/>
<path style=" stroke:none;fill-rule:nonzero;fill:rgb(0%,0%,0%);fill-opacity:1;" d="M 74.203125 59.714844 C 73.871094 59.726562 73.632812 59.988281 73.632812 60.25 C 73.632812 60.417969 73.738281 60.597656 74 60.597656 C 74.265625 60.597656 74.550781 60.394531 74.550781 59.929688 C 74.550781 59.390625 74.039062 58.902344 73.128906 58.902344 C 71.550781 58.902344 71.109375 60.121094 71.109375 60.644531 C 71.109375 61.578125 71.992188 61.757812 72.339844 61.828125 C 72.960938 61.949219 73.582031 62.082031 73.582031 62.738281 C 73.582031 63.050781 73.308594 64.054688 71.875 64.054688 C 71.707031 64.054688 70.785156 64.054688 70.511719 63.417969 C 70.964844 63.480469 71.265625 63.121094 71.265625 62.785156 C 71.265625 62.511719 71.074219 62.367188 70.820312 62.367188 C 70.511719 62.367188 70.152344 62.617188 70.152344 63.15625 C 70.152344 63.839844 70.832031 64.316406 71.863281 64.316406 C 73.796875 64.316406 74.265625 62.871094 74.265625 62.332031 C 74.265625 61.902344 74.039062 61.601562 73.894531 61.460938 C 73.570312 61.125 73.226562 61.066406 72.699219 60.957031 C 72.269531 60.863281 71.789062 60.777344 71.789062 60.238281 C 71.789062 59.894531 72.078125 59.164062 73.128906 59.164062 C 73.429688 59.164062 74.027344 59.246094 74.203125 59.714844 Z M 74.203125 59.714844 "/>
<path style=" stroke:none;fill-rule:nonzero;fill:rgb(0%,0%,0%);fill-opacity:1;" d="M 114.105469 38.511719 C 114.070312 38.691406 113.996094 38.964844 113.996094 39.027344 C 113.996094 39.242188 114.164062 39.347656 114.34375 39.347656 C 114.488281 39.347656 114.703125 39.253906 114.785156 39.015625 C 114.8125 38.964844 115.21875 37.339844 115.265625 37.125 C 115.359375 36.730469 115.574219 35.894531 115.648438 35.570312 C 115.695312 35.414062 116.03125 34.855469 116.316406 34.589844 C 116.414062 34.507812 116.757812 34.195312 117.273438 34.195312 C 117.585938 34.195312 117.765625 34.339844 117.777344 34.339844 C 117.417969 34.398438 117.152344 34.6875 117.152344 34.996094 C 117.152344 35.1875 117.285156 35.414062 117.609375 35.414062 C 117.929688 35.414062 118.265625 35.140625 118.265625 34.710938 C 118.265625 34.292969 117.882812 33.933594 117.273438 33.933594 C 116.496094 33.933594 115.96875 34.519531 115.742188 34.855469 C 115.648438 34.316406 115.21875 33.933594 114.65625 33.933594 C 114.105469 33.933594 113.878906 34.398438 113.769531 34.613281 C 113.554688 35.019531 113.398438 35.738281 113.398438 35.773438 C 113.398438 35.894531 113.519531 35.894531 113.542969 35.894531 C 113.664062 35.894531 113.675781 35.882812 113.746094 35.617188 C 113.949219 34.769531 114.1875 34.195312 114.621094 34.195312 C 114.824219 34.195312 114.988281 34.292969 114.988281 34.746094 C 114.988281 34.996094 114.953125 35.128906 114.800781 35.75 Z M 114.105469 38.511719 "/>
<g clip-path="url(#clip6)" clip-rule="nonzero">
<path style=" stroke:none;fill-rule:nonzero;fill:rgb(0%,0%,0%);fill-opacity:1;" d="M 116.15625 5.535156 C 116.15625 4.746094 115.941406 3.082031 114.722656 3.082031 C 113.058594 3.082031 111.21875 6.457031 111.21875 9.191406 C 111.21875 10.316406 111.566406 11.644531 112.652344 11.644531 C 114.339844 11.644531 116.15625 8.210938 116.15625 5.535156 Z M 112.484375 7.171875 C 112.6875 6.40625 112.929688 5.449219 113.40625 4.601562 C 113.730469 4.015625 114.171875 3.347656 114.710938 3.347656 C 115.296875 3.347656 115.367188 4.113281 115.367188 4.792969 C 115.367188 5.378906 115.273438 5.988281 114.984375 7.171875 Z M 114.878906 7.554688 C 114.746094 8.105469 114.496094 9.121094 114.039062 9.980469 C 113.621094 10.796875 113.167969 11.378906 112.652344 11.378906 C 112.257812 11.378906 112.007812 11.035156 112.007812 9.921875 C 112.007812 9.421875 112.078125 8.726562 112.390625 7.554688 Z M 114.878906 7.554688 "/>
</g>
</g>
</svg>
