<?xml version="1.0" encoding="UTF-8"?>
<svg xmlns="http://www.w3.org/2000/svg" xmlns:xlink="http://www.w3.org/1999/xlink" width="170.0788pt" height="92.12598pt" viewBox="0 0 170.0788 92.12598" version="1.1">
<defs>
<clipPath id="clip1">
  <path d="M 0 0 L 170.078125 0 L 170.078125 92.125 L 0 92.125 Z M 0 0 "/>
</clipPath>
<clipPath id="clip3">
  <path d="M 0 0 L 170.078125 0 L 170.078125 92.125 L 0 92.125 Z M 0 0 "/>
</clipPath>
<clipPath id="clip2">
  <rect x="0" y="0" width="171" height="93"/>
</clipPath>
<g id="surface5" clip-path="url(#clip2)">
<g clip-path="url(#clip3)" clip-rule="nonzero">
<path style=" stroke:none;fill-rule:nonzero;fill:rgb(100%,100%,100%);fill-opacity:1;" d="M 0 0 L 170.078125 0 L 170.078125 92.125 L 0 92.125 Z M 0 0 "/>
</g>
</g>
<clipPath id="clip4">
  <path d="M 90.132812 34.941406 L 96 34.941406 L 96 43.742188 L 90.132812 43.742188 Z M 90.132812 34.941406 "/>
</clipPath>
</defs>
<g id="surface1">
<g clip-path="url(#clip1)" clip-rule="nonzero">
<use xlink:href="#surface5"/>
</g>
<path style="fill:none;stroke-width:4;stroke-linecap:butt;stroke-linejoin:miter;stroke:rgb(0%,0%,0%);stroke-opacity:1;stroke-miterlimit:4;" d="M 30.597656 4.417969 L 139.484375 4.417969 "/>
<path style="fill:none;stroke-width:3;stroke-linecap:round;stroke-linejoin:miter;stroke:rgb(0%,0%,0%);stroke-opacity:1;stroke-miterlimit:4;" d="M 86.269531 4.417969 L 114.695312 68.34375 "/>
<path style="fill-rule:nonzero;fill:rgb(0%,0%,0%);fill-opacity:1;stroke-width:1;stroke-linecap:butt;stroke-linejoin:miter;stroke:rgb(0%,0%,0%);stroke-opacity:1;stroke-miterlimit:4;" d="M 117.667969 84.890625 C 113.097656 84.890625 109.394531 81.183594 109.394531 76.617188 C 109.394531 72.046875 113.097656 68.34375 117.667969 68.34375 C 122.238281 68.34375 125.941406 72.046875 125.941406 76.617188 C 125.941406 81.183594 122.238281 84.890625 117.667969 84.890625 Z M 117.667969 84.890625 "/>
<path style=" stroke:none;fill-rule:nonzero;fill:rgb(0%,0%,0%);fill-opacity:1;" d="M 124.691406 89.46875 C 124.65625 89.648438 124.585938 89.921875 124.585938 89.980469 C 124.585938 90.195312 124.753906 90.304688 124.929688 90.304688 C 125.074219 90.304688 125.289062 90.207031 125.375 89.96875 C 125.386719 89.945312 125.527344 89.382812 125.601562 89.085938 L 125.863281 88.007812 C 125.9375 87.746094 126.007812 87.484375 126.066406 87.207031 C 126.113281 87.003906 126.210938 86.65625 126.222656 86.609375 C 126.402344 86.238281 127.035156 85.152344 128.171875 85.152344 C 128.710938 85.152344 128.816406 85.59375 128.816406 85.988281 C 128.816406 86.289062 128.734375 86.621094 128.636719 86.980469 L 128.300781 88.367188 L 128.0625 89.277344 C 128.015625 89.515625 127.90625 89.921875 127.90625 89.980469 C 127.90625 90.195312 128.074219 90.304688 128.253906 90.304688 C 128.625 90.304688 128.695312 90.003906 128.792969 89.621094 C 128.960938 88.953125 129.402344 87.207031 129.511719 86.742188 C 129.546875 86.585938 130.179688 85.152344 131.484375 85.152344 C 131.996094 85.152344 132.128906 85.558594 132.128906 85.988281 C 132.128906 86.671875 131.625 88.03125 131.386719 88.667969 C 131.28125 88.953125 131.230469 89.085938 131.230469 89.324219 C 131.230469 89.886719 131.648438 90.304688 132.210938 90.304688 C 133.335938 90.304688 133.777344 88.558594 133.777344 88.464844 C 133.777344 88.34375 133.671875 88.34375 133.632812 88.34375 C 133.515625 88.34375 133.515625 88.378906 133.457031 88.558594 C 133.277344 89.191406 132.894531 90.042969 132.234375 90.042969 C 132.03125 90.042969 131.949219 89.921875 131.949219 89.648438 C 131.949219 89.347656 132.054688 89.0625 132.164062 88.796875 C 132.390625 88.175781 132.894531 86.847656 132.894531 86.167969 C 132.894531 85.390625 132.414062 84.890625 131.519531 84.890625 C 130.621094 84.890625 130.011719 85.414062 129.570312 86.046875 C 129.558594 85.894531 129.523438 85.488281 129.1875 85.199219 C 128.886719 84.949219 128.507812 84.890625 128.207031 84.890625 C 127.132812 84.890625 126.546875 85.652344 126.34375 85.929688 C 126.28125 85.246094 125.78125 84.890625 125.242188 84.890625 C 124.691406 84.890625 124.464844 85.355469 124.359375 85.570312 C 124.140625 85.988281 123.988281 86.695312 123.988281 86.730469 C 123.988281 86.847656 124.105469 86.847656 124.128906 86.847656 C 124.25 86.847656 124.261719 86.835938 124.332031 86.574219 C 124.535156 85.726562 124.777344 85.152344 125.207031 85.152344 C 125.398438 85.152344 125.578125 85.246094 125.578125 85.703125 C 125.578125 85.953125 125.539062 86.085938 125.386719 86.707031 Z M 124.691406 89.46875 "/>
<path style="fill:none;stroke-width:1;stroke-linecap:butt;stroke-linejoin:miter;stroke:rgb(0%,0%,0%);stroke-opacity:1;stroke-dasharray:3,2;stroke-miterlimit:4;" d="M 97.566406 15.847656 L 115.667969 56.910156 "/>
<path style="fill-rule:nonzero;fill:rgb(0%,0%,0%);fill-opacity:1;stroke-width:1;stroke-linecap:butt;stroke-linejoin:miter;stroke:rgb(0%,0%,0%);stroke-opacity:1;stroke-miterlimit:4;" d="M 100.308594 14.636719 L 94.335938 8.527344 L 94.820312 17.058594 Z M 100.308594 14.636719 "/>
<path style="fill-rule:nonzero;fill:rgb(0%,0%,0%);fill-opacity:1;stroke-width:1;stroke-linecap:butt;stroke-linejoin:miter;stroke:rgb(0%,0%,0%);stroke-opacity:1;stroke-miterlimit:4;" d="M 112.921875 58.121094 L 118.894531 64.230469 L 118.414062 55.699219 Z M 112.921875 58.121094 "/>
<path style=" stroke:none;fill-rule:nonzero;fill:rgb(0%,0%,0%);fill-opacity:1;" d="M 114.828125 30.308594 C 114.933594 29.875 114.96875 29.746094 116.09375 29.746094 C 116.453125 29.746094 116.546875 29.746094 116.546875 29.519531 C 116.546875 29.375 116.417969 29.375 116.355469 29.375 C 115.960938 29.375 114.980469 29.410156 114.585938 29.410156 C 114.230469 29.410156 113.355469 29.375 112.996094 29.375 C 112.914062 29.375 112.769531 29.375 112.769531 29.613281 C 112.769531 29.746094 112.878906 29.746094 113.105469 29.746094 C 113.128906 29.746094 113.355469 29.746094 113.558594 29.769531 C 113.773438 29.792969 113.882812 29.804688 113.882812 29.960938 C 113.882812 30.007812 113.871094 30.042969 113.835938 30.1875 L 112.230469 36.605469 C 112.113281 37.074219 112.089844 37.167969 111.144531 37.167969 C 110.941406 37.167969 110.820312 37.167969 110.820312 37.410156 C 110.820312 37.539062 110.929688 37.539062 111.144531 37.539062 L 116.679688 37.539062 C 116.964844 37.539062 116.976562 37.539062 117.050781 37.335938 L 117.996094 34.753906 C 118.042969 34.621094 118.042969 34.597656 118.042969 34.585938 C 118.042969 34.539062 118.007812 34.457031 117.898438 34.457031 C 117.792969 34.457031 117.78125 34.515625 117.695312 34.707031 C 117.289062 35.804688 116.761719 37.167969 114.695312 37.167969 L 113.570312 37.167969 C 113.402344 37.167969 113.378906 37.167969 113.308594 37.15625 C 113.1875 37.144531 113.152344 37.132812 113.152344 37.039062 C 113.152344 37 113.152344 36.976562 113.210938 36.761719 Z M 114.828125 30.308594 "/>
<path style="fill:none;stroke-width:1;stroke-linecap:butt;stroke-linejoin:miter;stroke:rgb(0%,0%,0%);stroke-opacity:1;stroke-dasharray:3,2;stroke-miterlimit:4;" d="M 86.269531 4.417969 L 86.269531 72.125 "/>
<path style="fill:none;stroke-width:1;stroke-linecap:butt;stroke-linejoin:miter;stroke:rgb(0%,0%,0%);stroke-opacity:1;stroke-dasharray:3,2;stroke-miterlimit:4;" d="M 104.066406 45.261719 C 98.453125 47.707031 92.394531 48.972656 86.269531 48.972656 "/>
<g clip-path="url(#clip4)" clip-rule="nonzero">
<path style=" stroke:none;fill-rule:nonzero;fill:rgb(0%,0%,0%);fill-opacity:1;" d="M 95.691406 37.382812 C 95.691406 36.59375 95.476562 34.929688 94.257812 34.929688 C 92.597656 34.929688 90.753906 38.300781 90.753906 41.039062 C 90.753906 42.164062 91.101562 43.492188 92.191406 43.492188 C 93.875 43.492188 95.691406 40.058594 95.691406 37.382812 Z M 92.023438 39.019531 C 92.226562 38.253906 92.464844 37.296875 92.941406 36.449219 C 93.265625 35.863281 93.707031 35.195312 94.246094 35.195312 C 94.832031 35.195312 94.902344 35.957031 94.902344 36.640625 C 94.902344 37.226562 94.808594 37.835938 94.519531 39.019531 Z M 94.414062 39.402344 C 94.28125 39.953125 94.03125 40.96875 93.578125 41.828125 C 93.160156 42.640625 92.703125 43.226562 92.191406 43.226562 C 91.796875 43.226562 91.542969 42.878906 91.542969 41.769531 C 91.542969 41.265625 91.617188 40.574219 91.925781 39.402344 Z M 94.414062 39.402344 "/>
</g>
</g>
</svg>
