<?xml version="1.0" encoding="UTF-8"?>
<svg xmlns="http://www.w3.org/2000/svg" xmlns:xlink="http://www.w3.org/1999/xlink" width="170.0787pt" height="85.03937pt" viewBox="0 0 170.0787 85.03937" version="1.1">
<defs>
<clipPath id="clip1">
  <path d="M 0 0 L 170.078125 0 L 170.078125 85.039062 L 0 85.039062 Z M 0 0 "/>
</clipPath>
<clipPath id="clip3">
  <path d="M 0 0 L 170.078125 0 L 170.078125 85.039062 L 0 85.039062 Z M 0 0 "/>
</clipPath>
<clipPath id="clip2">
  <rect x="0" y="0" width="171" height="86"/>
</clipPath>
<g id="surface5" clip-path="url(#clip2)">
<g clip-path="url(#clip3)" clip-rule="nonzero">
<path style=" stroke:none;fill-rule:nonzero;fill:rgb(100%,100%,100%);fill-opacity:1;" d="M 0 0 L 170.078125 0 L 170.078125 85.039062 L 0 85.039062 Z M 0 0 "/>
</g>
</g>
</defs>
<g id="surface1">
<g clip-path="url(#clip1)" clip-rule="nonzero">
<use xlink:href="#surface5"/>
</g>
<path style="fill:none;stroke-width:1;stroke-linecap:round;stroke-linejoin:round;stroke:rgb(0%,0%,0%);stroke-opacity:1;stroke-miterlimit:4;" d="M 31.695312 57.226562 C 56.085938 7.113281 100.753906 82.222656 130.90625 26.941406 "/>
<path style="fill-rule:nonzero;fill:rgb(0%,0%,0%);fill-opacity:1;stroke-width:1;stroke-linecap:butt;stroke-linejoin:miter;stroke:rgb(0%,0%,0%);stroke-opacity:1;stroke-miterlimit:4;" d="M 19.847656 74.449219 L 28.527344 55.835938 L 34.839844 58.777344 L 26.160156 77.390625 Z M 19.847656 74.449219 "/>
<path style="fill-rule:nonzero;fill:rgb(0%,0%,0%);fill-opacity:1;stroke-width:1;stroke-linecap:butt;stroke-linejoin:miter;stroke:rgb(0%,0%,0%);stroke-opacity:1;stroke-miterlimit:4;" d="M 127.667969 25.621094 L 136.347656 7.003906 L 142.65625 9.949219 L 133.976562 28.5625 Z M 127.667969 25.621094 "/>
<path style="fill:none;stroke-width:0.5;stroke-linecap:butt;stroke-linejoin:miter;stroke:rgb(0%,0%,0%);stroke-opacity:1;stroke-miterlimit:4;" d="M 31.695312 42.085938 L 130.90625 42.085938 "/>
<path style=" stroke:none;fill-rule:nonzero;fill:rgb(0%,0%,0%);fill-opacity:1;" d="M 49.082031 33.828125 C 49.214844 34.320312 49.632812 34.628906 50.148438 34.628906 C 50.566406 34.628906 50.839844 34.355469 51.03125 33.972656 C 51.234375 33.542969 51.390625 32.8125 51.390625 32.789062 C 51.390625 32.667969 51.28125 32.667969 51.246094 32.667969 C 51.128906 32.667969 51.113281 32.71875 51.078125 32.882812 C 50.910156 33.554688 50.683594 34.367188 50.183594 34.367188 C 49.929688 34.367188 49.8125 34.210938 49.8125 33.816406 C 49.8125 33.554688 49.957031 32.992188 50.050781 32.574219 L 50.386719 31.28125 C 50.421875 31.101562 50.542969 30.648438 50.589844 30.46875 C 50.648438 30.195312 50.769531 29.742188 50.769531 29.667969 C 50.769531 29.453125 50.601562 29.347656 50.421875 29.347656 C 50.363281 29.347656 50.050781 29.359375 49.957031 29.765625 C 49.726562 30.636719 49.203125 32.730469 49.058594 33.363281 C 49.046875 33.410156 48.570312 34.367188 47.695312 34.367188 C 47.074219 34.367188 46.953125 33.828125 46.953125 33.386719 C 46.953125 32.71875 47.289062 31.773438 47.601562 30.949219 C 47.742188 30.589844 47.804688 30.421875 47.804688 30.195312 C 47.804688 29.65625 47.421875 29.214844 46.824219 29.214844 C 45.6875 29.214844 45.246094 30.949219 45.246094 31.054688 C 45.246094 31.175781 45.363281 31.175781 45.386719 31.175781 C 45.507812 31.175781 45.519531 31.152344 45.578125 30.960938 C 45.878906 29.917969 46.332031 29.476562 46.789062 29.476562 C 46.894531 29.476562 47.085938 29.488281 47.085938 29.871094 C 47.085938 30.160156 46.953125 30.503906 46.882812 30.683594 C 46.441406 31.867188 46.191406 32.609375 46.191406 33.195312 C 46.191406 34.332031 47.015625 34.628906 47.660156 34.628906 C 48.449219 34.628906 48.878906 34.09375 49.082031 33.828125 Z M 49.082031 33.828125 "/>
<path style=" stroke:none;fill-rule:nonzero;fill:rgb(0%,0%,0%);fill-opacity:1;" d="M 55.699219 37.367188 C 55.699219 37.332031 55.699219 37.308594 55.496094 37.105469 C 54 35.597656 53.617188 33.339844 53.617188 31.507812 C 53.617188 29.429688 54.074219 27.347656 55.542969 25.855469 C 55.699219 25.710938 55.699219 25.6875 55.699219 25.652344 C 55.699219 25.566406 55.652344 25.53125 55.578125 25.53125 C 55.460938 25.53125 54.382812 26.34375 53.679688 27.863281 C 53.070312 29.179688 52.925781 30.503906 52.925781 31.507812 C 52.925781 32.441406 53.058594 33.890625 53.714844 35.238281 C 54.433594 36.710938 55.460938 37.488281 55.578125 37.488281 C 55.652344 37.488281 55.699219 37.453125 55.699219 37.367188 Z M 55.699219 37.367188 "/>
<path style=" stroke:none;fill-rule:nonzero;fill:rgb(0%,0%,0%);fill-opacity:1;" d="M 60.386719 30.886719 C 60.457031 30.578125 60.730469 29.476562 61.570312 29.476562 C 61.628906 29.476562 61.914062 29.476562 62.167969 29.632812 C 61.832031 29.691406 61.59375 29.992188 61.59375 30.277344 C 61.59375 30.46875 61.722656 30.695312 62.046875 30.695312 C 62.308594 30.695312 62.691406 30.480469 62.691406 30.003906 C 62.691406 29.382812 61.988281 29.214844 61.582031 29.214844 C 60.886719 29.214844 60.46875 29.847656 60.324219 30.121094 C 60.027344 29.332031 59.378906 29.214844 59.035156 29.214844 C 57.789062 29.214844 57.109375 30.757812 57.109375 31.054688 C 57.109375 31.175781 57.230469 31.175781 57.253906 31.175781 C 57.347656 31.175781 57.382812 31.152344 57.40625 31.042969 C 57.816406 29.777344 58.605469 29.476562 59.011719 29.476562 C 59.238281 29.476562 59.65625 29.585938 59.65625 30.277344 C 59.65625 30.648438 59.453125 31.449219 59.011719 33.125 C 58.820312 33.863281 58.402344 34.367188 57.875 34.367188 C 57.800781 34.367188 57.527344 34.367188 57.277344 34.210938 C 57.574219 34.152344 57.839844 33.902344 57.839844 33.566406 C 57.839844 33.242188 57.574219 33.148438 57.394531 33.148438 C 57.039062 33.148438 56.738281 33.457031 56.738281 33.839844 C 56.738281 34.390625 57.335938 34.628906 57.863281 34.628906 C 58.652344 34.628906 59.082031 33.792969 59.117188 33.722656 C 59.261719 34.164062 59.691406 34.628906 60.410156 34.628906 C 61.640625 34.628906 62.320312 33.085938 62.320312 32.789062 C 62.320312 32.667969 62.214844 32.667969 62.179688 32.667969 C 62.070312 32.667969 62.046875 32.71875 62.023438 32.800781 C 61.628906 34.082031 60.816406 34.367188 60.433594 34.367188 C 59.964844 34.367188 59.773438 33.984375 59.773438 33.578125 C 59.773438 33.316406 59.847656 33.050781 59.980469 32.527344 Z M 60.386719 30.886719 "/>
<path style=" stroke:none;fill-rule:nonzero;fill:rgb(0%,0%,0%);fill-opacity:1;" d="M 66.679688 31.507812 C 66.679688 30.578125 66.546875 29.128906 65.890625 27.78125 C 65.171875 26.308594 64.144531 25.53125 64.023438 25.53125 C 63.953125 25.53125 63.90625 25.578125 63.90625 25.652344 C 63.90625 25.6875 63.90625 25.710938 64.132812 25.925781 C 65.304688 27.109375 65.984375 29.011719 65.984375 31.507812 C 65.984375 33.554688 65.542969 35.65625 64.058594 37.164062 C 63.90625 37.308594 63.90625 37.332031 63.90625 37.367188 C 63.90625 37.441406 63.953125 37.488281 64.023438 37.488281 C 64.144531 37.488281 65.21875 36.675781 65.925781 35.15625 C 66.535156 33.839844 66.679688 32.515625 66.679688 31.507812 Z M 66.679688 31.507812 "/>
<path style=" stroke:none;fill-rule:nonzero;fill:rgb(0%,0%,0%);fill-opacity:1;" d="M 130.722656 45.601562 C 130.832031 45.171875 130.867188 45.039062 131.988281 45.039062 C 132.347656 45.039062 132.445312 45.039062 132.445312 44.8125 C 132.445312 44.671875 132.3125 44.671875 132.253906 44.671875 C 131.859375 44.671875 130.878906 44.707031 130.484375 44.707031 C 130.125 44.707031 129.253906 44.671875 128.894531 44.671875 C 128.808594 44.671875 128.667969 44.671875 128.667969 44.910156 C 128.667969 45.039062 128.773438 45.039062 129 45.039062 C 129.023438 45.039062 129.253906 45.039062 129.457031 45.066406 C 129.671875 45.089844 129.777344 45.101562 129.777344 45.257812 C 129.777344 45.304688 129.765625 45.339844 129.730469 45.484375 L 128.128906 51.902344 C 128.007812 52.371094 127.984375 52.464844 127.039062 52.464844 C 126.835938 52.464844 126.71875 52.464844 126.71875 52.703125 C 126.71875 52.835938 126.824219 52.835938 127.039062 52.835938 L 132.574219 52.835938 C 132.863281 52.835938 132.875 52.835938 132.945312 52.632812 L 133.890625 50.050781 C 133.9375 49.917969 133.9375 49.894531 133.9375 49.882812 C 133.9375 49.835938 133.902344 49.75 133.792969 49.75 C 133.6875 49.75 133.675781 49.8125 133.589844 50.003906 C 133.183594 51.101562 132.660156 52.464844 130.589844 52.464844 L 129.46875 52.464844 C 129.300781 52.464844 129.277344 52.464844 129.203125 52.453125 C 129.085938 52.441406 129.046875 52.429688 129.046875 52.332031 C 129.046875 52.296875 129.046875 52.273438 129.109375 52.058594 Z M 130.722656 45.601562 "/>
<path style=" stroke:none;fill-rule:nonzero;fill:rgb(0%,0%,0%);fill-opacity:1;" d="M 34.015625 47.019531 C 34.015625 46.0625 33.957031 45.105469 33.535156 44.222656 C 32.988281 43.074219 32.007812 42.882812 31.503906 42.882812 C 30.789062 42.882812 29.914062 43.191406 29.425781 44.304688 C 29.042969 45.128906 28.980469 46.0625 28.980469 47.019531 C 28.980469 47.914062 29.03125 48.992188 29.519531 49.898438 C 30.035156 50.867188 30.90625 51.105469 31.492188 51.105469 C 32.136719 51.105469 33.046875 50.855469 33.574219 49.71875 C 33.957031 48.894531 34.015625 47.964844 34.015625 47.019531 Z M 31.492188 50.84375 C 31.027344 50.84375 30.320312 50.546875 30.105469 49.398438 C 29.972656 48.679688 29.972656 47.582031 29.972656 46.875 C 29.972656 46.109375 29.972656 45.320312 30.070312 44.675781 C 30.296875 43.253906 31.195312 43.144531 31.492188 43.144531 C 31.886719 43.144531 32.675781 43.359375 32.902344 44.542969 C 33.023438 45.214844 33.023438 46.121094 33.023438 46.875 C 33.023438 47.773438 33.023438 48.585938 32.890625 49.351562 C 32.710938 50.484375 32.03125 50.84375 31.492188 50.84375 Z M 31.492188 50.84375 "/>
</g>
</svg>
