<?xml version="1.0" encoding="UTF-8"?>
<svg xmlns="http://www.w3.org/2000/svg" xmlns:xlink="http://www.w3.org/1999/xlink" width="170.0787pt" height="170.0787pt" viewBox="0 0 170.0787 170.0787" version="1.1">
<defs>
<clipPath id="clip1">
  <path d="M 0 0 L 170.078125 0 L 170.078125 170.078125 L 0 170.078125 Z M 0 0 "/>
</clipPath>
<clipPath id="clip3">
  <path d="M 0 0 L 170.078125 0 L 170.078125 170.078125 L 0 170.078125 Z M 0 0 "/>
</clipPath>
<clipPath id="clip2">
  <rect x="0" y="0" width="171" height="171"/>
</clipPath>
<g id="surface5" clip-path="url(#clip2)">
<g clip-path="url(#clip3)" clip-rule="nonzero">
<path style=" stroke:none;fill-rule:nonzero;fill:rgb(100%,100%,100%);fill-opacity:1;" d="M 0 0 L 170.078125 0 L 170.078125 170.078125 L 0 170.078125 Z M 0 0 "/>
</g>
</g>
<clipPath id="clip4">
  <path d="M 0 118 L 170.078125 118 L 170.078125 167 L 0 167 Z M 0 118 "/>
</clipPath>
<clipPath id="clip5">
  <path d="M 155 131 L 170.078125 131 L 170.078125 158 L 155 158 Z M 155 131 "/>
</clipPath>
<clipPath id="clip6">
  <path d="M 0 153 L 164 153 L 164 170.078125 L 0 170.078125 Z M 0 153 "/>
</clipPath>
<clipPath id="clip7">
  <path d="M 91.363281 104.496094 L 97 104.496094 L 97 113.296875 L 91.363281 113.296875 Z M 91.363281 104.496094 "/>
</clipPath>
</defs>
<g id="surface1">
<g clip-path="url(#clip1)" clip-rule="nonzero">
<use xlink:href="#surface5"/>
</g>
<g clip-path="url(#clip4)" clip-rule="nonzero">
<path style="fill:none;stroke-width:1;stroke-linecap:butt;stroke-linejoin:miter;stroke:rgb(0%,0%,0%);stroke-opacity:1;stroke-miterlimit:4;" d="M 16.105469 124.609375 L 167.9375 128.714844 L 153.972656 160.582031 L 2.140625 156.472656 Z M 16.105469 124.609375 "/>
</g>
<g clip-path="url(#clip5)" clip-rule="nonzero">
<path style="fill:none;stroke-width:1;stroke-linecap:butt;stroke-linejoin:miter;stroke:rgb(0%,0%,0%);stroke-opacity:1;stroke-miterlimit:4;" d="M 167.9375 136.933594 L 161.609375 151.375 "/>
</g>
<g clip-path="url(#clip6)" clip-rule="nonzero">
<path style="fill:none;stroke-width:1;stroke-linecap:butt;stroke-linejoin:miter;stroke:rgb(0%,0%,0%);stroke-opacity:1;stroke-miterlimit:4;" d="M 158.085938 159.410156 L 153.972656 168.796875 L 2.140625 164.6875 "/>
</g>
<path style="fill-rule:nonzero;fill:rgb(100%,100%,100%);fill-opacity:1;stroke-width:1;stroke-linecap:butt;stroke-linejoin:miter;stroke:rgb(0%,0%,0%);stroke-opacity:1;stroke-miterlimit:4;" d="M 85.039062 147.539062 C 53.140625 147.539062 27.28125 121.679688 27.28125 89.78125 C 27.28125 57.882812 53.140625 32.023438 85.039062 32.023438 C 116.9375 32.023438 142.796875 57.882812 142.796875 89.78125 C 142.796875 121.679688 116.9375 147.539062 85.039062 147.539062 Z M 85.039062 147.539062 "/>
<path style="fill:none;stroke-width:0.5;stroke-linecap:butt;stroke-linejoin:miter;stroke:rgb(0%,0%,0%);stroke-opacity:1;stroke-dasharray:1.5,1;stroke-miterlimit:4;" d="M 85.039062 90.558594 L 134.082031 121.480469 "/>
<path style="fill:none;stroke-width:0.5;stroke-linecap:butt;stroke-linejoin:miter;stroke:rgb(0%,0%,0%);stroke-opacity:1;stroke-dasharray:1.5,1;stroke-miterlimit:4;" d="M 85.039062 18.355469 L 85.039062 147.539062 "/>
<path style="fill:none;stroke-width:0.5;stroke-linecap:butt;stroke-linejoin:miter;stroke:rgb(0%,0%,0%);stroke-opacity:1;stroke-dasharray:1.5,1;stroke-miterlimit:4;" d="M 97.390625 22.953125 C 94.253906 24.59375 90.027344 25.601562 85.46875 25.710938 C 78.792969 25.867188 72.496094 24.070312 69.09375 21.03125 "/>
<path style="fill-rule:nonzero;fill:rgb(0%,0%,0%);fill-opacity:1;stroke-width:0.5;stroke-linecap:butt;stroke-linejoin:miter;stroke:rgb(0%,0%,0%);stroke-opacity:1;stroke-miterlimit:4;" d="M 98.285156 24.15625 L 100.597656 20.5625 L 96.496094 21.75 Z M 98.285156 24.15625 "/>
<path style="fill-rule:nonzero;fill:rgb(100%,100%,100%);fill-opacity:1;stroke-width:0.5;stroke-linecap:butt;stroke-linejoin:miter;stroke:rgb(0%,0%,0%);stroke-opacity:1;stroke-miterlimit:4;" d="M 132.636719 128.824219 C 128.347656 128.824219 124.871094 125.347656 124.871094 121.058594 C 124.871094 116.773438 128.347656 113.296875 132.636719 113.296875 C 136.921875 113.296875 140.398438 116.773438 140.398438 121.058594 C 140.398438 125.347656 136.921875 128.824219 132.636719 128.824219 Z M 132.636719 128.824219 "/>
<path style="fill:none;stroke-width:0.5;stroke-linecap:butt;stroke-linejoin:miter;stroke:rgb(0%,0%,0%);stroke-opacity:1;stroke-dasharray:1.5,1;stroke-miterlimit:4;" d="M 112.136719 107.769531 C 106.25 117.042969 96.027344 122.664062 85.039062 122.664062 "/>
<path style=" stroke:none;fill-rule:nonzero;fill:rgb(0%,0%,0%);fill-opacity:1;" d="M 88.585938 12.382812 C 88.585938 11.847656 88.367188 11.546875 88.105469 11.546875 C 87.796875 11.546875 87.472656 11.832031 87.472656 12.109375 C 87.472656 12.226562 87.53125 12.359375 87.652344 12.46875 C 87.855469 12.648438 88.070312 12.96875 88.070312 13.472656 C 88.070312 13.949219 87.84375 14.632812 87.472656 15.179688 C 87.113281 15.695312 86.671875 16.101562 86.109375 16.101562 C 85.429688 16.101562 85.058594 15.671875 84.949219 15.027344 C 85.082031 14.714844 85.355469 13.949219 85.355469 13.613281 C 85.355469 13.472656 85.296875 13.351562 85.140625 13.351562 C 85.046875 13.351562 84.914062 13.375 84.816406 13.554688 C 84.6875 13.792969 84.542969 14.570312 84.542969 15 C 84.148438 15.5625 83.671875 16.101562 82.917969 16.101562 C 82.128906 16.101562 81.878906 15.394531 81.878906 14.726562 C 81.878906 13.234375 83.097656 11.976562 83.097656 11.820312 C 83.097656 11.691406 83 11.59375 82.871094 11.59375 C 82.714844 11.59375 82.628906 11.75 82.558594 11.859375 C 81.949219 12.742188 81.496094 14.164062 81.496094 15.253906 C 81.496094 16.078125 81.769531 16.960938 82.75 16.960938 C 83.597656 16.960938 84.160156 16.363281 84.589844 15.707031 C 84.699219 16.402344 85.164062 16.960938 85.90625 16.960938 C 86.839844 16.960938 87.414062 16.234375 87.84375 15.335938 C 88.128906 14.75 88.585938 13.125 88.585938 12.382812 Z M 88.585938 12.382812 "/>
<path style=" stroke:none;fill-rule:nonzero;fill:rgb(0%,0%,0%);fill-opacity:1;" d="M 128.445312 122.929688 C 128.410156 123.109375 128.335938 123.386719 128.335938 123.445312 C 128.335938 123.660156 128.503906 123.769531 128.683594 123.769531 C 128.828125 123.769531 129.042969 123.671875 129.125 123.433594 C 129.136719 123.410156 129.28125 122.847656 129.355469 122.546875 L 129.617188 121.472656 C 129.6875 121.210938 129.761719 120.945312 129.820312 120.671875 C 129.867188 120.46875 129.964844 120.121094 129.976562 120.074219 C 130.15625 119.703125 130.789062 118.617188 131.925781 118.617188 C 132.460938 118.617188 132.570312 119.058594 132.570312 119.453125 C 132.570312 119.75 132.484375 120.085938 132.390625 120.445312 L 132.054688 121.832031 L 131.816406 122.738281 C 131.769531 122.980469 131.660156 123.386719 131.660156 123.445312 C 131.660156 123.660156 131.828125 123.769531 132.007812 123.769531 C 132.378906 123.769531 132.449219 123.46875 132.546875 123.085938 C 132.714844 122.417969 133.15625 120.671875 133.261719 120.207031 C 133.296875 120.050781 133.933594 118.617188 135.234375 118.617188 C 135.75 118.617188 135.882812 119.023438 135.882812 119.453125 C 135.882812 120.132812 135.378906 121.496094 135.140625 122.128906 C 135.03125 122.417969 134.984375 122.546875 134.984375 122.789062 C 134.984375 123.347656 135.402344 123.769531 135.964844 123.769531 C 137.089844 123.769531 137.53125 122.023438 137.53125 121.925781 C 137.53125 121.808594 137.421875 121.808594 137.386719 121.808594 C 137.269531 121.808594 137.269531 121.84375 137.207031 122.023438 C 137.027344 122.65625 136.644531 123.503906 135.988281 123.503906 C 135.785156 123.503906 135.703125 123.386719 135.703125 123.109375 C 135.703125 122.8125 135.808594 122.523438 135.917969 122.261719 C 136.144531 121.640625 136.644531 120.3125 136.644531 119.632812 C 136.644531 118.855469 136.167969 118.351562 135.269531 118.351562 C 134.375 118.351562 133.765625 118.878906 133.324219 119.511719 C 133.3125 119.355469 133.273438 118.949219 132.941406 118.664062 C 132.640625 118.410156 132.257812 118.351562 131.960938 118.351562 C 130.882812 118.351562 130.296875 119.117188 130.09375 119.390625 C 130.035156 118.710938 129.53125 118.351562 128.996094 118.351562 C 128.445312 118.351562 128.21875 118.820312 128.109375 119.035156 C 127.894531 119.453125 127.738281 120.15625 127.738281 120.195312 C 127.738281 120.3125 127.859375 120.3125 127.882812 120.3125 C 128.003906 120.3125 128.015625 120.300781 128.085938 120.039062 C 128.289062 119.1875 128.527344 118.617188 128.960938 118.617188 C 129.152344 118.617188 129.328125 118.710938 129.328125 119.164062 C 129.328125 119.417969 129.292969 119.546875 129.136719 120.167969 Z M 128.445312 122.929688 "/>
<g clip-path="url(#clip7)" clip-rule="nonzero">
<path style=" stroke:none;fill-rule:nonzero;fill:rgb(0%,0%,0%);fill-opacity:1;" d="M 96.925781 106.933594 C 96.925781 106.144531 96.710938 104.484375 95.488281 104.484375 C 93.828125 104.484375 91.988281 107.855469 91.988281 110.59375 C 91.988281 111.714844 92.332031 113.042969 93.421875 113.042969 C 95.109375 113.042969 96.925781 109.613281 96.925781 106.933594 Z M 93.253906 108.570312 C 93.457031 107.804688 93.695312 106.851562 94.175781 106 C 94.496094 105.414062 94.941406 104.746094 95.476562 104.746094 C 96.0625 104.746094 96.136719 105.511719 96.136719 106.191406 C 96.136719 106.777344 96.039062 107.386719 95.753906 108.570312 Z M 95.644531 108.953125 C 95.515625 109.503906 95.261719 110.519531 94.808594 111.382812 C 94.390625 112.195312 93.9375 112.78125 93.421875 112.78125 C 93.027344 112.78125 92.777344 112.433594 92.777344 111.320312 C 92.777344 110.820312 92.847656 110.125 93.160156 108.953125 Z M 95.644531 108.953125 "/>
</g>
<path style=" stroke:none;fill-rule:nonzero;fill:rgb(0%,0%,0%);fill-opacity:1;" d="M 110.421875 94.070312 C 110.492188 93.785156 110.527344 93.664062 110.753906 93.628906 C 110.863281 93.617188 111.246094 93.617188 111.484375 93.617188 C 112.332031 93.617188 113.660156 93.617188 113.660156 94.800781 C 113.660156 95.207031 113.46875 96.03125 113.003906 96.5 C 112.691406 96.808594 112.058594 97.191406 110.984375 97.191406 L 109.644531 97.191406 Z M 112.144531 97.347656 C 113.351562 97.085938 114.773438 96.246094 114.773438 95.039062 C 114.773438 94.011719 113.695312 93.246094 112.128906 93.246094 L 108.722656 93.246094 C 108.484375 93.246094 108.375 93.246094 108.375 93.484375 C 108.375 93.617188 108.484375 93.617188 108.710938 93.617188 C 108.734375 93.617188 108.960938 93.617188 109.164062 93.640625 C 109.382812 93.664062 109.488281 93.675781 109.488281 93.832031 C 109.488281 93.878906 109.476562 93.914062 109.441406 94.058594 L 107.839844 100.480469 C 107.71875 100.945312 107.695312 101.042969 106.75 101.042969 C 106.535156 101.042969 106.429688 101.042969 106.429688 101.28125 C 106.429688 101.410156 106.570312 101.410156 106.59375 101.410156 C 106.929688 101.410156 107.765625 101.375 108.101562 101.375 C 108.4375 101.375 109.285156 101.410156 109.621094 101.410156 C 109.714844 101.410156 109.859375 101.410156 109.859375 101.171875 C 109.859375 101.042969 109.75 101.042969 109.523438 101.042969 C 109.082031 101.042969 108.746094 101.042969 108.746094 100.824219 C 108.746094 100.753906 108.769531 100.695312 108.78125 100.621094 L 109.570312 97.453125 L 110.996094 97.453125 C 112.082031 97.453125 112.296875 98.125 112.296875 98.542969 C 112.296875 98.722656 112.203125 99.09375 112.128906 99.367188 C 112.046875 99.703125 111.9375 100.144531 111.9375 100.382812 C 111.9375 101.675781 113.375 101.675781 113.53125 101.675781 C 114.546875 101.675781 114.964844 100.46875 114.964844 100.300781 C 114.964844 100.15625 114.832031 100.15625 114.820312 100.15625 C 114.714844 100.15625 114.6875 100.238281 114.664062 100.324219 C 114.367188 101.207031 113.851562 101.410156 113.578125 101.410156 C 113.183594 101.410156 113.097656 101.148438 113.097656 100.683594 C 113.097656 100.3125 113.171875 99.703125 113.21875 99.320312 C 113.242188 99.152344 113.265625 98.925781 113.265625 98.757812 C 113.265625 97.835938 112.464844 97.464844 112.144531 97.347656 Z M 112.144531 97.347656 "/>
<path style="fill:none;stroke-width:1;stroke-linecap:butt;stroke-linejoin:miter;stroke:rgb(0%,0%,0%);stroke-opacity:1;stroke-miterlimit:4;" d="M 2.140625 156.472656 L 2.140625 164.6875 "/>
<path style="fill:none;stroke-width:1;stroke-linecap:butt;stroke-linejoin:miter;stroke:rgb(0%,0%,0%);stroke-opacity:1;stroke-miterlimit:4;" d="M 153.972656 160.582031 L 153.972656 168.796875 "/>
<path style="fill:none;stroke-width:1;stroke-linecap:butt;stroke-linejoin:miter;stroke:rgb(0%,0%,0%);stroke-opacity:1;stroke-miterlimit:4;" d="M 167.9375 128.714844 L 167.9375 136.933594 "/>
<path style="fill:none;stroke-width:1;stroke-linecap:butt;stroke-linejoin:miter;stroke:rgb(0%,0%,0%);stroke-opacity:1;stroke-miterlimit:4;" d="M 158.085938 159.410156 L 161.609375 151.375 "/>
</g>
</svg>
