<?xml version="1.0" encoding="UTF-8"?>
<svg xmlns="http://www.w3.org/2000/svg" xmlns:xlink="http://www.w3.org/1999/xlink" width="126.1417pt" height="117.6378pt" viewBox="0 0 126.1417 117.6378" version="1.1">
<defs>
<clipPath id="clip1">
  <path d="M 0 0 L 126.140625 0 L 126.140625 117.636719 L 0 117.636719 Z M 0 0 "/>
</clipPath>
<clipPath id="clip3">
  <path d="M 0 0 L 126.140625 0 L 126.140625 117.636719 L 0 117.636719 Z M 0 0 "/>
</clipPath>
<clipPath id="clip2">
  <rect x="0" y="0" width="127" height="118"/>
</clipPath>
<g id="surface5" clip-path="url(#clip2)">
<g clip-path="url(#clip3)" clip-rule="nonzero">
<path style=" stroke:none;fill-rule:nonzero;fill:rgb(100%,100%,100%);fill-opacity:1;" d="M 0 0 L 126.140625 0 L 126.140625 117.636719 L 0 117.636719 Z M 0 0 "/>
</g>
</g>
</defs>
<g id="surface1">
<g clip-path="url(#clip1)" clip-rule="nonzero">
<use xlink:href="#surface5"/>
</g>
<path style="fill:none;stroke-width:0.5;stroke-linecap:butt;stroke-linejoin:miter;stroke:rgb(0%,0%,0%);stroke-opacity:1;stroke-miterlimit:4;" d="M 60.070312 112.101562 C 33.738281 112.101562 12.394531 90.757812 12.394531 64.429688 C 12.394531 38.101562 33.738281 16.757812 60.070312 16.757812 C 86.398438 16.757812 107.742188 38.101562 107.742188 64.429688 C 107.742188 90.757812 86.398438 112.101562 60.070312 112.101562 Z M 60.070312 112.101562 "/>
<path style="fill:none;stroke-width:1;stroke-linecap:butt;stroke-linejoin:miter;stroke:rgb(0%,0%,0%);stroke-opacity:1;stroke-miterlimit:4;" d="M 107.742188 68.636719 C 78.875 65.773438 55.75 46.78125 48.546875 18.683594 "/>
<path style="fill:none;stroke-width:0.5;stroke-linecap:butt;stroke-linejoin:miter;stroke:rgb(0%,0%,0%);stroke-opacity:1;stroke-dasharray:1.5,1;stroke-miterlimit:4;" d="M 60.472656 71.636719 L 60.097656 109.101562 "/>
<path style="fill:none;stroke-width:0.5;stroke-linecap:butt;stroke-linejoin:miter;stroke:rgb(0%,0%,0%);stroke-opacity:1;stroke-miterlimit:4;" d="M 60.472656 71.636719 L 60.503906 68.636719 M 63.003906 68.664062 L 58.003906 68.613281 "/>
<path style="fill:none;stroke-width:0.5;stroke-linecap:butt;stroke-linejoin:miter;stroke:rgb(0%,0%,0%);stroke-opacity:1;stroke-miterlimit:4;" d="M 60.097656 109.101562 L 60.070312 112.101562 M 57.570312 112.078125 L 62.570312 112.128906 "/>
<path style=" stroke:none;fill-rule:nonzero;fill:rgb(0%,0%,0%);fill-opacity:1;" d="M 51.539062 84.023438 C 51.613281 83.734375 51.648438 83.617188 51.875 83.582031 C 51.980469 83.570312 52.363281 83.570312 52.605469 83.570312 C 53.453125 83.570312 54.78125 83.570312 54.78125 84.753906 C 54.78125 85.160156 54.589844 85.984375 54.121094 86.449219 C 53.8125 86.761719 53.179688 87.144531 52.101562 87.144531 L 50.761719 87.144531 Z M 53.261719 87.296875 C 54.46875 87.035156 55.890625 86.199219 55.890625 84.992188 C 55.890625 83.964844 54.816406 83.199219 53.25 83.199219 L 49.84375 83.199219 C 49.601562 83.199219 49.496094 83.199219 49.496094 83.4375 C 49.496094 83.570312 49.601562 83.570312 49.832031 83.570312 C 49.855469 83.570312 50.082031 83.570312 50.285156 83.59375 C 50.5 83.617188 50.605469 83.628906 50.605469 83.785156 C 50.605469 83.832031 50.59375 83.867188 50.558594 84.011719 L 48.957031 90.429688 C 48.839844 90.898438 48.8125 90.992188 47.871094 90.992188 C 47.65625 90.992188 47.546875 90.992188 47.546875 91.230469 C 47.546875 91.363281 47.691406 91.363281 47.714844 91.363281 C 48.050781 91.363281 48.886719 91.328125 49.21875 91.328125 C 49.554688 91.328125 50.402344 91.363281 50.738281 91.363281 C 50.835938 91.363281 50.976562 91.363281 50.976562 91.125 C 50.976562 90.992188 50.871094 90.992188 50.644531 90.992188 C 50.199219 90.992188 49.867188 90.992188 49.867188 90.777344 C 49.867188 90.707031 49.890625 90.644531 49.902344 90.574219 L 50.691406 87.40625 L 52.113281 87.40625 C 53.203125 87.40625 53.417969 88.074219 53.417969 88.496094 C 53.417969 88.671875 53.320312 89.042969 53.25 89.320312 C 53.164062 89.652344 53.058594 90.097656 53.058594 90.335938 C 53.058594 91.625 54.492188 91.625 54.648438 91.625 C 55.664062 91.625 56.082031 90.417969 56.082031 90.25 C 56.082031 90.109375 55.953125 90.109375 55.9375 90.109375 C 55.832031 90.109375 55.808594 90.191406 55.785156 90.277344 C 55.484375 91.160156 54.972656 91.363281 54.695312 91.363281 C 54.300781 91.363281 54.21875 91.101562 54.21875 90.632812 C 54.21875 90.261719 54.289062 89.652344 54.335938 89.269531 C 54.359375 89.105469 54.386719 88.875 54.386719 88.710938 C 54.386719 87.789062 53.585938 87.417969 53.261719 87.296875 Z M 53.261719 87.296875 "/>
<path style=" stroke:none;fill-rule:nonzero;fill:rgb(0%,0%,0%);fill-opacity:1;" d="M 114.625 66.796875 C 114.625 66.007812 114.410156 64.34375 113.191406 64.34375 C 111.53125 64.34375 109.6875 67.714844 109.6875 70.453125 C 109.6875 71.578125 110.035156 72.90625 111.125 72.90625 C 112.808594 72.90625 114.625 69.472656 114.625 66.796875 Z M 110.957031 68.433594 C 111.160156 67.667969 111.398438 66.710938 111.875 65.863281 C 112.199219 65.277344 112.640625 64.609375 113.179688 64.609375 C 113.765625 64.609375 113.835938 65.371094 113.835938 66.054688 C 113.835938 66.640625 113.742188 67.25 113.453125 68.433594 Z M 113.347656 68.816406 C 113.214844 69.367188 112.964844 70.382812 112.511719 71.242188 C 112.09375 72.054688 111.636719 72.640625 111.125 72.640625 C 110.730469 72.640625 110.476562 72.292969 110.476562 71.183594 C 110.476562 70.679688 110.550781 69.988281 110.859375 68.816406 Z M 113.347656 68.816406 "/>
<path style=" stroke:none;fill-rule:nonzero;fill:rgb(0%,0%,0%);fill-opacity:1;" d="M 119.117188 71.898438 C 119.117188 70.976562 119.007812 70.316406 118.625 69.730469 C 118.363281 69.34375 117.84375 69.011719 117.175781 69.011719 C 115.234375 69.011719 115.234375 71.292969 115.234375 71.898438 C 115.234375 72.5 115.234375 74.734375 117.175781 74.734375 C 119.117188 74.734375 119.117188 72.5 119.117188 71.898438 Z M 117.175781 74.5 C 116.792969 74.5 116.28125 74.273438 116.113281 73.585938 C 115.996094 73.09375 115.996094 72.40625 115.996094 71.789062 C 115.996094 71.175781 115.996094 70.542969 116.121094 70.082031 C 116.296875 69.421875 116.832031 69.246094 117.175781 69.246094 C 117.628906 69.246094 118.0625 69.519531 118.214844 70.007812 C 118.347656 70.457031 118.355469 71.058594 118.355469 71.789062 C 118.355469 72.40625 118.355469 73.027344 118.246094 73.554688 C 118.078125 74.316406 117.511719 74.5 117.175781 74.5 Z M 117.175781 74.5 "/>
<path style=" stroke:none;fill-rule:nonzero;fill:rgb(0%,0%,0%);fill-opacity:1;" d="M 48.773438 8.15625 C 48.773438 7.367188 48.558594 5.703125 47.335938 5.703125 C 45.675781 5.703125 43.835938 9.074219 43.835938 11.8125 C 43.835938 12.9375 44.183594 14.261719 45.269531 14.261719 C 46.957031 14.261719 48.773438 10.832031 48.773438 8.15625 Z M 45.101562 9.792969 C 45.304688 9.027344 45.542969 8.070312 46.023438 7.222656 C 46.34375 6.636719 46.789062 5.964844 47.324219 5.964844 C 47.910156 5.964844 47.984375 6.730469 47.984375 7.414062 C 47.984375 8 47.886719 8.609375 47.601562 9.792969 Z M 47.492188 10.175781 C 47.363281 10.726562 47.109375 11.742188 46.65625 12.601562 C 46.238281 13.414062 45.785156 14 45.269531 14 C 44.875 14 44.625 13.652344 44.625 12.542969 C 44.625 12.039062 44.695312 11.347656 45.007812 10.175781 Z M 47.492188 10.175781 "/>
<path style=" stroke:none;fill-rule:nonzero;fill:rgb(0%,0%,0%);fill-opacity:1;" d="M 51.75 10.605469 C 51.75 10.378906 51.730469 10.371094 51.496094 10.371094 C 50.960938 10.898438 50.199219 10.90625 49.859375 10.90625 L 49.859375 11.207031 C 50.058594 11.207031 50.609375 11.207031 51.070312 10.972656 L 51.070312 15.238281 C 51.070312 15.515625 51.070312 15.625 50.234375 15.625 L 49.914062 15.625 L 49.914062 15.925781 C 50.066406 15.917969 51.097656 15.890625 51.40625 15.890625 C 51.664062 15.890625 52.71875 15.917969 52.902344 15.925781 L 52.902344 15.625 L 52.585938 15.625 C 51.75 15.625 51.75 15.515625 51.75 15.238281 Z M 51.75 10.605469 "/>
<path style=" stroke:none;fill-rule:nonzero;fill:rgb(0%,0%,0%);fill-opacity:1;" d="M 69.136719 49.070312 C 69.101562 49.25 69.03125 49.527344 69.03125 49.585938 C 69.03125 49.800781 69.195312 49.910156 69.375 49.910156 C 69.519531 49.910156 69.734375 49.8125 69.820312 49.574219 C 69.84375 49.527344 70.25 47.898438 70.296875 47.683594 C 70.390625 47.289062 70.609375 46.453125 70.679688 46.128906 C 70.726562 45.976562 71.0625 45.414062 71.347656 45.152344 C 71.445312 45.066406 71.792969 44.757812 72.304688 44.757812 C 72.617188 44.757812 72.796875 44.898438 72.808594 44.898438 C 72.449219 44.960938 72.1875 45.246094 72.1875 45.558594 C 72.1875 45.75 72.316406 45.976562 72.640625 45.976562 C 72.960938 45.976562 73.296875 45.699219 73.296875 45.269531 C 73.296875 44.851562 72.914062 44.492188 72.304688 44.492188 C 71.527344 44.492188 71.003906 45.078125 70.773438 45.414062 C 70.679688 44.875 70.25 44.492188 69.6875 44.492188 C 69.136719 44.492188 68.910156 44.960938 68.800781 45.175781 C 68.585938 45.582031 68.429688 46.296875 68.429688 46.335938 C 68.429688 46.453125 68.550781 46.453125 68.574219 46.453125 C 68.695312 46.453125 68.707031 46.441406 68.777344 46.179688 C 68.980469 45.328125 69.21875 44.757812 69.652344 44.757812 C 69.855469 44.757812 70.023438 44.851562 70.023438 45.304688 C 70.023438 45.558594 69.984375 45.6875 69.832031 46.308594 Z M 69.136719 49.070312 "/>
<path style=" stroke:none;fill-rule:nonzero;fill:rgb(0%,0%,0%);fill-opacity:1;" d="M 77.765625 52.644531 C 77.765625 52.609375 77.765625 52.585938 77.5625 52.382812 C 76.070312 50.878906 75.6875 48.617188 75.6875 46.789062 C 75.6875 44.707031 76.140625 42.628906 77.613281 41.132812 C 77.765625 40.988281 77.765625 40.964844 77.765625 40.929688 C 77.765625 40.847656 77.71875 40.8125 77.648438 40.8125 C 77.527344 40.8125 76.453125 41.625 75.746094 43.140625 C 75.136719 44.457031 74.992188 45.785156 74.992188 46.789062 C 74.992188 47.722656 75.125 49.167969 75.78125 50.519531 C 76.5 51.988281 77.527344 52.765625 77.648438 52.765625 C 77.71875 52.765625 77.765625 52.730469 77.765625 52.644531 Z M 77.765625 52.644531 "/>
<path style=" stroke:none;fill-rule:nonzero;fill:rgb(0%,0%,0%);fill-opacity:1;" d="M 83.898438 43.800781 C 83.898438 43.011719 83.683594 41.347656 82.464844 41.347656 C 80.804688 41.347656 78.960938 44.71875 78.960938 47.457031 C 78.960938 48.582031 79.308594 49.910156 80.398438 49.910156 C 82.082031 49.910156 83.898438 46.476562 83.898438 43.800781 Z M 80.230469 45.4375 C 80.433594 44.671875 80.671875 43.714844 81.148438 42.867188 C 81.472656 42.28125 81.914062 41.613281 82.453125 41.613281 C 83.039062 41.613281 83.109375 42.375 83.109375 43.058594 C 83.109375 43.644531 83.015625 44.253906 82.726562 45.4375 Z M 82.621094 45.820312 C 82.488281 46.371094 82.238281 47.386719 81.785156 48.246094 C 81.367188 49.058594 80.910156 49.644531 80.398438 49.644531 C 80.003906 49.644531 79.75 49.300781 79.75 48.1875 C 79.75 47.683594 79.824219 46.992188 80.132812 45.820312 Z M 82.621094 45.820312 "/>
<path style=" stroke:none;fill-rule:nonzero;fill:rgb(0%,0%,0%);fill-opacity:1;" d="M 87.859375 46.789062 C 87.859375 45.855469 87.726562 44.410156 87.070312 43.058594 C 86.351562 41.585938 85.324219 40.8125 85.203125 40.8125 C 85.132812 40.8125 85.085938 40.859375 85.085938 40.929688 C 85.085938 40.964844 85.085938 40.988281 85.3125 41.207031 C 86.484375 42.390625 87.164062 44.289062 87.164062 46.789062 C 87.164062 48.832031 86.722656 50.9375 85.242188 52.441406 C 85.085938 52.585938 85.085938 52.609375 85.085938 52.644531 C 85.085938 52.71875 85.132812 52.765625 85.203125 52.765625 C 85.324219 52.765625 86.398438 51.953125 87.105469 50.433594 C 87.714844 49.121094 87.859375 47.792969 87.859375 46.789062 Z M 87.859375 46.789062 "/>
</g>
</svg>
