<?xml version="1.0" encoding="UTF-8"?>
<svg xmlns="http://www.w3.org/2000/svg" xmlns:xlink="http://www.w3.org/1999/xlink" width="226.7717pt" height="170.0787pt" viewBox="0 0 226.7717 170.0787" version="1.1">
<defs>
<clipPath id="clip1">
  <path d="M 0 0 L 226.773438 0 L 226.773438 170.078125 L 0 170.078125 Z M 0 0 "/>
</clipPath>
<clipPath id="clip3">
  <path d="M 0 0 L 226.773438 0 L 226.773438 170.078125 L 0 170.078125 Z M 0 0 "/>
</clipPath>
<clipPath id="clip2">
  <rect x="0" y="0" width="227" height="171"/>
</clipPath>
<g id="surface5" clip-path="url(#clip2)">
<g clip-path="url(#clip3)" clip-rule="nonzero">
<path style=" stroke:none;fill-rule:nonzero;fill:rgb(100%,100%,100%);fill-opacity:1;" d="M 0 0 L 226.773438 0 L 226.773438 170.078125 L 0 170.078125 Z M 0 0 "/>
</g>
</g>
<clipPath id="clip4">
  <path d="M 0 35 L 226.773438 35 L 226.773438 161 L 0 161 Z M 0 35 "/>
</clipPath>
<clipPath id="clip5">
  <path d="M 120.273438 7.824219 L 126 7.824219 L 126 16.625 L 120.273438 16.625 Z M 120.273438 7.824219 "/>
</clipPath>
</defs>
<g id="surface1">
<g clip-path="url(#clip1)" clip-rule="nonzero">
<use xlink:href="#surface5"/>
</g>
<path style="fill:none;stroke-width:0.5;stroke-linecap:butt;stroke-linejoin:miter;stroke:rgb(0%,0%,0%);stroke-opacity:1;stroke-miterlimit:4;" d="M 53.039062 89.289062 L 167.25 114.402344 "/>
<path style="fill:none;stroke-width:0.5;stroke-linecap:butt;stroke-linejoin:miter;stroke:rgb(0%,0%,0%);stroke-opacity:1;stroke-miterlimit:4;" d="M 78.339844 146.121094 L 185.519531 57.570312 "/>
<g clip-path="url(#clip4)" clip-rule="nonzero">
<path style="fill:none;stroke-width:1;stroke-linecap:butt;stroke-linejoin:miter;stroke:rgb(0%,0%,0%);stroke-opacity:1;stroke-miterlimit:4;" d="M 110.894531 40.796875 L 224.925781 66.222656 L 117.746094 154.773438 L 3.710938 129.347656 Z M 110.894531 40.796875 "/>
</g>
<path style="fill-rule:nonzero;fill:rgb(100%,100%,100%);fill-opacity:1;stroke-width:1;stroke-linecap:butt;stroke-linejoin:miter;stroke:rgb(0%,0%,0%);stroke-opacity:1;stroke-miterlimit:4;" d="M 127.25 105.039062 C 106.664062 106.160156 88.964844 88.589844 87.71875 65.789062 C 86.476562 42.988281 102.15625 23.59375 122.742188 22.46875 C 143.328125 21.34375 161.027344 38.917969 162.273438 61.71875 C 163.519531 84.519531 147.839844 103.914062 127.25 105.039062 Z M 127.25 105.039062 "/>
<path style="fill:none;stroke-width:0.5;stroke-linecap:butt;stroke-linejoin:miter;stroke:rgb(0%,0%,0%);stroke-opacity:1;stroke-dasharray:1.5,1;stroke-miterlimit:4;" d="M 91.292969 35.613281 C 98.597656 26.28125 109.949219 19.621094 124.058594 19.183594 C 136.890625 19.5625 146.269531 24.914062 153.6875 32.421875 "/>
<path style="fill-rule:nonzero;fill:rgb(0%,0%,0%);fill-opacity:1;stroke-width:0.5;stroke-linecap:butt;stroke-linejoin:miter;stroke:rgb(0%,0%,0%);stroke-opacity:1;stroke-miterlimit:4;" d="M 152.582031 33.433594 L 156.390625 35.367188 L 154.792969 31.40625 Z M 152.582031 33.433594 "/>
<path style="fill:none;stroke-width:0.5;stroke-linecap:butt;stroke-linejoin:miter;stroke:rgb(0%,0%,0%);stroke-opacity:1;stroke-dasharray:1.5,1;stroke-miterlimit:4;" d="M 86.988281 113.0625 L 176.875 96.761719 "/>
<path style="fill:none;stroke-width:0.5;stroke-linecap:butt;stroke-linejoin:miter;stroke:rgb(0%,0%,0%);stroke-opacity:1;stroke-dasharray:1.5,1;stroke-miterlimit:4;" d="M 163.128906 99.453125 C 163.941406 104.183594 163.804688 109.027344 162.726562 113.699219 "/>
<g clip-path="url(#clip5)" clip-rule="nonzero">
<path style=" stroke:none;fill-rule:nonzero;fill:rgb(0%,0%,0%);fill-opacity:1;" d="M 125.835938 10.261719 C 125.835938 9.472656 125.617188 7.8125 124.398438 7.8125 C 122.738281 7.8125 120.898438 11.183594 120.898438 13.921875 C 120.898438 15.042969 121.242188 16.371094 122.332031 16.371094 C 124.015625 16.371094 125.835938 12.941406 125.835938 10.261719 Z M 122.164062 11.898438 C 122.367188 11.132812 122.605469 10.179688 123.085938 9.328125 C 123.40625 8.742188 123.847656 8.074219 124.386719 8.074219 C 124.972656 8.074219 125.046875 8.839844 125.046875 9.519531 C 125.046875 10.105469 124.949219 10.714844 124.664062 11.898438 Z M 124.554688 12.28125 C 124.421875 12.832031 124.171875 13.847656 123.71875 14.710938 C 123.300781 15.523438 122.84375 16.109375 122.332031 16.109375 C 121.9375 16.109375 121.6875 15.761719 121.6875 14.648438 C 121.6875 14.148438 121.757812 13.453125 122.066406 12.28125 Z M 124.554688 12.28125 "/>
</g>
<path style=" stroke:none;fill-rule:nonzero;fill:rgb(0%,0%,0%);fill-opacity:1;" d="M 160.097656 101.492188 C 160.097656 101.46875 160.136719 101.335938 160.136719 101.324219 C 160.136719 101.3125 160.136719 101.203125 159.992188 101.203125 C 159.871094 101.203125 159.859375 101.238281 159.8125 101.441406 L 159.117188 104.203125 C 157.21875 104.265625 155.460938 105.855469 155.460938 107.480469 C 155.460938 108.617188 156.296875 109.558594 157.753906 109.644531 C 157.660156 110.015625 157.578125 110.398438 157.480469 110.769531 C 157.335938 111.328125 157.21875 111.785156 157.21875 111.820312 C 157.21875 111.941406 157.300781 111.953125 157.359375 111.953125 C 157.421875 111.953125 157.445312 111.941406 157.480469 111.902344 C 157.503906 111.878906 157.578125 111.59375 157.613281 111.425781 L 158.066406 109.644531 C 159.992188 109.585938 161.726562 107.96875 161.726562 106.367188 C 161.726562 105.425781 161.089844 104.324219 159.429688 104.203125 Z M 157.816406 109.382812 C 157.097656 109.34375 156.238281 108.925781 156.238281 107.730469 C 156.238281 106.296875 157.265625 104.621094 159.046875 104.46875 Z M 159.359375 104.46875 C 160.265625 104.515625 160.949219 105.066406 160.949219 106.117188 C 160.949219 107.527344 159.917969 109.238281 158.125 109.382812 Z M 159.359375 104.46875 "/>
<path style=" stroke:none;fill-rule:nonzero;fill:rgb(0%,0%,0%);fill-opacity:1;" d="M 77.730469 151.03125 C 77.800781 150.71875 78.078125 149.621094 78.914062 149.621094 C 78.972656 149.621094 79.261719 149.621094 79.511719 149.777344 C 79.175781 149.835938 78.9375 150.132812 78.9375 150.421875 C 78.9375 150.613281 79.070312 150.839844 79.390625 150.839844 C 79.65625 150.839844 80.039062 150.625 80.039062 150.144531 C 80.039062 149.523438 79.332031 149.355469 78.925781 149.355469 C 78.234375 149.355469 77.8125 149.992188 77.671875 150.265625 C 77.371094 149.476562 76.726562 149.355469 76.378906 149.355469 C 75.136719 149.355469 74.453125 150.898438 74.453125 151.199219 C 74.453125 151.316406 74.574219 151.316406 74.597656 151.316406 C 74.695312 151.316406 74.730469 151.292969 74.753906 151.1875 C 75.160156 149.917969 75.949219 149.621094 76.355469 149.621094 C 76.582031 149.621094 77 149.726562 77 150.421875 C 77 150.792969 76.796875 151.59375 76.355469 153.265625 C 76.164062 154.007812 75.746094 154.511719 75.21875 154.511719 C 75.148438 154.511719 74.875 154.511719 74.621094 154.355469 C 74.921875 154.292969 75.183594 154.042969 75.183594 153.707031 C 75.183594 153.386719 74.921875 153.289062 74.742188 153.289062 C 74.382812 153.289062 74.085938 153.601562 74.085938 153.984375 C 74.085938 154.535156 74.683594 154.773438 75.207031 154.773438 C 75.996094 154.773438 76.425781 153.9375 76.464844 153.863281 C 76.605469 154.308594 77.039062 154.773438 77.753906 154.773438 C 78.984375 154.773438 79.667969 153.230469 79.667969 152.933594 C 79.667969 152.8125 79.558594 152.8125 79.523438 152.8125 C 79.417969 152.8125 79.390625 152.859375 79.367188 152.945312 C 78.972656 154.222656 78.160156 154.511719 77.777344 154.511719 C 77.3125 154.511719 77.121094 154.128906 77.121094 153.722656 C 77.121094 153.457031 77.191406 153.195312 77.324219 152.667969 Z M 77.730469 151.03125 "/>
<path style=" stroke:none;fill-rule:nonzero;fill:rgb(0%,0%,0%);fill-opacity:1;" d="M 172.710938 115.128906 C 172.761719 114.960938 172.761719 114.9375 172.761719 114.855469 C 172.761719 114.640625 172.59375 114.53125 172.414062 114.53125 C 172.292969 114.53125 172.101562 114.605469 171.996094 114.785156 C 171.972656 114.84375 171.875 115.214844 171.828125 115.429688 C 171.742188 115.738281 171.660156 116.0625 171.589844 116.386719 L 171.050781 118.539062 C 171.003906 118.714844 170.488281 119.554688 169.699219 119.554688 C 169.089844 119.554688 168.957031 119.027344 168.957031 118.585938 C 168.957031 118.035156 169.160156 117.292969 169.566406 116.242188 C 169.757812 115.75 169.808594 115.621094 169.808594 115.382812 C 169.808594 114.84375 169.425781 114.402344 168.828125 114.402344 C 167.691406 114.402344 167.25 116.132812 167.25 116.242188 C 167.25 116.363281 167.367188 116.363281 167.390625 116.363281 C 167.511719 116.363281 167.523438 116.335938 167.582031 116.144531 C 167.90625 115.023438 168.382812 114.664062 168.792969 114.664062 C 168.886719 114.664062 169.089844 114.664062 169.089844 115.046875 C 169.089844 115.34375 168.96875 115.65625 168.886719 115.882812 C 168.410156 117.148438 168.191406 117.832031 168.191406 118.394531 C 168.191406 119.457031 168.945312 119.816406 169.652344 119.816406 C 170.117188 119.816406 170.523438 119.613281 170.859375 119.277344 C 170.703125 119.898438 170.558594 120.484375 170.082031 121.121094 C 169.769531 121.527344 169.316406 121.871094 168.765625 121.871094 C 168.601562 121.871094 168.0625 121.835938 167.859375 121.371094 C 168.050781 121.371094 168.207031 121.371094 168.371094 121.226562 C 168.492188 121.121094 168.613281 120.964844 168.613281 120.738281 C 168.613281 120.367188 168.289062 120.320312 168.167969 120.320312 C 167.894531 120.320312 167.5 120.507812 167.5 121.09375 C 167.5 121.691406 168.027344 122.136719 168.765625 122.136719 C 170 122.136719 171.230469 121.046875 171.566406 119.695312 Z M 172.710938 115.128906 "/>
</g>
</svg>
